<svg xmlns="http://www.w3.org/2000/svg" xmlns:xlink="http://www.w3.org/1999/xlink" width="46.875" height="35.03" viewBox="0 0 46.875 35.03">
  <metadata><?xpacket begin="﻿" id="W5M0MpCehiHzreSzNTczkc9d"?>
<x:xmpmeta xmlns:x="adobe:ns:meta/" x:xmptk="Adobe XMP Core 5.6-c138 79.159824, 2016/09/14-01:09:01        ">
   <rdf:RDF xmlns:rdf="http://www.w3.org/1999/02/22-rdf-syntax-ns#">
      <rdf:Description rdf:about=""/>
   </rdf:RDF>
</x:xmpmeta>
                                                                                                    
                                                                                                    
                                                                                                    
                                                                                                    
                                                                                                    
                                                                                                    
                                                                                                    
                                                                                                    
                                                                                                    
                                                                                                    
                                                                                                    
                                                                                                    
                                                                                                    
                                                                                                    
                                                                                                    
                                                                                                    
                                                                                                    
                                                                                                    
                                                                                                    
                                                                                                    
                           
<?xpacket end="w"?></metadata>
<defs>
    <style>
      .cls-1 {
        fill: #fffff8;
        fill-rule: evenodd;
        filter: url(#filter);
      }
    </style>
    <filter id="filter" x="226" y="3538.69" width="46.875" height="35.03" filterUnits="userSpaceOnUse">
      <feFlood result="flood" flood-color="#f9812b"/>
      <feComposite result="composite" operator="in" in2="SourceGraphic"/>
      <feBlend result="blend" in2="SourceGraphic"/>
    </filter>
  </defs>
  <path id="_cloud" data-name=" cloud" class="cls-1" d="M261.158,3573.7H239.184v-0.1A11.659,11.659,0,0,1,226,3562.03a11.65,11.65,0,0,1,5.93-10.14,14.655,14.655,0,0,1,28.937-1.51,2.825,2.825,0,0,1,.291-0.02A11.67,11.67,0,1,1,261.158,3573.7Zm0-17.51h-0.294a8.91,8.91,0,0,1-2.831,0H255.3v-2.91a8.79,8.79,0,0,0-17.579,0v2.91a7.442,7.442,0,0,0-2.929.83l-0.908.63a6.539,6.539,0,0,0-.557.56,2.047,2.047,0,0,0-.365.46,5.713,5.713,0,0,0-1.1,3.36,6.071,6.071,0,0,0,4.394,5.84h24.9A5.84,5.84,0,1,0,261.158,3556.19Z" transform="translate(-226 -3538.69)"/>
</svg>
