<svg xmlns="http://www.w3.org/2000/svg" xmlns:xlink="http://www.w3.org/1999/xlink" width="46.875" height="46.72" viewBox="0 0 46.875 46.72">
  <metadata><?xpacket begin="﻿" id="W5M0MpCehiHzreSzNTczkc9d"?>
<x:xmpmeta xmlns:x="adobe:ns:meta/" x:xmptk="Adobe XMP Core 5.6-c138 79.159824, 2016/09/14-01:09:01        ">
   <rdf:RDF xmlns:rdf="http://www.w3.org/1999/02/22-rdf-syntax-ns#">
      <rdf:Description rdf:about=""/>
   </rdf:RDF>
</x:xmpmeta>
                                                                                                    
                                                                                                    
                                                                                                    
                                                                                                    
                                                                                                    
                                                                                                    
                                                                                                    
                                                                                                    
                                                                                                    
                                                                                                    
                                                                                                    
                                                                                                    
                                                                                                    
                                                                                                    
                                                                                                    
                                                                                                    
                                                                                                    
                                                                                                    
                                                                                                    
                                                                                                    
                           
<?xpacket end="w"?></metadata>
<defs>
    <style>
      .cls-1 {
        fill: #fffff8;
        fill-rule: evenodd;
        filter: url(#filter);
      }
    </style>
    <filter id="filter" x="738.719" y="3249.75" width="46.875" height="46.72" filterUnits="userSpaceOnUse">
      <feFlood result="flood" flood-color="#f9812b"/>
      <feComposite result="composite" operator="in" in2="SourceGraphic"/>
      <feBlend result="blend" in2="SourceGraphic"/>
    </filter>
  </defs>
  <path id="compose" class="cls-1" d="M782.673,3296.46H741.655a2.927,2.927,0,0,1-2.93-2.92v-40.86a2.918,2.918,0,0,1,2.93-2.91H756.3a2.915,2.915,0,1,1,0,5.83H744.585v35.02h35.158v-14.59a2.93,2.93,0,0,1,5.86,0v17.51A2.927,2.927,0,0,1,782.673,3296.46Zm-0.689-35.87-7.251-7.22,1.459-1.45a5.116,5.116,0,1,1,7.25,7.22Zm-14.4,14.35a5.139,5.139,0,0,1-3.213,1.46l-11.038,5.56,5.536-11.03a5.042,5.042,0,0,1,1.464-3.21l10.261-10.22,7.251,7.22Z" transform="translate(-738.719 -3249.75)"/>
</svg>
