<svg xmlns="http://www.w3.org/2000/svg" xmlns:xlink="http://www.w3.org/1999/xlink" width="46.875" height="43.78" viewBox="0 0 46.875 43.78">
  <metadata><?xpacket begin="﻿" id="W5M0MpCehiHzreSzNTczkc9d"?>
<x:xmpmeta xmlns:x="adobe:ns:meta/" x:xmptk="Adobe XMP Core 5.6-c138 79.159824, 2016/09/14-01:09:01        ">
   <rdf:RDF xmlns:rdf="http://www.w3.org/1999/02/22-rdf-syntax-ns#">
      <rdf:Description rdf:about=""/>
   </rdf:RDF>
</x:xmpmeta>
                                                                                                    
                                                                                                    
                                                                                                    
                                                                                                    
                                                                                                    
                                                                                                    
                                                                                                    
                                                                                                    
                                                                                                    
                                                                                                    
                                                                                                    
                                                                                                    
                                                                                                    
                                                                                                    
                                                                                                    
                                                                                                    
                                                                                                    
                                                                                                    
                                                                                                    
                                                                                                    
                           
<?xpacket end="w"?></metadata>
<defs>
    <style>
      .cls-1 {
        fill: #fffff8;
        fill-rule: evenodd;
        filter: url(#filter);
      }
    </style>
    <filter id="filter" x="737.25" y="3537.22" width="46.875" height="43.78" filterUnits="userSpaceOnUse">
      <feFlood result="flood" flood-color="#f9812b"/>
      <feComposite result="composite" operator="in" in2="SourceGraphic"/>
      <feBlend result="blend" in2="SourceGraphic"/>
    </filter>
  </defs>
  <path id="draft" class="cls-1" d="M763.629,3581H743.12a5.847,5.847,0,0,1-5.86-5.84v-32.1a5.854,5.854,0,0,1,5.86-5.84h11.72l4.883,5.84h0l3.906,4.67h0l5.86,7v20.43A5.847,5.847,0,0,1,763.629,3581Zm-5.86-23.35a5.844,5.844,0,0,1-5.859-5.83v-8.76h-5.86a2.927,2.927,0,0,0-2.93,2.92v26.26a2.92,2.92,0,0,0,2.93,2.92H760.7a2.92,2.92,0,0,0,2.93-2.92v-14.59h-5.86Zm17.58-16.05a4.395,4.395,0,0,1,8.789,0v4.38h-8.789v-4.38Zm4.394,39.4-4.394-10.21v-18.97h8.789v18.97Z" transform="translate(-737.25 -3537.22)"/>
</svg>
