<svg xmlns="http://www.w3.org/2000/svg" xmlns:xlink="http://www.w3.org/1999/xlink" width="46.88" height="46.72" viewBox="0 0 46.88 46.72">
  <metadata><?xpacket begin="﻿" id="W5M0MpCehiHzreSzNTczkc9d"?>
<x:xmpmeta xmlns:x="adobe:ns:meta/" x:xmptk="Adobe XMP Core 5.6-c138 79.159824, 2016/09/14-01:09:01        ">
   <rdf:RDF xmlns:rdf="http://www.w3.org/1999/02/22-rdf-syntax-ns#">
      <rdf:Description rdf:about=""/>
   </rdf:RDF>
</x:xmpmeta>
                                                                                                    
                                                                                                    
                                                                                                    
                                                                                                    
                                                                                                    
                                                                                                    
                                                                                                    
                                                                                                    
                                                                                                    
                                                                                                    
                                                                                                    
                                                                                                    
                                                                                                    
                                                                                                    
                                                                                                    
                                                                                                    
                                                                                                    
                                                                                                    
                                                                                                    
                                                                                                    
                           
<?xpacket end="w"?></metadata>
<defs>
    <style>
      .cls-1 {
        fill: #fffff8;
        fill-rule: evenodd;
        filter: url(#filter);
      }
    </style>
    <filter id="filter" x="1255.84" y="3249.75" width="46.88" height="46.72" filterUnits="userSpaceOnUse">
      <feFlood result="flood" flood-color="#f9812b"/>
      <feComposite result="composite" operator="in" in2="SourceGraphic"/>
      <feBlend result="blend" in2="SourceGraphic"/>
    </filter>
  </defs>
  <path id="grid" class="cls-1" d="M1298.33,3296.46h-11.72a4.389,4.389,0,0,1-4.4-4.38v-11.67a4.389,4.389,0,0,1,4.4-4.38h11.72a4.381,4.381,0,0,1,4.39,4.38v11.67A4.381,4.381,0,0,1,1298.33,3296.46Zm0-14.59a1.464,1.464,0,0,0-1.47-1.46h-8.79a1.455,1.455,0,0,0-1.46,1.46v8.75a1.455,1.455,0,0,0,1.46,1.46h8.79a1.464,1.464,0,0,0,1.47-1.46v-8.75Zm0-11.68h-11.72a4.387,4.387,0,0,1-4.4-4.37v-11.68a4.387,4.387,0,0,1,4.4-4.37h11.72a4.379,4.379,0,0,1,4.39,4.37v11.68A4.379,4.379,0,0,1,1298.33,3270.19Zm0-14.59a1.47,1.47,0,0,0-1.47-1.46h-8.79a1.462,1.462,0,0,0-1.46,1.46v8.76a1.462,1.462,0,0,0,1.46,1.46h8.79a1.47,1.47,0,0,0,1.47-1.46v-8.76Zm-26.37,40.86h-11.72a4.381,4.381,0,0,1-4.39-4.38v-11.67a4.381,4.381,0,0,1,4.39-4.38h11.72a4.381,4.381,0,0,1,4.39,4.38v11.67A4.381,4.381,0,0,1,1271.96,3296.46Zm0-14.59a1.464,1.464,0,0,0-1.47-1.46h-8.78a1.464,1.464,0,0,0-1.47,1.46v8.75a1.464,1.464,0,0,0,1.47,1.46h8.78a1.464,1.464,0,0,0,1.47-1.46v-8.75Zm0-11.68h-11.72a4.379,4.379,0,0,1-4.39-4.37v-11.68a4.379,4.379,0,0,1,4.39-4.37h11.72a4.379,4.379,0,0,1,4.39,4.37v11.68A4.379,4.379,0,0,1,1271.96,3270.19Zm0-14.59a1.47,1.47,0,0,0-1.47-1.46h-8.78a1.47,1.47,0,0,0-1.47,1.46v8.76a1.47,1.47,0,0,0,1.47,1.46h8.78a1.47,1.47,0,0,0,1.47-1.46v-8.76Z" transform="translate(-1255.84 -3249.75)"/>
</svg>
