<svg xmlns="http://www.w3.org/2000/svg" xmlns:xlink="http://www.w3.org/1999/xlink" width="46.875" height="46.72" viewBox="0 0 46.875 46.72">
  <metadata><?xpacket begin="﻿" id="W5M0MpCehiHzreSzNTczkc9d"?>
<x:xmpmeta xmlns:x="adobe:ns:meta/" x:xmptk="Adobe XMP Core 5.6-c138 79.159824, 2016/09/14-01:09:01        ">
   <rdf:RDF xmlns:rdf="http://www.w3.org/1999/02/22-rdf-syntax-ns#">
      <rdf:Description rdf:about=""/>
   </rdf:RDF>
</x:xmpmeta>
                                                                                                    
                                                                                                    
                                                                                                    
                                                                                                    
                                                                                                    
                                                                                                    
                                                                                                    
                                                                                                    
                                                                                                    
                                                                                                    
                                                                                                    
                                                                                                    
                                                                                                    
                                                                                                    
                                                                                                    
                                                                                                    
                                                                                                    
                                                                                                    
                                                                                                    
                                                                                                    
                           
<?xpacket end="w"?></metadata>
<defs>
    <style>
      .cls-1 {
        fill: #fffff8;
        fill-rule: evenodd;
        filter: url(#filter);
      }
    </style>
    <filter id="filter" x="227.469" y="3249.75" width="46.875" height="46.72" filterUnits="userSpaceOnUse">
      <feFlood result="flood" flood-color="#f9812b"/>
      <feComposite result="composite" operator="in" in2="SourceGraphic"/>
      <feBlend result="blend" in2="SourceGraphic"/>
    </filter>
  </defs>
  <path id="settings" class="cls-1" d="M274.343,3270.19v5.84h-6.116a17.432,17.432,0,0,1-3,7.22l4.045,4.03-4.143,4.12-4.046-4.03a17.583,17.583,0,0,1-7.244,3v6.09h-5.86v-6.09a17.529,17.529,0,0,1-7.266-3.01l-4.748,4.73-4.107-4.09,4.748-4.73a17.488,17.488,0,0,1-3.02-7.24h-6.116v-5.84h6.116a17.391,17.391,0,0,1,3.02-7.23l-4.748-4.73,4.107-4.09,4.748,4.73a17.529,17.529,0,0,1,7.266-3.01v-6.09h5.86v6.09a17.53,17.53,0,0,1,7.265,3.01l4.748-4.73,4.107,4.09-4.748,4.73a17.406,17.406,0,0,1,3.021,7.23h6.116Zm-23.439-8.75a11.675,11.675,0,1,0,11.719,11.67A11.7,11.7,0,0,0,250.9,3261.44Zm0,14.59a2.92,2.92,0,1,1,2.93-2.92A2.927,2.927,0,0,1,250.9,3276.03Z" transform="translate(-227.469 -3249.75)"/>
</svg>
