<svg xmlns="http://www.w3.org/2000/svg" width="42.875" height="39.19"><defs><filter id="a" x="790.406" y="1113.09" width="42.875" height="39.19" filterUnits="userSpaceOnUse"><feFlood result="flood" flood-color="#c7b299"/><feComposite result="composite" operator="in" in2="SourceGraphic"/><feBlend result="blend" in2="SourceGraphic"/></filter></defs><path d="M811.851 1113.11l-21.437 11.56 21.437 11.56 21.436-11.56zm0 26.85l-17.452-9.41-3.985 2.15 21.437 11.55 21.436-11.55-3.985-2.15zm0 8.02l-17.452-9.41-3.985 2.15 21.437 11.56 21.436-11.56-3.985-2.15z" transform="translate(-790.406 -1113.09)" fill-rule="evenodd" filter="url(#a)"/><path d="M21.053 22.946c-.058-.094-.566-.395-1.13-.67a52.315 52.315 0 0 1-2.023-1.05 216.31 216.31 0 0 0-2.158-1.176c-1.184-.635-2.355-1.267-4.36-2.351a444.35 444.35 0 0 0-2.034-1.092 494.491 494.491 0 0 1-6.393-3.453 39.734 39.734 0 0 0-1.951-1.008c-.434-.202-.789-.46-.789-.572 0-.113.43-.407.955-.654a40.728 40.728 0 0 0 2.117-1.1c.64-.357 1.574-.868 2.076-1.133a411.37 411.37 0 0 0 1.993-1.063c.593-.32 1.583-.851 2.199-1.182a2239.185 2239.185 0 0 0 6.436-3.468c.502-.27 1.409-.763 2.015-1.094.606-.33 1.623-.872 2.26-1.204l1.158-.602.895.464c1.687.873 2.889 1.512 4.05 2.152.64.353 1.611.876 2.16 1.163.547.286 1.519.807 2.158 1.158.64.35 1.61.87 2.159 1.156.548.286 1.52.81 2.159 1.163.639.353 1.552.831 2.029 1.062.476.23.962.506 1.079.613.117.106.624.403 1.126.66 1.775.91 2.91 1.507 3.299 1.732.384.222.365.241-.83.84-.673.339-1.747.902-2.386 1.253-.64.35-1.573.836-2.076 1.08-.502.242-.953.505-1.002.584-.048.079-.497.34-.996.58-.5.241-1.43.728-2.07 1.081-.64.354-1.61.877-2.159 1.163-.548.286-1.52.806-2.159 1.156-.639.35-1.61.872-2.158 1.158-.548.287-1.52.81-2.16 1.163-1.123.62-3.208 1.66-3.326 1.66-.032 0-.105-.076-.163-.17z" fill="none"/><path d="M21.053 22.946c-.058-.094-.566-.395-1.13-.67a52.315 52.315 0 0 1-2.023-1.05 216.31 216.31 0 0 0-2.158-1.176c-1.184-.635-2.355-1.267-4.36-2.351a444.35 444.35 0 0 0-2.034-1.092 494.491 494.491 0 0 1-6.393-3.453 39.734 39.734 0 0 0-1.951-1.008c-.434-.202-.789-.46-.789-.572 0-.113.43-.407.955-.654a40.728 40.728 0 0 0 2.117-1.1c.64-.357 1.574-.868 2.076-1.133a411.37 411.37 0 0 0 1.993-1.063c.593-.32 1.583-.851 2.199-1.182a2239.185 2239.185 0 0 0 6.436-3.468c.502-.27 1.409-.763 2.015-1.094.606-.33 1.623-.872 2.26-1.204l1.158-.602.895.464c1.687.873 2.889 1.512 4.05 2.152.64.353 1.611.876 2.16 1.163.547.286 1.519.807 2.158 1.158.64.35 1.61.87 2.159 1.156.548.286 1.52.81 2.159 1.163.639.353 1.552.831 2.029 1.062.476.23.962.506 1.079.613.117.106.624.403 1.126.66 1.775.91 2.91 1.507 3.299 1.732.384.222.365.241-.83.84-.673.339-1.747.902-2.386 1.253-.64.35-1.573.836-2.076 1.08-.502.242-.953.505-1.002.584-.048.079-.497.34-.996.58-.5.241-1.43.728-2.07 1.081-.64.354-1.61.877-2.159 1.163-.548.286-1.52.806-2.159 1.156-.639.35-1.61.872-2.158 1.158-.548.287-1.52.81-2.16 1.163-1.123.62-3.208 1.66-3.326 1.66-.032 0-.105-.076-.163-.17z" fill="none"/><path d="M21.053 22.946c-.058-.094-.566-.395-1.13-.67a52.315 52.315 0 0 1-2.023-1.05 216.31 216.31 0 0 0-2.158-1.176c-1.184-.635-2.355-1.267-4.36-2.351a444.35 444.35 0 0 0-2.034-1.092 494.491 494.491 0 0 1-6.393-3.453 39.734 39.734 0 0 0-1.951-1.008c-.434-.202-.789-.46-.789-.572 0-.113.43-.407.955-.654a40.728 40.728 0 0 0 2.117-1.1c.64-.357 1.574-.868 2.076-1.133a411.37 411.37 0 0 0 1.993-1.063c.593-.32 1.583-.851 2.199-1.182a2239.185 2239.185 0 0 0 6.436-3.468c.502-.27 1.409-.763 2.015-1.094.606-.33 1.623-.872 2.26-1.204l1.158-.602.895.464c1.687.873 2.889 1.512 4.05 2.152.64.353 1.611.876 2.16 1.163.547.286 1.519.807 2.158 1.158.64.35 1.61.87 2.159 1.156.548.286 1.52.81 2.159 1.163.639.353 1.552.831 2.029 1.062.476.23.962.506 1.079.613.117.106.624.403 1.126.66 1.775.91 2.91 1.507 3.299 1.732.384.222.365.241-.83.84-.673.339-1.747.902-2.386 1.253-.64.35-1.573.836-2.076 1.08-.502.242-.953.505-1.002.584-.048.079-.497.34-.996.58-.5.241-1.43.728-2.07 1.081-.64.354-1.61.877-2.159 1.163-.548.286-1.52.806-2.159 1.156-.639.35-1.61.872-2.158 1.158-.548.287-1.52.81-2.16 1.163-1.123.62-3.208 1.66-3.326 1.66-.032 0-.105-.076-.163-.17z" fill="none"/><path d="M21.053 22.946c-.058-.094-.566-.395-1.13-.67a52.315 52.315 0 0 1-2.023-1.05 216.31 216.31 0 0 0-2.158-1.176c-1.184-.635-2.355-1.267-4.36-2.351a444.35 444.35 0 0 0-2.034-1.092 494.491 494.491 0 0 1-6.393-3.453 39.734 39.734 0 0 0-1.951-1.008c-.434-.202-.789-.46-.789-.572 0-.113.43-.407.955-.654a40.728 40.728 0 0 0 2.117-1.1c.64-.357 1.574-.868 2.076-1.133a411.37 411.37 0 0 0 1.993-1.063c.593-.32 1.583-.851 2.199-1.182a2239.185 2239.185 0 0 0 6.436-3.468c.502-.27 1.409-.763 2.015-1.094.606-.33 1.623-.872 2.26-1.204l1.158-.602.895.464c1.687.873 2.889 1.512 4.05 2.152.64.353 1.611.876 2.16 1.163.547.286 1.519.807 2.158 1.158.64.35 1.61.87 2.159 1.156.548.286 1.52.81 2.159 1.163.639.353 1.552.831 2.029 1.062.476.23.962.506 1.079.613.117.106.624.403 1.126.66 1.775.91 2.91 1.507 3.299 1.732.384.222.365.241-.83.84-.673.339-1.747.902-2.386 1.253-.64.35-1.573.836-2.076 1.08-.502.242-.953.505-1.002.584-.048.079-.497.34-.996.58-.5.241-1.43.728-2.07 1.081-.64.354-1.61.877-2.159 1.163-.548.286-1.52.806-2.159 1.156-.639.35-1.61.872-2.158 1.158-.548.287-1.52.81-2.16 1.163-1.123.62-3.208 1.66-3.326 1.66-.032 0-.105-.076-.163-.17z" fill="none"/><path d="M21.053 22.946c-.058-.094-.566-.395-1.13-.67a52.315 52.315 0 0 1-2.023-1.05 216.31 216.31 0 0 0-2.158-1.176c-1.184-.635-2.355-1.267-4.36-2.351a444.35 444.35 0 0 0-2.034-1.092 494.491 494.491 0 0 1-6.393-3.453 39.734 39.734 0 0 0-1.951-1.008c-.434-.202-.789-.46-.789-.572 0-.113.43-.407.955-.654a40.728 40.728 0 0 0 2.117-1.1c.64-.357 1.574-.868 2.076-1.133a411.37 411.37 0 0 0 1.993-1.063c.593-.32 1.583-.851 2.199-1.182a2239.185 2239.185 0 0 0 6.436-3.468c.502-.27 1.409-.763 2.015-1.094.606-.33 1.623-.872 2.26-1.204l1.158-.602.895.464c1.687.873 2.889 1.512 4.05 2.152.64.353 1.611.876 2.16 1.163.547.286 1.519.807 2.158 1.158.64.35 1.61.87 2.159 1.156.548.286 1.52.81 2.159 1.163.639.353 1.552.831 2.029 1.062.476.23.962.506 1.079.613.117.106.624.403 1.126.66 1.775.91 2.91 1.507 3.299 1.732.384.222.365.241-.83.84-.673.339-1.747.902-2.386 1.253-.64.35-1.573.836-2.076 1.08-.502.242-.953.505-1.002.584-.048.079-.497.34-.996.58-.5.241-1.43.728-2.07 1.081-.64.354-1.61.877-2.159 1.163-.548.286-1.52.806-2.159 1.156-.639.35-1.61.872-2.158 1.158-.548.287-1.52.81-2.16 1.163-1.123.62-3.208 1.66-3.326 1.66-.032 0-.105-.076-.163-.17z" fill="none"/><path d="M21.053 22.946c-.058-.094-.566-.395-1.13-.67a52.315 52.315 0 0 1-2.023-1.05 216.31 216.31 0 0 0-2.158-1.176c-1.184-.635-2.355-1.267-4.36-2.351a444.35 444.35 0 0 0-2.034-1.092 494.491 494.491 0 0 1-6.393-3.453 39.734 39.734 0 0 0-1.951-1.008c-.434-.202-.789-.46-.789-.572 0-.113.43-.407.955-.654a40.728 40.728 0 0 0 2.117-1.1c.64-.357 1.574-.868 2.076-1.133a411.37 411.37 0 0 0 1.993-1.063c.593-.32 1.583-.851 2.199-1.182a2239.185 2239.185 0 0 0 6.436-3.468c.502-.27 1.409-.763 2.015-1.094.606-.33 1.623-.872 2.26-1.204l1.158-.602.895.464c1.687.873 2.889 1.512 4.05 2.152.64.353 1.611.876 2.16 1.163.547.286 1.519.807 2.158 1.158.64.35 1.61.87 2.159 1.156.548.286 1.52.81 2.159 1.163.639.353 1.552.831 2.029 1.062.476.23.962.506 1.079.613.117.106.624.403 1.126.66 1.775.91 2.91 1.507 3.299 1.732.384.222.365.241-.83.84-.673.339-1.747.902-2.386 1.253-.64.35-1.573.836-2.076 1.08-.502.242-.953.505-1.002.584-.048.079-.497.34-.996.58-.5.241-1.43.728-2.07 1.081-.64.354-1.61.877-2.159 1.163-.548.286-1.52.806-2.159 1.156-.639.35-1.61.872-2.158 1.158-.548.287-1.52.81-2.16 1.163-1.123.62-3.208 1.66-3.326 1.66-.032 0-.105-.076-.163-.17z" fill="none"/><path d="M21.053 22.946c-.058-.094-.566-.395-1.13-.67a52.315 52.315 0 0 1-2.023-1.05 216.31 216.31 0 0 0-2.158-1.176c-1.184-.635-2.355-1.267-4.36-2.351a444.35 444.35 0 0 0-2.034-1.092 494.491 494.491 0 0 1-6.393-3.453 39.734 39.734 0 0 0-1.951-1.008c-.434-.202-.789-.46-.789-.572 0-.113.43-.407.955-.654a40.728 40.728 0 0 0 2.117-1.1c.64-.357 1.574-.868 2.076-1.133a411.37 411.37 0 0 0 1.993-1.063c.593-.32 1.583-.851 2.199-1.182a2239.185 2239.185 0 0 0 6.436-3.468c.502-.27 1.409-.763 2.015-1.094.606-.33 1.623-.872 2.26-1.204l1.158-.602.895.464c1.687.873 2.889 1.512 4.05 2.152.64.353 1.611.876 2.16 1.163.547.286 1.519.807 2.158 1.158.64.35 1.61.87 2.159 1.156.548.286 1.52.81 2.159 1.163.639.353 1.552.831 2.029 1.062.476.23.962.506 1.079.613.117.106.624.403 1.126.66 1.775.91 2.91 1.507 3.299 1.732.384.222.365.241-.83.84-.673.339-1.747.902-2.386 1.253-.64.35-1.573.836-2.076 1.08-.502.242-.953.505-1.002.584-.048.079-.497.34-.996.58-.5.241-1.43.728-2.07 1.081-.64.354-1.61.877-2.159 1.163-.548.286-1.52.806-2.159 1.156-.639.35-1.61.872-2.158 1.158-.548.287-1.52.81-2.16 1.163-1.123.62-3.208 1.66-3.326 1.66-.032 0-.105-.076-.163-.17z" fill="none"/><path d="M21.053 22.946c-.058-.094-.566-.395-1.13-.67a52.315 52.315 0 0 1-2.023-1.05 216.31 216.31 0 0 0-2.158-1.176c-1.184-.635-2.355-1.267-4.36-2.351a444.35 444.35 0 0 0-2.034-1.092 494.491 494.491 0 0 1-6.393-3.453 39.734 39.734 0 0 0-1.951-1.008c-.434-.202-.789-.46-.789-.572 0-.113.43-.407.955-.654a40.728 40.728 0 0 0 2.117-1.1c.64-.357 1.574-.868 2.076-1.133a411.37 411.37 0 0 0 1.993-1.063c.593-.32 1.583-.851 2.199-1.182a2239.185 2239.185 0 0 0 6.436-3.468c.502-.27 1.409-.763 2.015-1.094.606-.33 1.623-.872 2.26-1.204l1.158-.602.895.464c1.687.873 2.889 1.512 4.05 2.152.64.353 1.611.876 2.16 1.163.547.286 1.519.807 2.158 1.158.64.35 1.61.87 2.159 1.156.548.286 1.52.81 2.159 1.163.639.353 1.552.831 2.029 1.062.476.23.962.506 1.079.613.117.106.624.403 1.126.66 1.775.91 2.91 1.507 3.299 1.732.384.222.365.241-.83.84-.673.339-1.747.902-2.386 1.253-.64.35-1.573.836-2.076 1.08-.502.242-.953.505-1.002.584-.048.079-.497.34-.996.58-.5.241-1.43.728-2.07 1.081-.64.354-1.61.877-2.159 1.163-.548.286-1.52.806-2.159 1.156-.639.35-1.61.872-2.158 1.158-.548.287-1.52.81-2.16 1.163-1.123.62-3.208 1.66-3.326 1.66-.032 0-.105-.076-.163-.17z" fill="none"/><path d="M21.053 22.946c-.058-.094-.566-.395-1.13-.67a52.315 52.315 0 0 1-2.023-1.05 216.31 216.31 0 0 0-2.158-1.176c-1.184-.635-2.355-1.267-4.36-2.351a444.35 444.35 0 0 0-2.034-1.092 494.491 494.491 0 0 1-6.393-3.453 39.734 39.734 0 0 0-1.951-1.008c-.434-.202-.789-.46-.789-.572 0-.113.43-.407.955-.654a40.728 40.728 0 0 0 2.117-1.1c.64-.357 1.574-.868 2.076-1.133a411.37 411.37 0 0 0 1.993-1.063c.593-.32 1.583-.851 2.199-1.182a2239.185 2239.185 0 0 0 6.436-3.468c.502-.27 1.409-.763 2.015-1.094.606-.33 1.623-.872 2.26-1.204l1.158-.602.895.464c1.687.873 2.889 1.512 4.05 2.152.64.353 1.611.876 2.16 1.163.547.286 1.519.807 2.158 1.158.64.35 1.61.87 2.159 1.156.548.286 1.52.81 2.159 1.163.639.353 1.552.831 2.029 1.062.476.23.962.506 1.079.613.117.106.624.403 1.126.66 1.775.91 2.91 1.507 3.299 1.732.384.222.365.241-.83.84-.673.339-1.747.902-2.386 1.253-.64.35-1.573.836-2.076 1.08-.502.242-.953.505-1.002.584-.048.079-.497.34-.996.58-.5.241-1.43.728-2.07 1.081-.64.354-1.61.877-2.159 1.163-.548.286-1.52.806-2.159 1.156-.639.35-1.61.872-2.158 1.158-.548.287-1.52.81-2.16 1.163-1.123.62-3.208 1.66-3.326 1.66-.032 0-.105-.076-.163-.17z" fill="none"/><path d="M21.053 22.946c-.058-.094-.566-.395-1.13-.67a52.315 52.315 0 0 1-2.023-1.05 216.31 216.31 0 0 0-2.158-1.176c-1.184-.635-2.355-1.267-4.36-2.351a444.35 444.35 0 0 0-2.034-1.092 494.491 494.491 0 0 1-6.393-3.453 39.734 39.734 0 0 0-1.951-1.008c-.434-.202-.789-.46-.789-.572 0-.113.43-.407.955-.654a40.728 40.728 0 0 0 2.117-1.1c.64-.357 1.574-.868 2.076-1.133a411.37 411.37 0 0 0 1.993-1.063c.593-.32 1.583-.851 2.199-1.182a2239.185 2239.185 0 0 0 6.436-3.468c.502-.27 1.409-.763 2.015-1.094.606-.33 1.623-.872 2.26-1.204l1.158-.602.895.464c1.687.873 2.889 1.512 4.05 2.152.64.353 1.611.876 2.16 1.163.547.286 1.519.807 2.158 1.158.64.35 1.61.87 2.159 1.156.548.286 1.52.81 2.159 1.163.639.353 1.552.831 2.029 1.062.476.23.962.506 1.079.613.117.106.624.403 1.126.66 1.775.91 2.91 1.507 3.299 1.732.384.222.365.241-.83.84-.673.339-1.747.902-2.386 1.253-.64.35-1.573.836-2.076 1.08-.502.242-.953.505-1.002.584-.048.079-.497.34-.996.58-.5.241-1.43.728-2.07 1.081-.64.354-1.61.877-2.159 1.163-.548.286-1.52.806-2.159 1.156-.639.35-1.61.872-2.158 1.158-.548.287-1.52.81-2.16 1.163-1.123.62-3.208 1.66-3.326 1.66-.032 0-.105-.076-.163-.17z" fill="none"/><path d="M21.053 22.946c-.058-.094-.566-.395-1.13-.67a52.315 52.315 0 0 1-2.023-1.05 216.31 216.31 0 0 0-2.158-1.176c-1.184-.635-2.355-1.267-4.36-2.351a444.35 444.35 0 0 0-2.034-1.092 494.491 494.491 0 0 1-6.393-3.453 39.734 39.734 0 0 0-1.951-1.008c-.434-.202-.789-.46-.789-.572 0-.113.43-.407.955-.654a40.728 40.728 0 0 0 2.117-1.1c.64-.357 1.574-.868 2.076-1.133a411.37 411.37 0 0 0 1.993-1.063c.593-.32 1.583-.851 2.199-1.182a2239.185 2239.185 0 0 0 6.436-3.468c.502-.27 1.409-.763 2.015-1.094.606-.33 1.623-.872 2.26-1.204l1.158-.602.895.464c1.687.873 2.889 1.512 4.05 2.152.64.353 1.611.876 2.16 1.163.547.286 1.519.807 2.158 1.158.64.35 1.61.87 2.159 1.156.548.286 1.52.81 2.159 1.163.639.353 1.552.831 2.029 1.062.476.23.962.506 1.079.613.117.106.624.403 1.126.66 1.775.91 2.91 1.507 3.299 1.732.384.222.365.241-.83.84-.673.339-1.747.902-2.386 1.253-.64.35-1.573.836-2.076 1.08-.502.242-.953.505-1.002.584-.048.079-.497.34-.996.58-.5.241-1.43.728-2.07 1.081-.64.354-1.61.877-2.159 1.163-.548.286-1.52.806-2.159 1.156-.639.35-1.61.872-2.158 1.158-.548.287-1.52.81-2.16 1.163-1.123.62-3.208 1.66-3.326 1.66-.032 0-.105-.076-.163-.17z" fill="none"/><path d="M21.053 22.946c-.058-.094-.566-.395-1.13-.67a52.315 52.315 0 0 1-2.023-1.05 216.31 216.31 0 0 0-2.158-1.176c-1.184-.635-2.355-1.267-4.36-2.351a444.35 444.35 0 0 0-2.034-1.092 494.491 494.491 0 0 1-6.393-3.453 39.734 39.734 0 0 0-1.951-1.008c-.434-.202-.789-.46-.789-.572 0-.113.43-.407.955-.654a40.728 40.728 0 0 0 2.117-1.1c.64-.357 1.574-.868 2.076-1.133a411.37 411.37 0 0 0 1.993-1.063c.593-.32 1.583-.851 2.199-1.182a2239.185 2239.185 0 0 0 6.436-3.468c.502-.27 1.409-.763 2.015-1.094.606-.33 1.623-.872 2.26-1.204l1.158-.602.895.464c1.687.873 2.889 1.512 4.05 2.152.64.353 1.611.876 2.16 1.163.547.286 1.519.807 2.158 1.158.64.35 1.61.87 2.159 1.156.548.286 1.52.81 2.159 1.163.639.353 1.552.831 2.029 1.062.476.23.962.506 1.079.613.117.106.624.403 1.126.66 1.775.91 2.91 1.507 3.299 1.732.384.222.365.241-.83.84-.673.339-1.747.902-2.386 1.253-.64.35-1.573.836-2.076 1.08-.502.242-.953.505-1.002.584-.048.079-.497.34-.996.58-.5.241-1.43.728-2.07 1.081-.64.354-1.61.877-2.159 1.163-.548.286-1.52.806-2.159 1.156-.639.35-1.61.872-2.158 1.158-.548.287-1.52.81-2.16 1.163-1.123.62-3.208 1.66-3.326 1.66-.032 0-.105-.076-.163-.17z" fill="none"/><path d="M21.053 22.946c-.058-.094-.566-.395-1.13-.67a52.315 52.315 0 0 1-2.023-1.05 216.31 216.31 0 0 0-2.158-1.176c-1.184-.635-2.355-1.267-4.36-2.351a444.35 444.35 0 0 0-2.034-1.092 494.491 494.491 0 0 1-6.393-3.453 39.734 39.734 0 0 0-1.951-1.008c-.434-.202-.789-.46-.789-.572 0-.113.43-.407.955-.654a40.728 40.728 0 0 0 2.117-1.1c.64-.357 1.574-.868 2.076-1.133a411.37 411.37 0 0 0 1.993-1.063c.593-.32 1.583-.851 2.199-1.182a2239.185 2239.185 0 0 0 6.436-3.468c.502-.27 1.409-.763 2.015-1.094.606-.33 1.623-.872 2.26-1.204l1.158-.602.895.464c1.687.873 2.889 1.512 4.05 2.152.64.353 1.611.876 2.16 1.163.547.286 1.519.807 2.158 1.158.64.35 1.61.87 2.159 1.156.548.286 1.52.81 2.159 1.163.639.353 1.552.831 2.029 1.062.476.23.962.506 1.079.613.117.106.624.403 1.126.66 1.775.91 2.91 1.507 3.299 1.732.384.222.365.241-.83.84-.673.339-1.747.902-2.386 1.253-.64.35-1.573.836-2.076 1.08-.502.242-.953.505-1.002.584-.048.079-.497.34-.996.58-.5.241-1.43.728-2.07 1.081-.64.354-1.61.877-2.159 1.163-.548.286-1.52.806-2.159 1.156-.639.35-1.61.872-2.158 1.158-.548.287-1.52.81-2.16 1.163-1.123.62-3.208 1.66-3.326 1.66-.032 0-.105-.076-.163-.17z" fill="none"/><path d="M13.2 30.367l-8.022-4.346 3.206-.083c2.156-.055 3.125-.135 2.957-.243a26.873 26.873 0 0 0-1.245-.682 639.171 639.171 0 0 1-6.56-3.513 99.36 99.36 0 0 0-1.743-.921 25.85 25.85 0 0 1-1.22-.668l-.557-.33.722-.369a183.33 183.33 0 0 0 1.99-1.037l1.269-.67.72.323c.396.177.76.386.807.464.049.078.499.34 1.001.583a52.75 52.75 0 0 1 2.076 1.084c.64.353 1.61.877 2.159 1.164.548.286 1.52.81 2.159 1.162.639.353 1.61.874 2.158 1.159.548.284 1.52.805 2.16 1.156.639.352 1.61.875 2.158 1.163.548.287 1.255.667 1.572.844.515.287.61.295.913.075.186-.135.749-.46 1.251-.722a184.01 184.01 0 0 0 2.033-1.081l2.242-1.21c.617-.331 1.57-.851 2.119-1.154a112.96 112.96 0 0 1 1.992-1.073c.548-.286 1.52-.807 2.16-1.157 5.034-2.757 4.972-2.73 5.707-2.51.35.106.905.373 1.231.594.326.222.954.562 1.394.757l.8.355-.415.335c-.228.184-.863.562-1.411.838a82.41 82.41 0 0 0-2.16 1.145c-.638.352-1.61.875-2.158 1.162-.548.287-1.52.81-2.159 1.16-.639.352-1.61.873-2.158 1.157-.548.285-1.52.807-2.16 1.16-.639.354-1.623.87-2.187 1.147-.564.278-1.072.58-1.129.67-.067.11 1.002.183 3.06.212l3.162.045-5.773 3.114c-3.176 1.712-5.847 3.108-5.937 3.1-.09-.007-3.772-1.968-8.184-4.359zm8.27.72c-.136-.09-.323-.162-.414-.162-.092 0-.054.073.083.161.137.089.323.161.415.161.091 0 .054-.072-.083-.16zm2.256-1.122c-.076-.076-1.093.428-1.093.542 0 .042.26-.049.58-.2.318-.152.549-.306.513-.342zm-4.321.037c-.178-.134-.402-.242-.498-.238-.097.003.01.112.239.243.538.307.669.305.259-.005zm6.48-1.2c-.076-.075-1.093.429-1.093.542 0 .042.26-.048.579-.2.319-.152.55-.305.514-.342zm-8.639.037c-.177-.134-.401-.24-.498-.238-.097.003.01.113.24.244.537.307.668.304.258-.006zm-2.159-1.162c-.177-.134-.401-.241-.498-.238-.097.003.011.113.24.243.537.308.668.305.258-.005zm-2.159-1.163c-.177-.134-.401-.24-.498-.238-.096.004.011.113.24.244.537.307.668.304.258-.006z" fill="none"/><path d="M21.053 22.946c-.058-.094-.566-.395-1.13-.67a52.315 52.315 0 0 1-2.023-1.05 216.31 216.31 0 0 0-2.158-1.176c-1.184-.635-2.355-1.267-4.36-2.351a444.35 444.35 0 0 0-2.034-1.092 494.491 494.491 0 0 1-6.393-3.453 39.734 39.734 0 0 0-1.951-1.008c-.434-.202-.789-.46-.789-.572 0-.113.43-.407.955-.654a40.728 40.728 0 0 0 2.117-1.1c.64-.357 1.574-.868 2.076-1.133a411.37 411.37 0 0 0 1.993-1.063c.593-.32 1.583-.851 2.199-1.182a2239.185 2239.185 0 0 0 6.436-3.468c.502-.27 1.409-.763 2.015-1.094.606-.33 1.623-.872 2.26-1.204l1.158-.602.895.464c1.687.873 2.889 1.512 4.05 2.152.64.353 1.611.876 2.16 1.163.547.286 1.519.807 2.158 1.158.64.35 1.61.87 2.159 1.156.548.286 1.52.81 2.159 1.163.639.353 1.552.831 2.029 1.062.476.23.962.506 1.079.613.117.106.624.403 1.126.66 1.775.91 2.91 1.507 3.299 1.732.384.222.365.241-.83.84-.673.339-1.747.902-2.386 1.253-.64.35-1.573.836-2.076 1.08-.502.242-.953.505-1.002.584-.048.079-.497.34-.996.58-.5.241-1.43.728-2.07 1.081-.64.354-1.61.877-2.159 1.163-.548.286-1.52.806-2.159 1.156-.639.35-1.61.872-2.158 1.158-.548.287-1.52.81-2.16 1.163-1.123.62-3.208 1.66-3.326 1.66-.032 0-.105-.076-.163-.17z" fill="none"/><path d="M21.053 22.946c-.058-.094-.566-.395-1.13-.67a52.315 52.315 0 0 1-2.023-1.05 216.31 216.31 0 0 0-2.158-1.176c-1.184-.635-2.355-1.267-4.36-2.351a444.35 444.35 0 0 0-2.034-1.092 494.491 494.491 0 0 1-6.393-3.453 39.734 39.734 0 0 0-1.951-1.008c-.434-.202-.789-.46-.789-.572 0-.113.43-.407.955-.654a40.728 40.728 0 0 0 2.117-1.1c.64-.357 1.574-.868 2.076-1.133a411.37 411.37 0 0 0 1.993-1.063c.593-.32 1.583-.851 2.199-1.182a2239.185 2239.185 0 0 0 6.436-3.468c.502-.27 1.409-.763 2.015-1.094.606-.33 1.623-.872 2.26-1.204l1.158-.602.895.464c1.687.873 2.889 1.512 4.05 2.152.64.353 1.611.876 2.16 1.163.547.286 1.519.807 2.158 1.158.64.35 1.61.87 2.159 1.156.548.286 1.52.81 2.159 1.163.639.353 1.552.831 2.029 1.062.476.23.962.506 1.079.613.117.106.624.403 1.126.66 1.775.91 2.91 1.507 3.299 1.732.384.222.365.241-.83.84-.673.339-1.747.902-2.386 1.253-.64.35-1.573.836-2.076 1.08-.502.242-.953.505-1.002.584-.048.079-.497.34-.996.58-.5.241-1.43.728-2.07 1.081-.64.354-1.61.877-2.159 1.163-.548.286-1.52.806-2.159 1.156-.639.35-1.61.872-2.158 1.158-.548.287-1.52.81-2.16 1.163-1.123.62-3.208 1.66-3.326 1.66-.032 0-.105-.076-.163-.17z" fill="none"/><path d="M21.053 22.946c-.058-.094-.566-.395-1.13-.67a52.315 52.315 0 0 1-2.023-1.05 216.31 216.31 0 0 0-2.158-1.176c-1.184-.635-2.355-1.267-4.36-2.351a444.35 444.35 0 0 0-2.034-1.092 494.491 494.491 0 0 1-6.393-3.453 39.734 39.734 0 0 0-1.951-1.008c-.434-.202-.789-.46-.789-.572 0-.113.43-.407.955-.654a40.728 40.728 0 0 0 2.117-1.1c.64-.357 1.574-.868 2.076-1.133a411.37 411.37 0 0 0 1.993-1.063c.593-.32 1.583-.851 2.199-1.182a2239.185 2239.185 0 0 0 6.436-3.468c.502-.27 1.409-.763 2.015-1.094.606-.33 1.623-.872 2.26-1.204l1.158-.602.895.464c1.687.873 2.889 1.512 4.05 2.152.64.353 1.611.876 2.16 1.163.547.286 1.519.807 2.158 1.158.64.35 1.61.87 2.159 1.156.548.286 1.52.81 2.159 1.163.639.353 1.552.831 2.029 1.062.476.23.962.506 1.079.613.117.106.624.403 1.126.66 1.775.91 2.91 1.507 3.299 1.732.384.222.365.241-.83.84-.673.339-1.747.902-2.386 1.253-.64.35-1.573.836-2.076 1.08-.502.242-.953.505-1.002.584-.048.079-.497.34-.996.58-.5.241-1.43.728-2.07 1.081-.64.354-1.61.877-2.159 1.163-.548.286-1.52.806-2.159 1.156-.639.35-1.61.872-2.158 1.158-.548.287-1.52.81-2.16 1.163-1.123.62-3.208 1.66-3.326 1.66-.032 0-.105-.076-.163-.17z" fill="none"/><path d="M21.053 22.946c-.058-.094-.566-.395-1.13-.67a52.315 52.315 0 0 1-2.023-1.05 216.31 216.31 0 0 0-2.158-1.176c-1.184-.635-2.355-1.267-4.36-2.351a444.35 444.35 0 0 0-2.034-1.092 494.491 494.491 0 0 1-6.393-3.453 39.734 39.734 0 0 0-1.951-1.008c-.434-.202-.789-.46-.789-.572 0-.113.43-.407.955-.654a40.728 40.728 0 0 0 2.117-1.1c.64-.357 1.574-.868 2.076-1.133a411.37 411.37 0 0 0 1.993-1.063c.593-.32 1.583-.851 2.199-1.182a2239.185 2239.185 0 0 0 6.436-3.468c.502-.27 1.409-.763 2.015-1.094.606-.33 1.623-.872 2.26-1.204l1.158-.602.895.464c1.687.873 2.889 1.512 4.05 2.152.64.353 1.611.876 2.16 1.163.547.286 1.519.807 2.158 1.158.64.35 1.61.87 2.159 1.156.548.286 1.52.81 2.159 1.163.639.353 1.552.831 2.029 1.062.476.23.962.506 1.079.613.117.106.624.403 1.126.66 1.775.91 2.91 1.507 3.299 1.732.384.222.365.241-.83.84-.673.339-1.747.902-2.386 1.253-.64.35-1.573.836-2.076 1.08-.502.242-.953.505-1.002.584-.048.079-.497.34-.996.58-.5.241-1.43.728-2.07 1.081-.64.354-1.61.877-2.159 1.163-.548.286-1.52.806-2.159 1.156-.639.35-1.61.872-2.158 1.158-.548.287-1.52.81-2.16 1.163-1.123.62-3.208 1.66-3.326 1.66-.032 0-.105-.076-.163-.17z" fill="none"/><path d="M21.053 22.946c-.058-.094-.566-.395-1.13-.67a52.315 52.315 0 0 1-2.023-1.05 216.31 216.31 0 0 0-2.158-1.176c-1.184-.635-2.355-1.267-4.36-2.351a444.35 444.35 0 0 0-2.034-1.092 494.491 494.491 0 0 1-6.393-3.453 39.734 39.734 0 0 0-1.951-1.008c-.434-.202-.789-.46-.789-.572 0-.113.43-.407.955-.654a40.728 40.728 0 0 0 2.117-1.1c.64-.357 1.574-.868 2.076-1.133a411.37 411.37 0 0 0 1.993-1.063c.593-.32 1.583-.851 2.199-1.182a2239.185 2239.185 0 0 0 6.436-3.468c.502-.27 1.409-.763 2.015-1.094.606-.33 1.623-.872 2.26-1.204l1.158-.602.895.464c1.687.873 2.889 1.512 4.05 2.152.64.353 1.611.876 2.16 1.163.547.286 1.519.807 2.158 1.158.64.35 1.61.87 2.159 1.156.548.286 1.52.81 2.159 1.163.639.353 1.552.831 2.029 1.062.476.23.962.506 1.079.613.117.106.624.403 1.126.66 1.775.91 2.91 1.507 3.299 1.732.384.222.365.241-.83.84-.673.339-1.747.902-2.386 1.253-.64.35-1.573.836-2.076 1.08-.502.242-.953.505-1.002.584-.048.079-.497.34-.996.58-.5.241-1.43.728-2.07 1.081-.64.354-1.61.877-2.159 1.163-.548.286-1.52.806-2.159 1.156-.639.35-1.61.872-2.158 1.158-.548.287-1.52.81-2.16 1.163-1.123.62-3.208 1.66-3.326 1.66-.032 0-.105-.076-.163-.17z" fill="none"/></svg>