<svg xmlns="http://www.w3.org/2000/svg" width="42.875" height="39.19"><defs><filter id="a" x="790.406" y="1113.09" width="42.875" height="39.19" filterUnits="userSpaceOnUse"><feFlood result="flood" flood-color="#c7b299"/><feComposite result="composite" operator="in" in2="SourceGraphic"/><feBlend result="blend" in2="SourceGraphic"/></filter></defs><path d="M811.851 1113.11l-21.437 11.56 21.437 11.56 21.436-11.56zm0 26.85l-17.452-9.41-3.985 2.15 21.437 11.55 21.436-11.55-3.985-2.15zm0 8.02l-17.452-9.41-3.985 2.15 21.437 11.56 21.436-11.56-3.985-2.15z" transform="translate(-790.406 -1113.09)" fill-rule="evenodd" filter="url(#a)"/><path d="M21.053 22.946c-.058-.094-.566-.395-1.13-.67a52.315 52.315 0 0 1-2.023-1.05 216.31 216.31 0 0 0-2.158-1.176c-1.184-.635-2.355-1.267-4.36-2.351a444.35 444.35 0 0 0-2.034-1.092 494.491 494.491 0 0 1-6.393-3.453 39.734 39.734 0 0 0-1.951-1.008c-.434-.202-.789-.46-.789-.572 0-.113.43-.407.955-.654a40.728 40.728 0 0 0 2.117-1.1c.64-.357 1.574-.868 2.076-1.133a411.37 411.37 0 0 0 1.993-1.063c.593-.32 1.583-.851 2.199-1.182a2239.185 2239.185 0 0 0 6.436-3.468c.502-.27 1.409-.763 2.015-1.094.606-.33 1.623-.872 2.26-1.204l1.158-.602.895.464c1.687.873 2.889 1.512 4.05 2.152.64.353 1.611.876 2.16 1.163.547.286 1.519.807 2.158 1.158.64.35 1.61.87 2.159 1.156.548.286 1.52.81 2.159 1.163.639.353 1.552.831 2.029 1.062.476.23.962.506 1.079.613.117.106.624.403 1.126.66 1.775.91 2.91 1.507 3.299 1.732.384.222.365.241-.83.84-.673.339-1.747.902-2.386 1.253-.64.35-1.573.836-2.076 1.08-.502.242-.953.505-1.002.584-.048.079-.497.34-.996.58-.5.241-1.43.728-2.07 1.081-.64.354-1.61.877-2.159 1.163-.548.286-1.52.806-2.159 1.156-.639.35-1.61.872-2.158 1.158-.548.287-1.52.81-2.16 1.163-1.123.62-3.208 1.66-3.326 1.66-.032 0-.105-.076-.163-.17z" fill="none"/><path d="M21.053 22.946c-.058-.094-.566-.395-1.13-.67a52.315 52.315 0 0 1-2.023-1.05 216.31 216.31 0 0 0-2.158-1.176c-1.184-.635-2.355-1.267-4.36-2.351a444.35 444.35 0 0 0-2.034-1.092 494.491 494.491 0 0 1-6.393-3.453 39.734 39.734 0 0 0-1.951-1.008c-.434-.202-.789-.46-.789-.572 0-.113.43-.407.955-.654a40.728 40.728 0 0 0 2.117-1.1c.64-.357 1.574-.868 2.076-1.133a411.37 411.37 0 0 0 1.993-1.063c.593-.32 1.583-.851 2.199-1.182a2239.185 2239.185 0 0 0 6.436-3.468c.502-.27 1.409-.763 2.015-1.094.606-.33 1.623-.872 2.26-1.204l1.158-.602.895.464c1.687.873 2.889 1.512 4.05 2.152.64.353 1.611.876 2.16 1.163.547.286 1.519.807 2.158 1.158.64.35 1.61.87 2.159 1.156.548.286 1.52.81 2.159 1.163.639.353 1.552.831 2.029 1.062.476.23.962.506 1.079.613.117.106.624.403 1.126.66 1.775.91 2.91 1.507 3.299 1.732.384.222.365.241-.83.84-.673.339-1.747.902-2.386 1.253-.64.35-1.573.836-2.076 1.08-.502.242-.953.505-1.002.584-.048.079-.497.34-.996.58-.5.241-1.43.728-2.07 1.081-.64.354-1.61.877-2.159 1.163-.548.286-1.52.806-2.159 1.156-.639.35-1.61.872-2.158 1.158-.548.287-1.52.81-2.16 1.163-1.123.62-3.208 1.66-3.326 1.66-.032 0-.105-.076-.163-.17z" fill="none"/><path d="M21.053 22.946c-.058-.094-.566-.395-1.13-.67a52.315 52.315 0 0 1-2.023-1.05 216.31 216.31 0 0 0-2.158-1.176c-1.184-.635-2.355-1.267-4.36-2.351a444.35 444.35 0 0 0-2.034-1.092 494.491 494.491 0 0 1-6.393-3.453 39.734 39.734 0 0 0-1.951-1.008c-.434-.202-.789-.46-.789-.572 0-.113.43-.407.955-.654a40.728 40.728 0 0 0 2.117-1.1c.64-.357 1.574-.868 2.076-1.133a411.37 411.37 0 0 0 1.993-1.063c.593-.32 1.583-.851 2.199-1.182a2239.185 2239.185 0 0 0 6.436-3.468c.502-.27 1.409-.763 2.015-1.094.606-.33 1.623-.872 2.26-1.204l1.158-.602.895.464c1.687.873 2.889 1.512 4.05 2.152.64.353 1.611.876 2.16 1.163.547.286 1.519.807 2.158 1.158.64.35 1.61.87 2.159 1.156.548.286 1.52.81 2.159 1.163.639.353 1.552.831 2.029 1.062.476.23.962.506 1.079.613.117.106.624.403 1.126.66 1.775.91 2.91 1.507 3.299 1.732.384.222.365.241-.83.84-.673.339-1.747.902-2.386 1.253-.64.35-1.573.836-2.076 1.08-.502.242-.953.505-1.002.584-.048.079-.497.34-.996.58-.5.241-1.43.728-2.07 1.081-.64.354-1.61.877-2.159 1.163-.548.286-1.52.806-2.159 1.156-.639.35-1.61.872-2.158 1.158-.548.287-1.52.81-2.16 1.163-1.123.62-3.208 1.66-3.326 1.66-.032 0-.105-.076-.163-.17z" fill="none"/><path d="M21.053 22.946c-.058-.094-.566-.395-1.13-.67a52.315 52.315 0 0 1-2.023-1.05 216.31 216.31 0 0 0-2.158-1.176c-1.184-.635-2.355-1.267-4.36-2.351a444.35 444.35 0 0 0-2.034-1.092 494.491 494.491 0 0 1-6.393-3.453 39.734 39.734 0 0 0-1.951-1.008c-.434-.202-.789-.46-.789-.572 0-.113.43-.407.955-.654a40.728 40.728 0 0 0 2.117-1.1c.64-.357 1.574-.868 2.076-1.133a411.37 411.37 0 0 0 1.993-1.063c.593-.32 1.583-.851 2.199-1.182a2239.185 2239.185 0 0 0 6.436-3.468c.502-.27 1.409-.763 2.015-1.094.606-.33 1.623-.872 2.26-1.204l1.158-.602.895.464c1.687.873 2.889 1.512 4.05 2.152.64.353 1.611.876 2.16 1.163.547.286 1.519.807 2.158 1.158.64.35 1.61.87 2.159 1.156.548.286 1.52.81 2.159 1.163.639.353 1.552.831 2.029 1.062.476.23.962.506 1.079.613.117.106.624.403 1.126.66 1.775.91 2.91 1.507 3.299 1.732.384.222.365.241-.83.84-.673.339-1.747.902-2.386 1.253-.64.35-1.573.836-2.076 1.08-.502.242-.953.505-1.002.584-.048.079-.497.34-.996.58-.5.241-1.43.728-2.07 1.081-.64.354-1.61.877-2.159 1.163-.548.286-1.52.806-2.159 1.156-.639.35-1.61.872-2.158 1.158-.548.287-1.52.81-2.16 1.163-1.123.62-3.208 1.66-3.326 1.66-.032 0-.105-.076-.163-.17z" fill="none"/><path d="M21.053 22.946c-.058-.094-.566-.395-1.13-.67a52.315 52.315 0 0 1-2.023-1.05 216.31 216.31 0 0 0-2.158-1.176c-1.184-.635-2.355-1.267-4.36-2.351a444.35 444.35 0 0 0-2.034-1.092 494.491 494.491 0 0 1-6.393-3.453 39.734 39.734 0 0 0-1.951-1.008c-.434-.202-.789-.46-.789-.572 0-.113.43-.407.955-.654a40.728 40.728 0 0 0 2.117-1.1c.64-.357 1.574-.868 2.076-1.133a411.37 411.37 0 0 0 1.993-1.063c.593-.32 1.583-.851 2.199-1.182a2239.185 2239.185 0 0 0 6.436-3.468c.502-.27 1.409-.763 2.015-1.094.606-.33 1.623-.872 2.26-1.204l1.158-.602.895.464c1.687.873 2.889 1.512 4.05 2.152.64.353 1.611.876 2.16 1.163.547.286 1.519.807 2.158 1.158.64.35 1.61.87 2.159 1.156.548.286 1.52.81 2.159 1.163.639.353 1.552.831 2.029 1.062.476.23.962.506 1.079.613.117.106.624.403 1.126.66 1.775.91 2.91 1.507 3.299 1.732.384.222.365.241-.83.84-.673.339-1.747.902-2.386 1.253-.64.35-1.573.836-2.076 1.08-.502.242-.953.505-1.002.584-.048.079-.497.34-.996.58-.5.241-1.43.728-2.07 1.081-.64.354-1.61.877-2.159 1.163-.548.286-1.52.806-2.159 1.156-.639.35-1.61.872-2.158 1.158-.548.287-1.52.81-2.16 1.163-1.123.62-3.208 1.66-3.326 1.66-.032 0-.105-.076-.163-.17z" fill="none"/><path d="M21.053 22.946c-.058-.094-.566-.395-1.13-.67a52.315 52.315 0 0 1-2.023-1.05 216.31 216.31 0 0 0-2.158-1.176c-1.184-.635-2.355-1.267-4.36-2.351a444.35 444.35 0 0 0-2.034-1.092 494.491 494.491 0 0 1-6.393-3.453 39.734 39.734 0 0 0-1.951-1.008c-.434-.202-.789-.46-.789-.572 0-.113.43-.407.955-.654a40.728 40.728 0 0 0 2.117-1.1c.64-.357 1.574-.868 2.076-1.133a411.37 411.37 0 0 0 1.993-1.063c.593-.32 1.583-.851 2.199-1.182a2239.185 2239.185 0 0 0 6.436-3.468c.502-.27 1.409-.763 2.015-1.094.606-.33 1.623-.872 2.26-1.204l1.158-.602.895.464c1.687.873 2.889 1.512 4.05 2.152.64.353 1.611.876 2.16 1.163.547.286 1.519.807 2.158 1.158.64.35 1.61.87 2.159 1.156.548.286 1.52.81 2.159 1.163.639.353 1.552.831 2.029 1.062.476.23.962.506 1.079.613.117.106.624.403 1.126.66 1.775.91 2.91 1.507 3.299 1.732.384.222.365.241-.83.84-.673.339-1.747.902-2.386 1.253-.64.35-1.573.836-2.076 1.08-.502.242-.953.505-1.002.584-.048.079-.497.34-.996.58-.5.241-1.43.728-2.07 1.081-.64.354-1.61.877-2.159 1.163-.548.286-1.52.806-2.159 1.156-.639.35-1.61.872-2.158 1.158-.548.287-1.52.81-2.16 1.163-1.123.62-3.208 1.66-3.326 1.66-.032 0-.105-.076-.163-.17z" fill="none"/><path d="M21.053 22.946c-.058-.094-.566-.395-1.13-.67a52.315 52.315 0 0 1-2.023-1.05 216.31 216.31 0 0 0-2.158-1.176c-1.184-.635-2.355-1.267-4.36-2.351a444.35 444.35 0 0 0-2.034-1.092 494.491 494.491 0 0 1-6.393-3.453 39.734 39.734 0 0 0-1.951-1.008c-.434-.202-.789-.46-.789-.572 0-.113.43-.407.955-.654a40.728 40.728 0 0 0 2.117-1.1c.64-.357 1.574-.868 2.076-1.133a411.37 411.37 0 0 0 1.993-1.063c.593-.32 1.583-.851 2.199-1.182a2239.185 2239.185 0 0 0 6.436-3.468c.502-.27 1.409-.763 2.015-1.094.606-.33 1.623-.872 2.26-1.204l1.158-.602.895.464c1.687.873 2.889 1.512 4.05 2.152.64.353 1.611.876 2.16 1.163.547.286 1.519.807 2.158 1.158.64.35 1.61.87 2.159 1.156.548.286 1.52.81 2.159 1.163.639.353 1.552.831 2.029 1.062.476.23.962.506 1.079.613.117.106.624.403 1.126.66 1.775.91 2.91 1.507 3.299 1.732.384.222.365.241-.83.84-.673.339-1.747.902-2.386 1.253-.64.35-1.573.836-2.076 1.08-.502.242-.953.505-1.002.584-.048.079-.497.34-.996.58-.5.241-1.43.728-2.07 1.081-.64.354-1.61.877-2.159 1.163-.548.286-1.52.806-2.159 1.156-.639.35-1.61.872-2.158 1.158-.548.287-1.52.81-2.16 1.163-1.123.62-3.208 1.66-3.326 1.66-.032 0-.105-.076-.163-.17z" fill="none"/><path d="M21.053 22.946c-.058-.094-.566-.395-1.13-.67a52.315 52.315 0 0 1-2.023-1.05 216.31 216.31 0 0 0-2.158-1.176c-1.184-.635-2.355-1.267-4.36-2.351a444.35 444.35 0 0 0-2.034-1.092 494.491 494.491 0 0 1-6.393-3.453 39.734 39.734 0 0 0-1.951-1.008c-.434-.202-.789-.46-.789-.572 0-.113.43-.407.955-.654a40.728 40.728 0 0 0 2.117-1.1c.64-.357 1.574-.868 2.076-1.133a411.37 411.37 0 0 0 1.993-1.063c.593-.32 1.583-.851 2.199-1.182a2239.185 2239.185 0 0 0 6.436-3.468c.502-.27 1.409-.763 2.015-1.094.606-.33 1.623-.872 2.26-1.204l1.158-.602.895.464c1.687.873 2.889 1.512 4.05 2.152.64.353 1.611.876 2.16 1.163.547.286 1.519.807 2.158 1.158.64.35 1.61.87 2.159 1.156.548.286 1.52.81 2.159 1.163.639.353 1.552.831 2.029 1.062.476.23.962.506 1.079.613.117.106.624.403 1.126.66 1.775.91 2.91 1.507 3.299 1.732.384.222.365.241-.83.84-.673.339-1.747.902-2.386 1.253-.64.35-1.573.836-2.076 1.08-.502.242-.953.505-1.002.584-.048.079-.497.34-.996.58-.5.241-1.43.728-2.07 1.081-.64.354-1.61.877-2.159 1.163-.548.286-1.52.806-2.159 1.156-.639.35-1.61.872-2.158 1.158-.548.287-1.52.81-2.16 1.163-1.123.62-3.208 1.66-3.326 1.66-.032 0-.105-.076-.163-.17z" fill="none"/></svg>