<svg xmlns="http://www.w3.org/2000/svg" width="24" height="24"><defs><filter id="a" x="1522" y="55" width="24" height="24" filterUnits="userSpaceOnUse"><feFlood result="flood" flood-color="#fff"/><feComposite result="composite" operator="in" in2="SourceGraphic"/><feBlend result="blend" in2="SourceGraphic"/></filter></defs><path d="M1545.76 77.682l-6.19-6.095a9.807 9.807 0 0 0 2.62-6.658 10.1 10.1 0 1 0-10.1 9.934 10.183 10.183 0 0 0 6.36-2.218l6.21 6.12a.788.788 0 0 0 1.1 0 .763.763 0 0 0 0-1.083zm-13.67-4.348a8.406 8.406 0 1 1 8.54-8.405 8.477 8.477 0 0 1-8.54 8.405z" transform="translate(-1522 -55)" fill-rule="evenodd" filter="url(#a)"/></svg>