<?xml version="1.0" standalone="no"?>
<!DOCTYPE svg PUBLIC "-//W3C//DTD SVG 1.1//EN" "http://www.w3.org/Graphics/SVG/1.1/DTD/svg11.dtd" >
<svg>
<metadata>
Created by FontForge 20090914 at Mon Nov  5 23:30:44 2018
 By www-data
Copyright (c) 2007 by . All rights reserved.
</metadata>
<defs>
<font id="Velocity" horiz-adv-x="698" >
  <font-face 
    font-family="Velocity"
    font-weight="400"
    font-stretch="normal"
    units-per-em="1000"
    panose-1="0 0 0 0 0 0 0 0 0 0"
    ascent="750"
    descent="-250"
    x-height="700"
    cap-height="860"
    bbox="-278.001 -266.996 958 863"
    underline-thickness="50"
    underline-position="-50"
    unicode-range="U+0020-U+007A"
  />
<missing-glyph horiz-adv-x="500" 
 />
    <glyph glyph-name=".notdef" horiz-adv-x="500" 
 />
    <glyph glyph-name="space" unicode=" " horiz-adv-x="500" 
 />
    <glyph glyph-name="space" unicode="&#xa0;" horiz-adv-x="500" 
 />
    <glyph glyph-name="A" unicode="A" horiz-adv-x="738" 
d="M700 349v-348h-163v54c-27.333 -17.333 -56.666 -30.666 -87.999 -39.999s-64 -14 -98 -14c-48 0 -93.333 9.16699 -136 27.5s-79.834 43.166 -111.501 74.499s-56.667 68.333 -75 111s-27.5 88 -27.5 136s9.16699 93.333 27.5 136s43.333 79.834 75 111.501
s68.834 56.667 111.501 75s88 27.5 136 27.5s93.333 -9.16699 136 -27.5s79.667 -43.333 111 -75s56.166 -68.834 74.499 -111.501s27.5 -88 27.5 -136v-1zM351 164c25.333 0 49.333 4.83301 72 14.5s42.5 23 59.5 40s30.333 36.667 40 59s14.5 46.5 14.5 72.5
s-4.83301 50.333 -14.5 73s-23 42.5 -40 59.5s-36.667 30.333 -59 40s-46.5 14.5 -72.5 14.5s-50.167 -4.83301 -72.5 -14.5s-42 -23 -59 -40s-30.333 -36.833 -40 -59.5s-14.5 -47 -14.5 -73c0 -25.333 4.83301 -49.333 14.5 -72s23 -42.5 40 -59.5s36.667 -30.333 59 -40
s46.5 -14.5 72.5 -14.5z" />
    <glyph glyph-name="B" unicode="B" horiz-adv-x="708" 
d="M349 698c48 0 93.166 -8.99902 135.499 -26.999s79.333 -42.833 111 -74.5s56.5 -68.667 74.5 -111s27 -87.5 27 -135.5s-9 -93.167 -27 -135.5s-42.833 -79.333 -74.5 -111s-68.667 -56.667 -111 -75s-87.5 -27.5 -135.5 -27.5s-93.333 9.16699 -136 27.5
s-79.667 43.333 -111 75s-56.166 68.667 -74.499 111s-27.5 87.5 -27.5 135.5v465h163v-171c26.667 17.333 55.667 30.666 87 39.999s64.333 14 99 14zM348.999 164.001c25.333 0 49.333 4.83301 72 14.5s42.5 23 59.5 40s30.333 36.667 40 59s14.5 46.5 14.5 72.5
s-4.83301 50.167 -14.5 72.5s-23 42 -40 59s-36.833 30.333 -59.5 40s-46.667 14.5 -72 14.5c-26 0 -50.167 -4.83301 -72.5 -14.5s-42 -23 -59 -40s-30.333 -36.667 -40 -59s-14.5 -46.5 -14.5 -72.5s4.83301 -50.167 14.5 -72.5s23 -42 40 -59s36.667 -30.333 59 -40
s46.5 -14.5 72.5 -14.5z" />
    <glyph glyph-name="C" unicode="C" 
d="M694 280c-8 -40 -22.333 -77.1709 -43 -111.504s-46.167 -64 -76.5 -89s-64.5 -44.667 -102.5 -59s-78.333 -21.5 -121 -21.5c-48 0 -93.333 9.16699 -136 27.5s-79.834 43.333 -111.501 75s-56.667 68.834 -75 111.501s-27.5 88.334 -27.5 137.001
c0 48 9.16699 93.333 27.5 136s43.333 79.834 75 111.501s68.834 56.667 111.501 75s88 27.5 136 27.5c42.667 0 83 -7.16699 121 -21.5s72.167 -34 102.5 -59s55.833 -54.5 76.5 -88.5s35 -71 43 -111h-170c-14 34 -36.5 61.833 -67.5 83.5s-66.167 32.5 -105.5 32.5
c-26 0 -50.333 -4.83301 -73 -14.5s-42.5 -23 -59.5 -40s-30.333 -36.667 -40 -59s-14.5 -46.5 -14.5 -72.5s4.83301 -50.333 14.5 -73s23 -42.5 40 -59.5s36.833 -30.333 59.5 -40s47 -14.5 73 -14.5c39.333 0 74.5 10.833 105.5 32.5s53.5 49.834 67.5 84.501h170z" />
    <glyph glyph-name="D" unicode="D" horiz-adv-x="713" 
d="M697 814l-0.000976562 -465c0 -48 -9.16699 -93.167 -27.5 -135.5s-43.166 -79.166 -74.499 -110.499s-68.333 -56.166 -111 -74.499s-88 -27.5 -136 -27.5s-93.167 9.16699 -135.5 27.5s-79.166 43.166 -110.499 74.499s-56.166 68.166 -74.499 110.499
s-27.5 87.5 -27.5 135.5s9.16699 93.333 27.5 136s43.166 79.667 74.499 111s68.166 56.166 110.499 74.499s87.5 27.5 135.5 27.5c34.667 0 67.5 -4.66699 98.5 -14s60.167 -22.666 87.5 -39.999v170h163zM347.999 164c26 0 50.167 4.83301 72.5 14.5s42 22.834 59 39.501
s30.333 36.334 40 59.001s14.5 46.667 14.5 72c0 26 -4.83301 50.167 -14.5 72.5s-23 42 -40 59s-36.667 30.333 -59 40s-46.5 14.5 -72.5 14.5c-25.333 0 -49.333 -4.83301 -72 -14.5s-42.334 -23 -59.001 -40s-29.834 -36.667 -39.501 -59s-14.5 -46.5 -14.5 -72.5
c0 -25.333 4.83301 -49.333 14.5 -72s22.834 -42.334 39.501 -59.001s36.334 -29.834 59.001 -39.501s46.667 -14.5 72 -14.5z" />
    <glyph glyph-name="E" unicode="E" 
d="M693 281c-8 -40 -22.502 -77.1641 -43.502 -111.497s-46.5 -64 -76.5 -89s-64 -44.5 -102 -58.5s-78.333 -21 -121 -21c-48.667 0 -94.167 9.16699 -136.5 27.5s-79.333 43.333 -111 75s-56.667 68.667 -75 111s-27.5 87.833 -27.5 136.5s9.16699 94.167 27.5 136.5
s43.333 79.333 75 111s68.667 56.667 111 75s87.833 27.5 136.5 27.5c36 0 70.333 -5.16699 103 -15.5s62.834 -24.833 90.501 -43.5s52.334 -40.834 74.001 -66.501s39.167 -53.834 52.5 -84.501c3.33301 -7.33301 6 -14 8 -20l-16 -27l-58 -93h-217l86 139
c-16.667 15.333 -35.5 27.166 -56.5 35.499s-43.167 12.5 -66.5 12.5c-26 0 -50.333 -4.83301 -73 -14.5s-42.5 -23 -59.5 -40s-30.333 -36.833 -40 -59.5s-14.5 -47 -14.5 -73s4.83301 -50.333 14.5 -73s23 -42.5 40 -59.5s36.833 -30.333 59.5 -40s47 -14.5 73 -14.5
c39.333 0 74.5 11 105.5 33s53.5 50 67.5 84h170z" />
    <glyph glyph-name="F" unicode="F" horiz-adv-x="467" 
d="M536 861l-0.00195312 -163.002h-116c-23.333 0 -46.166 -5.33301 -68.499 -16s-42.166 -24.667 -59.499 -42s-31.333 -37.166 -42 -59.499s-16 -45.166 -16 -68.499v-70h186v-139h-186v-303h-163v303h-70l70 116v93c0 46.667 9.5 91 28.5 133s44.5 79 76.5 111
s69 57.5 111 76.5s86.333 28.5 133 28.5h116z" />
    <glyph glyph-name="G" unicode="G" horiz-adv-x="741" 
d="M535 698h162.996v-583c0 -44.667 -8.66699 -86.667 -26 -126s-40.666 -73.833 -69.999 -103.5s-63.833 -53 -103.5 -70s-81.834 -25.5 -126.501 -25.5v163c32 0 60.833 8.33301 86.5 25s45.5 38.334 59.5 65.001c-25.333 -13.333 -52.166 -23.833 -80.499 -31.5
s-57.833 -11.5 -88.5 -11.5c-48 0 -93.333 9.16699 -136 27.5s-79.667 43.166 -111 74.499s-56.166 68.333 -74.499 111s-27.5 88 -27.5 136c0 45.333 8 87.5 24 126.5s38 74.167 66 105.5h-67l69 117h257c16 0 31.833 -1.16699 47.5 -3.5s30.5 -5.5 44.5 -9.5v-175
c-13.333 7.33301 -27.666 13.333 -42.999 18s-31.666 7 -48.999 7c-25.333 0 -49.333 -4.83301 -72 -14.5s-42.5 -23 -59.5 -40s-30.5 -36.833 -40.5 -59.5s-15 -46.667 -15 -72c0 -26 5 -50.333 15 -73s23.5 -42.5 40.5 -59.5s36.833 -30.333 59.5 -40
s46.667 -14.5 72 -14.5s49.333 4.83301 72 14.5s42.5 23 59.5 40s30.333 36.833 40 59.5s14.5 47 14.5 73v349z" />
    <glyph glyph-name="H" unicode="H" horiz-adv-x="627" 
d="M303 700c42 0 81.335 -8 118.002 -24s68.667 -37.667 96 -65s49 -59.333 65 -96s24 -76 24 -118v-397h-163v397c0 19.333 -3.66699 37.5 -11 54.5s-17.333 31.833 -30 44.5s-27.5 22.667 -44.5 30s-35.167 11 -54.5 11s-37.5 -3.66699 -54.5 -11
s-31.833 -17.333 -44.5 -30s-22.667 -27.5 -30 -44.5s-11 -35.167 -11 -54.5v-24v-373h-163v373v24v186v164h-96l70 116h26h163v-198c21.333 11.333 43.666 20 66.999 26s47.666 9 72.999 9z" />
    <glyph glyph-name="I" unicode="I" horiz-adv-x="258" 
d="M204 0h-163v647h163v-647v0zM204 697h-163v163h163v-163v0z" />
    <glyph glyph-name="J" unicode="J" horiz-adv-x="339" 
d="M267 698h-162v163h162v-163zM105 648l-0.00195312 -253.002v-279c0 -23.333 -4.16699 -45 -12.5 -65s-19.666 -37.167 -33.999 -51.5s-31.5 -25.666 -51.5 -33.999s-41.667 -12.5 -65 -12.5h-23l-93 -163h116c46.667 0 89.834 8.33301 129.501 25s74 39.5 103 68.5
s51.667 63.333 68 103s24.5 82.834 24.5 129.501v532h-162z" />
    <glyph glyph-name="K" unicode="K" horiz-adv-x="626" 
d="M407 418c28 -18 53.5 -38.8301 76.5 -62.4971s42.667 -49.834 59 -78.501s29 -59.5 38 -92.5s13.5 -67.167 13.5 -102.5c0 -53.333 -9.83301 -103.833 -29.5 -151.5s-48.167 -90.167 -85.5 -127.5l-115 115c21.333 21.333 37.833 46.166 49.5 74.499
s17.5 58.166 17.5 89.499c0 32 -6.16699 62.167 -18.5 90.5s-29 53 -50 74s-45.5 37.667 -73.5 50s-58 18.5 -90 18.5c-13.333 0 -25.333 -1 -36 -3v-312h-163v745h-70l70 117h117h46v-381c32.667 4 63.167 13.667 91.5 29s53 34.833 74 58.5s37.5 50.5 49.5 80.5
s18 62 18 96h163c0 -65.333 -13.5 -126.333 -40.5 -183s-64.167 -104.667 -111.5 -144z" />
    <glyph glyph-name="L" unicode="L" horiz-adv-x="326" 
d="M420 162v-163h-93v-1c-45.333 0 -87.833 8.5 -127.5 25.5s-74.334 40.333 -104.001 70s-53 64.334 -70 104.001s-25.5 82.167 -25.5 127.5v420h-93l70 117h116l-1 -1h71v-253v-283c0 -22.667 4.33301 -43.834 13 -63.501s20.5 -37 35.5 -52s32.333 -26.833 52 -35.5
s40.834 -13 63.501 -13v1h93z" />
    <glyph glyph-name="M" unicode="M" horiz-adv-x="969" 
d="M957 420l-0.00585938 -420h-163v408c0 16 -3.16699 31.167 -9.5 45.5s-14.666 26.666 -24.999 36.999s-22.666 18.666 -36.999 24.999s-29.5 9.5 -45.5 9.5s-31.167 -3.16699 -45.5 -9.5s-26.666 -14.666 -36.999 -24.999s-18.666 -22.666 -24.999 -36.999
s-9.5 -29.5 -9.5 -45.5v-408h-163v408c0 16 -3.16699 31.167 -9.5 45.5s-14.666 26.666 -24.999 36.999s-22.666 18.666 -36.999 24.999s-29.5 9.5 -45.5 9.5s-31.167 -3.16699 -45.5 -9.5s-26.666 -14.666 -36.999 -24.999s-18.666 -22.666 -24.999 -36.999
s-9.5 -29.5 -9.5 -45.5v-408h-163v583h-82l70 117h12h105h58v-38c36.667 17.333 75.667 26 117 26c39.333 0 76 -7.33301 110 -22s63.667 -34.667 89 -60c25.333 25.333 54.833 45.333 88.5 60s70.167 22 109.5 22c37.333 0 72.666 -7 105.999 -21s62.5 -33 87.5 -57
s45.167 -52.333 60.5 -85s23.666 -67.667 24.999 -105h1z" />
    <glyph glyph-name="N" unicode="N" horiz-adv-x="627" 
d="M303 701c42 0 81.334 -8 118.001 -24s68.667 -37.667 96 -65s48.833 -59.333 64.5 -96s23.5 -76 23.5 -118v-396h-163v396c0 19.333 -3.66699 37.5 -11 54.5s-17.166 31.833 -29.499 44.5s-27 22.667 -44 30s-35.167 11 -54.5 11s-37.5 -3.66699 -54.5 -11
s-31.833 -17.333 -44.5 -30s-22.667 -27.5 -30 -44.5s-11 -35.167 -11 -54.5v-23v-373h-163v373v23v186h-93l69 117h24h93h70v-35c21.333 11.333 43.666 20 66.999 26s47.666 9 72.999 9z" />
    <glyph glyph-name="O" unicode="O" horiz-adv-x="700" 
d="M700 350c0 -46.667 -9.5 -91.167 -28.5 -133.5s-44.5 -79.5 -76.5 -111.5s-69.333 -57.5 -112 -76.5s-87.334 -28.5 -134.001 -28.5c-52.667 0 -100.5 9.5 -143.5 28.5s-79.833 44.5 -110.5 76.5s-54.334 69.167 -71.001 111.5s-25 86.833 -25 133.5
s8.33301 91.334 25 134.001s40.334 80 71.001 112s67.5 57.5 110.5 76.5s90.833 28.5 143.5 28.5c46.667 0 91.334 -9.5 134.001 -28.5s80 -44.5 112 -76.5s57.5 -69.333 76.5 -112s28.5 -87.334 28.5 -134.001zM537 350c0 24 -5.33301 47.167 -16 69.5
s-24.834 42.333 -42.501 60s-37.667 31.834 -60 42.501s-45.5 16 -69.5 16c-29.333 0 -55.5 -5.33301 -78.5 -16s-42.5 -24.834 -58.5 -42.501s-28.333 -37.667 -37 -60s-13 -45.5 -13 -69.5c0 -23.333 4.33301 -46.333 13 -69s21 -42.667 37 -60s35.5 -31.333 58.5 -42
s49.167 -16 78.5 -16c24 0 47.167 5.33301 69.5 16s42.333 24.667 60 42s31.834 37.333 42.501 60s16 45.667 16 69z" />
    <glyph glyph-name="P" unicode="P" horiz-adv-x="711" 
d="M350 699c52 0 99.5 -8.33203 142.5 -24.999s79.833 -40.334 110.5 -71.001s54.334 -67.5 71.001 -110.5s25 -90.5 25 -142.5c0 -46.667 -8.33301 -91.167 -25 -133.5s-40.334 -79.5 -71.001 -111.5s-67.5 -57.5 -110.5 -76.5s-90.5 -28.5 -142.5 -28.5
c-17.333 -0 -33.5 1.33301 -48.5 4s-29.667 7 -44 13s-29 13.333 -44 22s-31.167 19 -48.5 31v-279h-165v791h-92l70 117h22h95h70v-48c17.333 12 33.5 21.167 48.5 27.5s29.667 11 44 14s29 4.83301 44 5.5s31.167 1 48.5 1zM350 163.001c29.333 0 55.5 5.33301 78.5 16
s42.5 24.834 58.5 42.501s28.333 37.667 37 60s13 45.166 13 68.499c0 58.667 -16.5 104.5 -49.5 137.5s-78.833 49.5 -137.5 49.5c-23.333 0 -46 -4.33301 -68 -13s-41.667 -21 -59 -37s-31.333 -35.667 -42 -59s-16 -49.333 -16 -78c0 -23.333 5.33301 -46.166 16 -68.499
s24.667 -42.333 42 -60s37 -31.834 59 -42.501s44.667 -16 68 -16z" />
    <glyph glyph-name="Q" unicode="Q" horiz-adv-x="713" 
d="M788 -88l-69 -117.002h-24h-94h-67v278c-23.333 -23.333 -51.5 -41 -84.5 -53s-66.833 -18 -101.5 -18c-46 0 -90 9.5 -132 28.5s-79 44.5 -111 76.5s-57.5 69.167 -76.5 111.5s-28.5 86.833 -28.5 133.5c0 52 9.5 99.333 28.5 142s44.5 79.334 76.5 110.001
s69 54.334 111 71.001s86 25 132 25c34.667 0 68.5 -4.83301 101.5 -14.5s61.167 -20.5 84.5 -32.5v47h161v-788h93zM348 165.998c28.667 0 54.501 5.33398 77.501 16.001s42.5 24.667 58.5 42s28.333 37.166 37 59.499s13 45.166 13 68.499
c0 57.333 -16.333 102.5 -49 135.5s-78.334 49.5 -137.001 49.5c-23.333 0 -46 -4.33301 -68 -13s-41.667 -21 -59 -37s-31.333 -35.333 -42 -58s-16 -48.334 -16 -77.001c0 -23.333 5.33301 -46.166 16 -68.499s24.667 -42.166 42 -59.499s37 -31.333 59 -42
s44.667 -16 68 -16z" />
    <glyph glyph-name="R" unicode="R" horiz-adv-x="488" 
d="M418 700c35.333 0 69.499 -5.83301 102.499 -17.5s61.167 -29.167 84.5 -52.5l-117 -117c-12 12 -23.833 19 -35.5 21s-23.167 3 -34.5 3c-23.333 0 -45 -4.16699 -65 -12.5s-37.167 -19.833 -51.5 -34.5s-25.666 -32 -33.999 -52s-12.5 -41.667 -12.5 -65v-373h-164v583
h-93l70 117h23h94h70v-47c11.333 6 24 11.833 38 17.5s28.333 10.667 43 15s29 7.83301 43 10.5s27 4 39 4z" />
    <glyph glyph-name="S" unicode="S" horiz-adv-x="535" 
d="M262 537c-14 -1.33301 -25.833 -6.83594 -35.5 -16.5029s-14.5 -21.5 -14.5 -35.5c0 -14.667 5 -27.167 15 -37.5s22.333 -15.5 37 -15.5h41c28.667 -1.33301 55.5 -7.83301 80.5 -19.5s46.833 -27.167 65.5 -46.5s33.334 -41.833 44.001 -67.5s16 -52.834 16 -81.501
c0 -29.333 -5.33301 -56.666 -16 -81.999s-25.334 -47.666 -44.001 -66.999s-40.5 -34.833 -65.5 -46.5s-51.833 -18.167 -80.5 -19.5h-5h-5h-246v163h249c14 0.666992 25.833 6 35.5 16s14.5 22 14.5 36c0 14.667 -5.16699 27 -15.5 37s-22.833 15 -37.5 15h-37v1
c-29.333 0.666992 -56.666 6.83398 -81.999 18.501s-47.333 27.167 -66 46.5s-33.5 41.833 -44.5 67.5s-16.5 53.167 -16.5 82.5c0 17.333 2.16699 34.333 6.5 51s10.166 32.334 17.499 47.001h-71l70 117h186h1h5h250v-163h-252v0z" />
    <glyph glyph-name="T" unicode="T" horiz-adv-x="467" 
d="M164 535l0.000976562 -209.001c0 -24 5.33301 -46 16 -66s24 -37 40 -51s33.5 -25 52.5 -33s37.167 -12 54.5 -12h140v-164h-140c-40.667 0 -80.667 9.33301 -120 28s-74.333 43.334 -105 74.001s-55.334 65.5 -74.001 104.5s-28 78.833 -28 119.5v418h-91l69 117h118h68
v-164h303v-162h-303z" />
    <glyph glyph-name="U" unicode="U" horiz-adv-x="641" 
d="M604 701l-0.00195312 -372v-24v-302h-163v23c-23.333 -11.333 -46.666 -18 -69.999 -20s-46.666 -3 -69.999 -3c-40.667 0 -79.167 8.16699 -115.5 24.5s-68.333 38.333 -96 66s-49.667 59.667 -66 96s-24.5 74.833 -24.5 115.5v396h163v-396c0 -17.333 4 -34.333 12 -51
s18.5 -31.5 31.5 -44.5s27.833 -23.5 44.5 -31.5s33.667 -12 51 -12s34.5 4 51.5 12s32 18.5 45 31.5s23.5 27.833 31.5 44.5s12 33.667 12 51v24v372h163z" />
    <glyph glyph-name="V" unicode="V" horiz-adv-x="672" 
d="M303 3h-209v582h-94l71 116h184v-465l349 465h187l-488 -698v0z" />
    <glyph glyph-name="W" unicode="W" horiz-adv-x="981" 
d="M958 701l-0.00195312 -444.001c-6 -35.333 -17.333 -68.5 -34 -99.5s-37.334 -58.167 -62.001 -81.5s-52.667 -41.833 -84 -55.5s-64.333 -20.5 -99 -20.5c-35.333 0 -69.333 6.83301 -102 20.5s-60.667 37.5 -84 71.5c-24.667 -34 -54.5 -57.833 -89.5 -71.5
s-75.5 -20.5 -121.5 -20.5c-35.333 0 -68.666 6.83301 -99.999 20.5s-59.5 32.834 -84.5 57.501s-46 54.167 -63 88.5s-28.5 71.833 -34.5 112.5v306h-92l70 116h117h70v-422c0 -17.333 3.83301 -33 11.5 -47s17.334 -26.167 29.001 -36.5s24.334 -18.333 38.001 -24
s26.5 -8.5 38.5 -8.5c35.333 0 63.5 10.833 84.5 32.5s31.5 49.5 31.5 83.5v422h162v-422c0 -17.333 4 -33 12 -47s17.833 -26.167 29.5 -36.5s24.5 -18.333 38.5 -24s27 -8.5 39 -8.5c34 0 62 10.833 84 32.5s33 49.5 33 83.5v422h162z" />
    <glyph glyph-name="X" unicode="X" horiz-adv-x="609" 
d="M464 477c38 -28 68.333 -63.332 91 -105.999s34 -89.334 34 -140.001c0 -40.667 -7.66699 -79.334 -23 -116.001s-37.333 -69.667 -66 -99l-15 -15l-16 15l-83 82l-16 16l16 15c28 29.333 42 63.333 42 102c0 18.667 -3.5 36.5 -10.5 53.5s-16.5 32 -28.5 45
s-26.167 23.5 -42.5 31.5s-33.833 12.667 -52.5 14c-18.667 -1.33301 -36 -6 -52 -14s-30 -18.5 -42 -31.5s-21.5 -28 -28.5 -45s-10.5 -34.833 -10.5 -53.5c0 -38.667 14 -72.667 42 -102l15 -15l-15 -16l-83 -82l-16 -15l-16 15c-28 29.333 -49.667 62.333 -65 99
s-23 75.334 -23 116.001c0 52 11.667 99.5 35 142.5s54.666 78.5 93.999 106.5c-28 24 -50.333 53.167 -67 87.5s-25 71.5 -25 111.5v22h22h90h22v-22c0 -17.333 3.33301 -33.833 10 -49.5s15.667 -29.167 27 -40.5s24.833 -20.333 40.5 -27s32.167 -10 49.5 -10
s33.666 3.33301 48.999 10s28.833 15.667 40.5 27s20.834 24.833 27.501 40.5s10 32.167 10 49.5v22h22h91h22v-22c0 -41.333 -8.66699 -79.333 -26 -114s-40.666 -64 -69.999 -88z" />
    <glyph glyph-name="Y" unicode="Y" horiz-adv-x="724" 
d="M701 700l0.00292969 -465.997c0 -69.333 -13 -134.333 -39 -195s-61.667 -113.667 -107 -159s-98.333 -81.166 -159 -107.499s-125.334 -39.5 -194.001 -39.5v166c51.333 0 98.666 10.333 141.999 31s80.333 49 111 85c-16.667 -4.66699 -33.5 -8.33398 -50.5 -11.001
s-34.833 -4 -53.5 -4c-48.667 0 -94.167 9.16699 -136.5 27.5s-79.333 43.166 -111 74.499s-56.667 68.333 -75 111s-27.5 88 -27.5 136c0 34.667 4.66699 67.667 14 99s22.666 60.666 39.999 87.999h-58l98 164h256v-164c-25.333 0 -49.333 -4.83301 -72 -14.5
s-42.5 -22.834 -59.5 -39.501s-30.5 -36.5 -40.5 -59.5s-15 -47.5 -15 -73.5c0 -25.333 5 -49.333 15 -72s23.5 -42.5 40.5 -59.5s36.833 -30.333 59.5 -40s46.667 -14.5 72 -14.5c26 0 50.333 4.83301 73 14.5s42.5 23 59.5 40s30.333 36.833 40 59.5s14.5 46.667 14.5 72
v295v56h163z" />
    <glyph glyph-name="Z" unicode="Z" horiz-adv-x="636" 
d="M293 163h332l-98 -163h-330h-186l314 536h-296l98 164h294h180h6l-314 -537v0z" />
    <glyph glyph-name="a" unicode="a" horiz-adv-x="738" 
d="M700 349v-348h-163v54c-27.333 -17.333 -56.666 -30.666 -87.999 -39.999s-64 -14 -98 -14c-48 0 -93.333 9.16699 -136 27.5s-79.834 43.166 -111.501 74.499s-56.667 68.333 -75 111s-27.5 88 -27.5 136s9.16699 93.333 27.5 136s43.333 79.834 75 111.501
s68.834 56.667 111.501 75s88 27.5 136 27.5s93.333 -9.16699 136 -27.5s79.667 -43.333 111 -75s56.166 -68.834 74.499 -111.501s27.5 -88 27.5 -136v-1zM351 164c25.333 0 49.333 4.83301 72 14.5s42.5 23 59.5 40s30.333 36.667 40 59s14.5 46.5 14.5 72.5
s-4.83301 50.333 -14.5 73s-23 42.5 -40 59.5s-36.667 30.333 -59 40s-46.5 14.5 -72.5 14.5s-50.167 -4.83301 -72.5 -14.5s-42 -23 -59 -40s-30.333 -36.833 -40 -59.5s-14.5 -47 -14.5 -73c0 -25.333 4.83301 -49.333 14.5 -72s23 -42.5 40 -59.5s36.667 -30.333 59 -40
s46.5 -14.5 72.5 -14.5z" />
    <glyph glyph-name="b" unicode="b" horiz-adv-x="708" 
d="M349 698c48 0 93.166 -8.99902 135.499 -26.999s79.333 -42.833 111 -74.5s56.5 -68.667 74.5 -111s27 -87.5 27 -135.5s-9 -93.167 -27 -135.5s-42.833 -79.333 -74.5 -111s-68.667 -56.667 -111 -75s-87.5 -27.5 -135.5 -27.5s-93.333 9.16699 -136 27.5
s-79.667 43.333 -111 75s-56.166 68.667 -74.499 111s-27.5 87.5 -27.5 135.5v465h163v-171c26.667 17.333 55.667 30.666 87 39.999s64.333 14 99 14zM348.999 164.001c25.333 0 49.333 4.83301 72 14.5s42.5 23 59.5 40s30.333 36.667 40 59s14.5 46.5 14.5 72.5
s-4.83301 50.167 -14.5 72.5s-23 42 -40 59s-36.833 30.333 -59.5 40s-46.667 14.5 -72 14.5c-26 0 -50.167 -4.83301 -72.5 -14.5s-42 -23 -59 -40s-30.333 -36.667 -40 -59s-14.5 -46.5 -14.5 -72.5s4.83301 -50.167 14.5 -72.5s23 -42 40 -59s36.667 -30.333 59 -40
s46.5 -14.5 72.5 -14.5z" />
    <glyph glyph-name="c" unicode="c" 
d="M694 280c-8 -40 -22.333 -77.1709 -43 -111.504s-46.167 -64 -76.5 -89s-64.5 -44.667 -102.5 -59s-78.333 -21.5 -121 -21.5c-48 0 -93.333 9.16699 -136 27.5s-79.834 43.333 -111.501 75s-56.667 68.834 -75 111.501s-27.5 88.334 -27.5 137.001
c0 48 9.16699 93.333 27.5 136s43.333 79.834 75 111.501s68.834 56.667 111.501 75s88 27.5 136 27.5c42.667 0 83 -7.16699 121 -21.5s72.167 -34 102.5 -59s55.833 -54.5 76.5 -88.5s35 -71 43 -111h-170c-14 34 -36.5 61.833 -67.5 83.5s-66.167 32.5 -105.5 32.5
c-26 0 -50.333 -4.83301 -73 -14.5s-42.5 -23 -59.5 -40s-30.333 -36.667 -40 -59s-14.5 -46.5 -14.5 -72.5s4.83301 -50.333 14.5 -73s23 -42.5 40 -59.5s36.833 -30.333 59.5 -40s47 -14.5 73 -14.5c39.333 0 74.5 10.833 105.5 32.5s53.5 49.834 67.5 84.501h170z" />
    <glyph glyph-name="d" unicode="d" horiz-adv-x="713" 
d="M697 814l-0.000976562 -465c0 -48 -9.16699 -93.167 -27.5 -135.5s-43.166 -79.166 -74.499 -110.499s-68.333 -56.166 -111 -74.499s-88 -27.5 -136 -27.5s-93.167 9.16699 -135.5 27.5s-79.166 43.166 -110.499 74.499s-56.166 68.166 -74.499 110.499
s-27.5 87.5 -27.5 135.5s9.16699 93.333 27.5 136s43.166 79.667 74.499 111s68.166 56.166 110.499 74.499s87.5 27.5 135.5 27.5c34.667 0 67.5 -4.66699 98.5 -14s60.167 -22.666 87.5 -39.999v170h163zM347.999 164c26 0 50.167 4.83301 72.5 14.5s42 22.834 59 39.501
s30.333 36.334 40 59.001s14.5 46.667 14.5 72c0 26 -4.83301 50.167 -14.5 72.5s-23 42 -40 59s-36.667 30.333 -59 40s-46.5 14.5 -72.5 14.5c-25.333 0 -49.333 -4.83301 -72 -14.5s-42.334 -23 -59.001 -40s-29.834 -36.667 -39.501 -59s-14.5 -46.5 -14.5 -72.5
c0 -25.333 4.83301 -49.333 14.5 -72s22.834 -42.334 39.501 -59.001s36.334 -29.834 59.001 -39.501s46.667 -14.5 72 -14.5z" />
    <glyph glyph-name="e" unicode="e" 
d="M693 281c-8 -40 -22.502 -77.1641 -43.502 -111.497s-46.5 -64 -76.5 -89s-64 -44.5 -102 -58.5s-78.333 -21 -121 -21c-48.667 0 -94.167 9.16699 -136.5 27.5s-79.333 43.333 -111 75s-56.667 68.667 -75 111s-27.5 87.833 -27.5 136.5s9.16699 94.167 27.5 136.5
s43.333 79.333 75 111s68.667 56.667 111 75s87.833 27.5 136.5 27.5c36 0 70.333 -5.16699 103 -15.5s62.834 -24.833 90.501 -43.5s52.334 -40.834 74.001 -66.501s39.167 -53.834 52.5 -84.501c3.33301 -7.33301 6 -14 8 -20l-16 -27l-58 -93h-217l86 139
c-16.667 15.333 -35.5 27.166 -56.5 35.499s-43.167 12.5 -66.5 12.5c-26 0 -50.333 -4.83301 -73 -14.5s-42.5 -23 -59.5 -40s-30.333 -36.833 -40 -59.5s-14.5 -47 -14.5 -73s4.83301 -50.333 14.5 -73s23 -42.5 40 -59.5s36.833 -30.333 59.5 -40s47 -14.5 73 -14.5
c39.333 0 74.5 11 105.5 33s53.5 50 67.5 84h170z" />
    <glyph glyph-name="f" unicode="f" horiz-adv-x="467" 
d="M536 861l-0.00195312 -163.002h-116c-23.333 0 -46.166 -5.33301 -68.499 -16s-42.166 -24.667 -59.499 -42s-31.333 -37.166 -42 -59.499s-16 -45.166 -16 -68.499v-70h186v-139h-186v-303h-163v303h-70l70 116v93c0 46.667 9.5 91 28.5 133s44.5 79 76.5 111
s69 57.5 111 76.5s86.333 28.5 133 28.5h116z" />
    <glyph glyph-name="g" unicode="g" horiz-adv-x="741" 
d="M535 698h162.996v-583c0 -44.667 -8.66699 -86.667 -26 -126s-40.666 -73.833 -69.999 -103.5s-63.833 -53 -103.5 -70s-81.834 -25.5 -126.501 -25.5v163c32 0 60.833 8.33301 86.5 25s45.5 38.334 59.5 65.001c-25.333 -13.333 -52.166 -23.833 -80.499 -31.5
s-57.833 -11.5 -88.5 -11.5c-48 0 -93.333 9.16699 -136 27.5s-79.667 43.166 -111 74.499s-56.166 68.333 -74.499 111s-27.5 88 -27.5 136c0 45.333 8 87.5 24 126.5s38 74.167 66 105.5h-67l69 117h257c16 0 31.833 -1.16699 47.5 -3.5s30.5 -5.5 44.5 -9.5v-175
c-13.333 7.33301 -27.666 13.333 -42.999 18s-31.666 7 -48.999 7c-25.333 0 -49.333 -4.83301 -72 -14.5s-42.5 -23 -59.5 -40s-30.5 -36.833 -40.5 -59.5s-15 -46.667 -15 -72c0 -26 5 -50.333 15 -73s23.5 -42.5 40.5 -59.5s36.833 -30.333 59.5 -40
s46.667 -14.5 72 -14.5s49.333 4.83301 72 14.5s42.5 23 59.5 40s30.333 36.833 40 59.5s14.5 47 14.5 73v349z" />
    <glyph glyph-name="h" unicode="h" horiz-adv-x="627" 
d="M303 700c42 0 81.335 -8 118.002 -24s68.667 -37.667 96 -65s49 -59.333 65 -96s24 -76 24 -118v-397h-163v397c0 19.333 -3.66699 37.5 -11 54.5s-17.333 31.833 -30 44.5s-27.5 22.667 -44.5 30s-35.167 11 -54.5 11s-37.5 -3.66699 -54.5 -11
s-31.833 -17.333 -44.5 -30s-22.667 -27.5 -30 -44.5s-11 -35.167 -11 -54.5v-24v-373h-163v373v24v186v164h-96l70 116h26h163v-198c21.333 11.333 43.666 20 66.999 26s47.666 9 72.999 9z" />
    <glyph glyph-name="i" unicode="i" horiz-adv-x="258" 
d="M204 0h-163v647h163v-647v0zM204 697h-163v163h163v-163v0z" />
    <glyph glyph-name="j" unicode="j" horiz-adv-x="339" 
d="M267 698h-162v163h162v-163zM105 648l-0.00195312 -253.002v-279c0 -23.333 -4.16699 -45 -12.5 -65s-19.666 -37.167 -33.999 -51.5s-31.5 -25.666 -51.5 -33.999s-41.667 -12.5 -65 -12.5h-23l-93 -163h116c46.667 0 89.834 8.33301 129.501 25s74 39.5 103 68.5
s51.667 63.333 68 103s24.5 82.834 24.5 129.501v532h-162z" />
    <glyph glyph-name="k" unicode="k" horiz-adv-x="626" 
d="M407 418c28 -18 53.5 -38.8301 76.5 -62.4971s42.667 -49.834 59 -78.501s29 -59.5 38 -92.5s13.5 -67.167 13.5 -102.5c0 -53.333 -9.83301 -103.833 -29.5 -151.5s-48.167 -90.167 -85.5 -127.5l-115 115c21.333 21.333 37.833 46.166 49.5 74.499
s17.5 58.166 17.5 89.499c0 32 -6.16699 62.167 -18.5 90.5s-29 53 -50 74s-45.5 37.667 -73.5 50s-58 18.5 -90 18.5c-13.333 0 -25.333 -1 -36 -3v-312h-163v745h-70l70 117h117h46v-381c32.667 4 63.167 13.667 91.5 29s53 34.833 74 58.5s37.5 50.5 49.5 80.5
s18 62 18 96h163c0 -65.333 -13.5 -126.333 -40.5 -183s-64.167 -104.667 -111.5 -144z" />
    <glyph glyph-name="l" unicode="l" horiz-adv-x="326" 
d="M420 162v-163h-93v-1c-45.333 0 -87.833 8.5 -127.5 25.5s-74.334 40.333 -104.001 70s-53 64.334 -70 104.001s-25.5 82.167 -25.5 127.5v420h-93l70 117h116l-1 -1h71v-253v-283c0 -22.667 4.33301 -43.834 13 -63.501s20.5 -37 35.5 -52s32.333 -26.833 52 -35.5
s40.834 -13 63.501 -13v1h93z" />
    <glyph glyph-name="m" unicode="m" horiz-adv-x="969" 
d="M957 420l-0.00585938 -420h-163v408c0 16 -3.16699 31.167 -9.5 45.5s-14.666 26.666 -24.999 36.999s-22.666 18.666 -36.999 24.999s-29.5 9.5 -45.5 9.5s-31.167 -3.16699 -45.5 -9.5s-26.666 -14.666 -36.999 -24.999s-18.666 -22.666 -24.999 -36.999
s-9.5 -29.5 -9.5 -45.5v-408h-163v408c0 16 -3.16699 31.167 -9.5 45.5s-14.666 26.666 -24.999 36.999s-22.666 18.666 -36.999 24.999s-29.5 9.5 -45.5 9.5s-31.167 -3.16699 -45.5 -9.5s-26.666 -14.666 -36.999 -24.999s-18.666 -22.666 -24.999 -36.999
s-9.5 -29.5 -9.5 -45.5v-408h-163v583h-82l70 117h12h105h58v-38c36.667 17.333 75.667 26 117 26c39.333 0 76 -7.33301 110 -22s63.667 -34.667 89 -60c25.333 25.333 54.833 45.333 88.5 60s70.167 22 109.5 22c37.333 0 72.666 -7 105.999 -21s62.5 -33 87.5 -57
s45.167 -52.333 60.5 -85s23.666 -67.667 24.999 -105h1z" />
    <glyph glyph-name="n" unicode="n" horiz-adv-x="627" 
d="M303 701c42 0 81.334 -8 118.001 -24s68.667 -37.667 96 -65s48.833 -59.333 64.5 -96s23.5 -76 23.5 -118v-396h-163v396c0 19.333 -3.66699 37.5 -11 54.5s-17.166 31.833 -29.499 44.5s-27 22.667 -44 30s-35.167 11 -54.5 11s-37.5 -3.66699 -54.5 -11
s-31.833 -17.333 -44.5 -30s-22.667 -27.5 -30 -44.5s-11 -35.167 -11 -54.5v-23v-373h-163v373v23v186h-93l69 117h24h93h70v-35c21.333 11.333 43.666 20 66.999 26s47.666 9 72.999 9z" />
    <glyph glyph-name="o" unicode="o" horiz-adv-x="700" 
d="M700 350c0 -46.667 -9.5 -91.167 -28.5 -133.5s-44.5 -79.5 -76.5 -111.5s-69.333 -57.5 -112 -76.5s-87.334 -28.5 -134.001 -28.5c-52.667 0 -100.5 9.5 -143.5 28.5s-79.833 44.5 -110.5 76.5s-54.334 69.167 -71.001 111.5s-25 86.833 -25 133.5
s8.33301 91.334 25 134.001s40.334 80 71.001 112s67.5 57.5 110.5 76.5s90.833 28.5 143.5 28.5c46.667 0 91.334 -9.5 134.001 -28.5s80 -44.5 112 -76.5s57.5 -69.333 76.5 -112s28.5 -87.334 28.5 -134.001zM537 350c0 24 -5.33301 47.167 -16 69.5
s-24.834 42.333 -42.501 60s-37.667 31.834 -60 42.501s-45.5 16 -69.5 16c-29.333 0 -55.5 -5.33301 -78.5 -16s-42.5 -24.834 -58.5 -42.501s-28.333 -37.667 -37 -60s-13 -45.5 -13 -69.5c0 -23.333 4.33301 -46.333 13 -69s21 -42.667 37 -60s35.5 -31.333 58.5 -42
s49.167 -16 78.5 -16c24 0 47.167 5.33301 69.5 16s42.333 24.667 60 42s31.834 37.333 42.501 60s16 45.667 16 69z" />
    <glyph glyph-name="p" unicode="p" horiz-adv-x="711" 
d="M350 699c52 0 99.5 -8.33203 142.5 -24.999s79.833 -40.334 110.5 -71.001s54.334 -67.5 71.001 -110.5s25 -90.5 25 -142.5c0 -46.667 -8.33301 -91.167 -25 -133.5s-40.334 -79.5 -71.001 -111.5s-67.5 -57.5 -110.5 -76.5s-90.5 -28.5 -142.5 -28.5
c-17.333 -0 -33.5 1.33301 -48.5 4s-29.667 7 -44 13s-29 13.333 -44 22s-31.167 19 -48.5 31v-279h-165v791h-92l70 117h22h95h70v-48c17.333 12 33.5 21.167 48.5 27.5s29.667 11 44 14s29 4.83301 44 5.5s31.167 1 48.5 1zM350 163.001c29.333 0 55.5 5.33301 78.5 16
s42.5 24.834 58.5 42.501s28.333 37.667 37 60s13 45.166 13 68.499c0 58.667 -16.5 104.5 -49.5 137.5s-78.833 49.5 -137.5 49.5c-23.333 0 -46 -4.33301 -68 -13s-41.667 -21 -59 -37s-31.333 -35.667 -42 -59s-16 -49.333 -16 -78c0 -23.333 5.33301 -46.166 16 -68.499
s24.667 -42.333 42 -60s37 -31.834 59 -42.501s44.667 -16 68 -16z" />
    <glyph glyph-name="q" unicode="q" horiz-adv-x="713" 
d="M788 -88l-69 -117.002h-24h-94h-67v278c-23.333 -23.333 -51.5 -41 -84.5 -53s-66.833 -18 -101.5 -18c-46 0 -90 9.5 -132 28.5s-79 44.5 -111 76.5s-57.5 69.167 -76.5 111.5s-28.5 86.833 -28.5 133.5c0 52 9.5 99.333 28.5 142s44.5 79.334 76.5 110.001
s69 54.334 111 71.001s86 25 132 25c34.667 0 68.5 -4.83301 101.5 -14.5s61.167 -20.5 84.5 -32.5v47h161v-788h93zM348 165.998c28.667 0 54.501 5.33398 77.501 16.001s42.5 24.667 58.5 42s28.333 37.166 37 59.499s13 45.166 13 68.499
c0 57.333 -16.333 102.5 -49 135.5s-78.334 49.5 -137.001 49.5c-23.333 0 -46 -4.33301 -68 -13s-41.667 -21 -59 -37s-31.333 -35.333 -42 -58s-16 -48.334 -16 -77.001c0 -23.333 5.33301 -46.166 16 -68.499s24.667 -42.166 42 -59.499s37 -31.333 59 -42
s44.667 -16 68 -16z" />
    <glyph glyph-name="r" unicode="r" horiz-adv-x="488" 
d="M418 700c35.333 0 69.499 -5.83301 102.499 -17.5s61.167 -29.167 84.5 -52.5l-117 -117c-12 12 -23.833 19 -35.5 21s-23.167 3 -34.5 3c-23.333 0 -45 -4.16699 -65 -12.5s-37.167 -19.833 -51.5 -34.5s-25.666 -32 -33.999 -52s-12.5 -41.667 -12.5 -65v-373h-164v583
h-93l70 117h23h94h70v-47c11.333 6 24 11.833 38 17.5s28.333 10.667 43 15s29 7.83301 43 10.5s27 4 39 4z" />
    <glyph glyph-name="s" unicode="s" horiz-adv-x="535" 
d="M262 537c-14 -1.33301 -25.833 -6.83594 -35.5 -16.5029s-14.5 -21.5 -14.5 -35.5c0 -14.667 5 -27.167 15 -37.5s22.333 -15.5 37 -15.5h41c28.667 -1.33301 55.5 -7.83301 80.5 -19.5s46.833 -27.167 65.5 -46.5s33.334 -41.833 44.001 -67.5s16 -52.834 16 -81.501
c0 -29.333 -5.33301 -56.666 -16 -81.999s-25.334 -47.666 -44.001 -66.999s-40.5 -34.833 -65.5 -46.5s-51.833 -18.167 -80.5 -19.5h-5h-5h-246v163h249c14 0.666992 25.833 6 35.5 16s14.5 22 14.5 36c0 14.667 -5.16699 27 -15.5 37s-22.833 15 -37.5 15h-37v1
c-29.333 0.666992 -56.666 6.83398 -81.999 18.501s-47.333 27.167 -66 46.5s-33.5 41.833 -44.5 67.5s-16.5 53.167 -16.5 82.5c0 17.333 2.16699 34.333 6.5 51s10.166 32.334 17.499 47.001h-71l70 117h186h1h5h250v-163h-252v0z" />
    <glyph glyph-name="t" unicode="t" horiz-adv-x="467" 
d="M164 535l0.000976562 -209.001c0 -24 5.33301 -46 16 -66s24 -37 40 -51s33.5 -25 52.5 -33s37.167 -12 54.5 -12h140v-164h-140c-40.667 0 -80.667 9.33301 -120 28s-74.333 43.334 -105 74.001s-55.334 65.5 -74.001 104.5s-28 78.833 -28 119.5v418h-91l69 117h118h68
v-164h303v-162h-303z" />
    <glyph glyph-name="u" unicode="u" horiz-adv-x="641" 
d="M604 701l-0.00195312 -372v-24v-302h-163v23c-23.333 -11.333 -46.666 -18 -69.999 -20s-46.666 -3 -69.999 -3c-40.667 0 -79.167 8.16699 -115.5 24.5s-68.333 38.333 -96 66s-49.667 59.667 -66 96s-24.5 74.833 -24.5 115.5v396h163v-396c0 -17.333 4 -34.333 12 -51
s18.5 -31.5 31.5 -44.5s27.833 -23.5 44.5 -31.5s33.667 -12 51 -12s34.5 4 51.5 12s32 18.5 45 31.5s23.5 27.833 31.5 44.5s12 33.667 12 51v24v372h163z" />
    <glyph glyph-name="v" unicode="v" horiz-adv-x="672" 
d="M303 3h-209v582h-94l71 116h184v-465l349 465h187l-488 -698v0z" />
    <glyph glyph-name="w" unicode="w" horiz-adv-x="981" 
d="M958 701l-0.00195312 -444.001c-6 -35.333 -17.333 -68.5 -34 -99.5s-37.334 -58.167 -62.001 -81.5s-52.667 -41.833 -84 -55.5s-64.333 -20.5 -99 -20.5c-35.333 0 -69.333 6.83301 -102 20.5s-60.667 37.5 -84 71.5c-24.667 -34 -54.5 -57.833 -89.5 -71.5
s-75.5 -20.5 -121.5 -20.5c-35.333 0 -68.666 6.83301 -99.999 20.5s-59.5 32.834 -84.5 57.501s-46 54.167 -63 88.5s-28.5 71.833 -34.5 112.5v306h-92l70 116h117h70v-422c0 -17.333 3.83301 -33 11.5 -47s17.334 -26.167 29.001 -36.5s24.334 -18.333 38.001 -24
s26.5 -8.5 38.5 -8.5c35.333 0 63.5 10.833 84.5 32.5s31.5 49.5 31.5 83.5v422h162v-422c0 -17.333 4 -33 12 -47s17.833 -26.167 29.5 -36.5s24.5 -18.333 38.5 -24s27 -8.5 39 -8.5c34 0 62 10.833 84 32.5s33 49.5 33 83.5v422h162z" />
    <glyph glyph-name="x" unicode="x" horiz-adv-x="609" 
d="M464 477c38 -28 68.333 -63.332 91 -105.999s34 -89.334 34 -140.001c0 -40.667 -7.66699 -79.334 -23 -116.001s-37.333 -69.667 -66 -99l-15 -15l-16 15l-83 82l-16 16l16 15c28 29.333 42 63.333 42 102c0 18.667 -3.5 36.5 -10.5 53.5s-16.5 32 -28.5 45
s-26.167 23.5 -42.5 31.5s-33.833 12.667 -52.5 14c-18.667 -1.33301 -36 -6 -52 -14s-30 -18.5 -42 -31.5s-21.5 -28 -28.5 -45s-10.5 -34.833 -10.5 -53.5c0 -38.667 14 -72.667 42 -102l15 -15l-15 -16l-83 -82l-16 -15l-16 15c-28 29.333 -49.667 62.333 -65 99
s-23 75.334 -23 116.001c0 52 11.667 99.5 35 142.5s54.666 78.5 93.999 106.5c-28 24 -50.333 53.167 -67 87.5s-25 71.5 -25 111.5v22h22h90h22v-22c0 -17.333 3.33301 -33.833 10 -49.5s15.667 -29.167 27 -40.5s24.833 -20.333 40.5 -27s32.167 -10 49.5 -10
s33.666 3.33301 48.999 10s28.833 15.667 40.5 27s20.834 24.833 27.501 40.5s10 32.167 10 49.5v22h22h91h22v-22c0 -41.333 -8.66699 -79.333 -26 -114s-40.666 -64 -69.999 -88z" />
    <glyph glyph-name="y" unicode="y" horiz-adv-x="724" 
d="M701 700l0.00292969 -465.997c0 -69.333 -13 -134.333 -39 -195s-61.667 -113.667 -107 -159s-98.333 -81.166 -159 -107.499s-125.334 -39.5 -194.001 -39.5v166c51.333 0 98.666 10.333 141.999 31s80.333 49 111 85c-16.667 -4.66699 -33.5 -8.33398 -50.5 -11.001
s-34.833 -4 -53.5 -4c-48.667 0 -94.167 9.16699 -136.5 27.5s-79.333 43.166 -111 74.499s-56.667 68.333 -75 111s-27.5 88 -27.5 136c0 34.667 4.66699 67.667 14 99s22.666 60.666 39.999 87.999h-58l98 164h256v-164c-25.333 0 -49.333 -4.83301 -72 -14.5
s-42.5 -22.834 -59.5 -39.501s-30.5 -36.5 -40.5 -59.5s-15 -47.5 -15 -73.5c0 -25.333 5 -49.333 15 -72s23.5 -42.5 40.5 -59.5s36.833 -30.333 59.5 -40s46.667 -14.5 72 -14.5c26 0 50.333 4.83301 73 14.5s42.5 23 59.5 40s30.333 36.833 40 59.5s14.5 46.667 14.5 72
v295v56h163z" />
    <glyph glyph-name="z" unicode="z" horiz-adv-x="636" 
d="M293 163h332l-98 -163h-330h-186l314 536h-296l98 164h294h180h6l-314 -537v0z" />
    <glyph glyph-name=".null" horiz-adv-x="0" 
 />
    <glyph glyph-name="nonmarkingreturn" horiz-adv-x="500" 
 />
    <glyph glyph-name="j.001" horiz-adv-x="282" 
d="M163 697h-162v163h162v-163zM1 650l-0.00195312 -255.002v-279c0 -23.333 -4.16699 -45 -12.5 -65s-19.666 -37.167 -33.999 -51.5s-31.5 -25.666 -51.5 -33.999s-41.667 -12.5 -65 -12.5h-23l-93 -163h116c46.667 0 89.834 8.33301 129.501 25s74 39.5 103 68.5
s51.667 63.333 68 103s24.5 82.834 24.5 129.501v534h-162z" />
  </font>
</defs>
</svg>
