<?xml version="1.0" encoding="UTF-8" standalone="no"?>
<svg
   xmlns:x="adobe:ns:meta/"
   xmlns:dc="http://purl.org/dc/elements/1.1/"
   xmlns:cc="http://creativecommons.org/ns#"
   xmlns:rdf="http://www.w3.org/1999/02/22-rdf-syntax-ns#"
   xmlns:svg="http://www.w3.org/2000/svg"
   xmlns="http://www.w3.org/2000/svg"
   xmlns:sodipodi="http://sodipodi.sourceforge.net/DTD/sodipodi-0.dtd"
   xmlns:inkscape="http://www.inkscape.org/namespaces/inkscape"
   width="42.875"
   height="39.19"
   viewBox="0 0 42.875 39.19"
   version="1.1"
   id="svg16"
   sodipodi:docname="development.svg">
  <sodipodi:namedview
     pagecolor="#ffffff"
     bordercolor="#666666"
     borderopacity="1"
     objecttolerance="10"
     gridtolerance="10"
     guidetolerance="10"
     inkscape:pageopacity="0"
     inkscape:pageshadow="2"
     inkscape:window-width="640"
     inkscape:window-height="480"
     id="namedview18"
     showgrid="false" />
  <metadata
     id="metadata2">
<?xpacket begin="ÿ" id="W5M0MpCehiHzreSzNTczkc9d"?>    <x:xmpmeta
       x:xmptk="Adobe XMP Core 5.6-c138 79.159824, 2016/09/14-01:09:01        ">
      <metadata>
        <rdf:RDF>
          <rdf:Description
             rdf:about="" />
          <cc:Work
             rdf:about="">
            <dc:format>image/svg+xml</dc:format>
            <dc:type
               rdf:resource="http://purl.org/dc/dcmitype/StillImage" />
          </cc:Work>
        </rdf:RDF>
      </metadata>
    </x:xmpmeta>
<?xpacket end="w"?>  </metadata>
  <defs
     id="defs13">
    <style
       id="style4">
      .cls-1 {
        fill-rule: evenodd;
        filter: url(#filter);
      }
    </style>
    <filter
       id="filter"
       x="790.406"
       y="1113.09"
       width="42.875"
       height="39.19"
       filterUnits="userSpaceOnUse">
      <feFlood
         result="flood"
         flood-color="#c7b299"
         id="feFlood6" />
      <feComposite
         result="composite"
         operator="in"
         in2="SourceGraphic"
         id="feComposite8" />
      <feBlend
         result="blend"
         in2="SourceGraphic"
         id="feBlend10" />
    </filter>
  </defs>
  <path
     id="icon"
     class="cls-1"
     d="M811.851,1113.11l-21.437,11.56,21.437,11.56,21.436-11.56Zm0,26.85-17.452-9.41-3.985,2.15,21.437,11.55,21.436-11.55-3.985-2.15Zm0,8.02-17.452-9.41-3.985,2.15,21.437,11.56,21.436-11.56-3.985-2.15Z"
     transform="translate(-790.406 -1113.09)" />
  <path
     style="fill:#000000;fill-opacity:0;stroke:none;stroke-width:0.16605932;stroke-opacity:1"
     d="m 21.053167,22.94552 c -0.05776,-0.09346 -0.566579,-0.394567 -1.130701,-0.669116 -0.56412,-0.274551 -1.474034,-0.747473 -2.022029,-1.050938 -0.547996,-0.303465 -1.519443,-0.832419 -2.158772,-1.175451 -1.183208,-0.634851 -2.355146,-1.266753 -4.36025,-2.351023 C 10.765576,17.365975 9.8507112,16.874621 9.3483818,16.607094 6.7033041,15.198398 4.6176941,14.071916 2.9550981,13.153947 2.3157697,12.800955 1.4377311,12.347218 1.0039011,12.145643 0.57007118,11.944068 0.21511939,11.686784 0.21511939,11.5739 c 0,-0.112883 0.42967848,-0.406965 0.95484111,-0.653515 C 1.695123,10.673835 2.6478884,10.17902 3.2872167,9.8207956 3.9265451,9.4625716 4.8606288,8.9521553 5.3629582,8.6865369 5.8652876,8.4209187 6.7620079,7.9425812 7.35567,7.6235647 7.949332,7.3045483 8.9389238,6.7728621 9.5547628,6.44204 11.086007,5.6194723 12.618066,4.794356 13.955335,4.0720375 c 0.617151,-0.333351 1.53309,-0.827547 2.035419,-1.0982134 0.50233,-0.2706664 1.409183,-0.7628062 2.015232,-1.0936441 0.606048,-0.3308378 1.623085,-0.8725308 2.260085,-1.20376217 l 1.158179,-0.60223892 0.895043,0.46334505 c 1.686348,0.87298774 2.888625,1.51199054 4.050169,2.15263694 0.639328,0.3526202 1.610775,0.875707 2.158771,1.1624152 0.547996,0.2867083 1.519443,0.8078512 2.158771,1.1580952 0.639328,0.350244 1.610775,0.8707579 2.158771,1.1566973 0.547996,0.2859394 1.519443,0.8091137 2.158771,1.1626095 0.639329,0.3534958 1.552361,0.8314323 2.028959,1.062081 0.476601,0.2306488 0.962324,0.5062601 1.079386,0.6124696 0.117063,0.1062096 0.623838,0.4038194 1.126168,0.6613555 1.774767,0.9098938 2.910603,1.5057858 3.298823,1.7306568 0.38376,0.222287 0.364678,0.241623 -0.830297,0.841377 -0.672694,0.337624 -1.746168,0.900849 -2.385497,1.251613 -0.639328,0.350763 -1.573412,0.83656 -2.075741,1.079549 -0.50233,0.24299 -0.953229,0.506225 -1.001999,0.584968 -0.04877,0.07874 -0.497131,0.340069 -0.996356,0.580724 -0.499225,0.240655 -1.43077,0.726779 -2.070098,1.080275 -0.639329,0.353495 -1.610776,0.87667 -2.158771,1.162609 -0.547996,0.285939 -1.519443,0.806452 -2.158772,1.156696 -0.639328,0.350246 -1.610775,0.871388 -2.158771,1.158096 -0.547995,0.286708 -1.519442,0.809795 -2.158771,1.162416 -1.123859,0.619863 -3.20888,1.660593 -3.326865,1.660593 -0.03176,0 -0.105011,-0.07647 -0.162777,-0.169937 z"
     id="path4495"
     inkscape:connector-curvature="0" />
  <g
     id="g4500">
    <path
       inkscape:connector-curvature="0"
       id="path4497"
       d="m 21.053167,22.94552 c -0.05776,-0.09346 -0.566579,-0.394567 -1.130701,-0.669116 -0.56412,-0.274551 -1.474034,-0.747473 -2.022029,-1.050938 -0.547996,-0.303465 -1.519443,-0.832419 -2.158772,-1.175451 -1.183208,-0.634851 -2.355146,-1.266753 -4.36025,-2.351023 C 10.765576,17.365975 9.8507112,16.874621 9.3483818,16.607094 6.7033041,15.198398 4.6176941,14.071916 2.9550981,13.153947 2.3157697,12.800955 1.4377311,12.347218 1.0039011,12.145643 0.57007118,11.944068 0.21511939,11.686784 0.21511939,11.5739 c 0,-0.112883 0.42967848,-0.406965 0.95484111,-0.653515 C 1.695123,10.673835 2.6478884,10.17902 3.2872167,9.8207956 3.9265451,9.4625716 4.8606288,8.9521553 5.3629582,8.6865369 5.8652876,8.4209187 6.7620079,7.9425812 7.35567,7.6235647 7.949332,7.3045483 8.9389238,6.7728621 9.5547628,6.44204 11.086007,5.6194723 12.618066,4.794356 13.955335,4.0720375 c 0.617151,-0.333351 1.53309,-0.827547 2.035419,-1.0982134 0.50233,-0.2706664 1.409183,-0.7628062 2.015232,-1.0936441 0.606048,-0.3308378 1.623085,-0.8725308 2.260085,-1.20376217 l 1.158179,-0.60223892 0.895043,0.46334505 c 1.686348,0.87298774 2.888625,1.51199054 4.050169,2.15263694 0.639328,0.3526202 1.610775,0.875707 2.158771,1.1624152 0.547996,0.2867083 1.519443,0.8078512 2.158771,1.1580952 0.639328,0.350244 1.610775,0.8707579 2.158771,1.1566973 0.547996,0.2859394 1.519443,0.8091137 2.158771,1.1626095 0.639329,0.3534958 1.552361,0.8314323 2.028959,1.062081 0.476601,0.2306488 0.962324,0.5062601 1.079386,0.6124696 0.117063,0.1062096 0.623838,0.4038194 1.126168,0.6613555 1.774767,0.9098938 2.910603,1.5057858 3.298823,1.7306568 0.38376,0.222287 0.364678,0.241623 -0.830297,0.841377 -0.672694,0.337624 -1.746168,0.900849 -2.385497,1.251613 -0.639328,0.350763 -1.573412,0.83656 -2.075741,1.079549 -0.50233,0.24299 -0.953229,0.506225 -1.001999,0.584968 -0.04877,0.07874 -0.497131,0.340069 -0.996356,0.580724 -0.499225,0.240655 -1.43077,0.726779 -2.070098,1.080275 -0.639329,0.353495 -1.610776,0.87667 -2.158771,1.162609 -0.547996,0.285939 -1.519443,0.806452 -2.158772,1.156696 -0.639328,0.350246 -1.610775,0.871388 -2.158771,1.158096 -0.547995,0.286708 -1.519442,0.809795 -2.158771,1.162416 -1.123859,0.619863 -3.20888,1.660593 -3.326865,1.660593 -0.03176,0 -0.105011,-0.07647 -0.162777,-0.169937 z"
       style="fill:#000000;fill-opacity:0;stroke:none;stroke-width:0.16605932;stroke-opacity:1" />
  </g>
  <path
     style="fill:#000000;fill-opacity:0;stroke:none;stroke-width:0.16605932;stroke-opacity:1"
     d="m 21.053167,22.94552 c -0.05776,-0.09346 -0.566579,-0.394567 -1.130701,-0.669116 -0.56412,-0.274551 -1.474034,-0.747473 -2.022029,-1.050938 -0.547996,-0.303465 -1.519443,-0.832419 -2.158772,-1.175451 -1.183208,-0.634851 -2.355146,-1.266753 -4.36025,-2.351023 C 10.765576,17.365975 9.8507112,16.874621 9.3483818,16.607094 6.7033041,15.198398 4.6176941,14.071916 2.9550981,13.153947 2.3157697,12.800955 1.4377311,12.347218 1.0039011,12.145643 0.57007118,11.944068 0.21511939,11.686784 0.21511939,11.5739 c 0,-0.112883 0.42967848,-0.406965 0.95484111,-0.653515 C 1.695123,10.673835 2.6478884,10.17902 3.2872167,9.8207956 3.9265451,9.4625716 4.8606288,8.9521553 5.3629582,8.6865369 5.8652876,8.4209187 6.7620079,7.9425812 7.35567,7.6235647 7.949332,7.3045483 8.9389238,6.7728621 9.5547628,6.44204 11.086007,5.6194723 12.618066,4.794356 13.955335,4.0720375 c 0.617151,-0.333351 1.53309,-0.827547 2.035419,-1.0982134 0.50233,-0.2706664 1.409183,-0.7628062 2.015232,-1.0936441 0.606048,-0.3308378 1.623085,-0.8725308 2.260085,-1.20376217 l 1.158179,-0.60223892 0.895043,0.46334505 c 1.686348,0.87298774 2.888625,1.51199054 4.050169,2.15263694 0.639328,0.3526202 1.610775,0.875707 2.158771,1.1624152 0.547996,0.2867083 1.519443,0.8078512 2.158771,1.1580952 0.639328,0.350244 1.610775,0.8707579 2.158771,1.1566973 0.547996,0.2859394 1.519443,0.8091137 2.158771,1.1626095 0.639329,0.3534958 1.552361,0.8314323 2.028959,1.062081 0.476601,0.2306488 0.962324,0.5062601 1.079386,0.6124696 0.117063,0.1062096 0.623838,0.4038194 1.126168,0.6613555 1.774767,0.9098938 2.910603,1.5057858 3.298823,1.7306568 0.38376,0.222287 0.364678,0.241623 -0.830297,0.841377 -0.672694,0.337624 -1.746168,0.900849 -2.385497,1.251613 -0.639328,0.350763 -1.573412,0.83656 -2.075741,1.079549 -0.50233,0.24299 -0.953229,0.506225 -1.001999,0.584968 -0.04877,0.07874 -0.497131,0.340069 -0.996356,0.580724 -0.499225,0.240655 -1.43077,0.726779 -2.070098,1.080275 -0.639329,0.353495 -1.610776,0.87667 -2.158771,1.162609 -0.547996,0.285939 -1.519443,0.806452 -2.158772,1.156696 -0.639328,0.350246 -1.610775,0.871388 -2.158771,1.158096 -0.547995,0.286708 -1.519442,0.809795 -2.158771,1.162416 -1.123859,0.619863 -3.20888,1.660593 -3.326865,1.660593 -0.03176,0 -0.105011,-0.07647 -0.162777,-0.169937 z"
     id="path4502"
     inkscape:connector-curvature="0" />
  <path
     style="fill:#000000;fill-opacity:0;stroke:none;stroke-width:0.16605932;stroke-opacity:1"
     d="m 21.053167,22.94552 c -0.05776,-0.09346 -0.566579,-0.394567 -1.130701,-0.669116 -0.56412,-0.274551 -1.474034,-0.747473 -2.022029,-1.050938 -0.547996,-0.303465 -1.519443,-0.832419 -2.158772,-1.175451 -1.183208,-0.634851 -2.355146,-1.266753 -4.36025,-2.351023 C 10.765576,17.365975 9.8507112,16.874621 9.3483818,16.607094 6.7033041,15.198398 4.6176941,14.071916 2.9550981,13.153947 2.3157697,12.800955 1.4377311,12.347218 1.0039011,12.145643 0.57007118,11.944068 0.21511939,11.686784 0.21511939,11.5739 c 0,-0.112883 0.42967848,-0.406965 0.95484111,-0.653515 C 1.695123,10.673835 2.6478884,10.17902 3.2872167,9.8207956 3.9265451,9.4625716 4.8606288,8.9521553 5.3629582,8.6865369 5.8652876,8.4209187 6.7620079,7.9425812 7.35567,7.6235647 7.949332,7.3045483 8.9389238,6.7728621 9.5547628,6.44204 11.086007,5.6194723 12.618066,4.794356 13.955335,4.0720375 c 0.617151,-0.333351 1.53309,-0.827547 2.035419,-1.0982134 0.50233,-0.2706664 1.409183,-0.7628062 2.015232,-1.0936441 0.606048,-0.3308378 1.623085,-0.8725308 2.260085,-1.20376217 l 1.158179,-0.60223892 0.895043,0.46334505 c 1.686348,0.87298774 2.888625,1.51199054 4.050169,2.15263694 0.639328,0.3526202 1.610775,0.875707 2.158771,1.1624152 0.547996,0.2867083 1.519443,0.8078512 2.158771,1.1580952 0.639328,0.350244 1.610775,0.8707579 2.158771,1.1566973 0.547996,0.2859394 1.519443,0.8091137 2.158771,1.1626095 0.639329,0.3534958 1.552361,0.8314323 2.028959,1.062081 0.476601,0.2306488 0.962324,0.5062601 1.079386,0.6124696 0.117063,0.1062096 0.623838,0.4038194 1.126168,0.6613555 1.774767,0.9098938 2.910603,1.5057858 3.298823,1.7306568 0.38376,0.222287 0.364678,0.241623 -0.830297,0.841377 -0.672694,0.337624 -1.746168,0.900849 -2.385497,1.251613 -0.639328,0.350763 -1.573412,0.83656 -2.075741,1.079549 -0.50233,0.24299 -0.953229,0.506225 -1.001999,0.584968 -0.04877,0.07874 -0.497131,0.340069 -0.996356,0.580724 -0.499225,0.240655 -1.43077,0.726779 -2.070098,1.080275 -0.639329,0.353495 -1.610776,0.87667 -2.158771,1.162609 -0.547996,0.285939 -1.519443,0.806452 -2.158772,1.156696 -0.639328,0.350246 -1.610775,0.871388 -2.158771,1.158096 -0.547995,0.286708 -1.519442,0.809795 -2.158771,1.162416 -1.123859,0.619863 -3.20888,1.660593 -3.326865,1.660593 -0.03176,0 -0.105011,-0.07647 -0.162777,-0.169937 z"
     id="path4504"
     inkscape:connector-curvature="0" />
  <path
     style="fill:#000000;fill-opacity:0;stroke:none;stroke-width:0.16605932;stroke-opacity:1"
     d="m 21.053167,22.94552 c -0.05776,-0.09346 -0.566579,-0.394567 -1.130701,-0.669116 -0.56412,-0.274551 -1.474034,-0.747473 -2.022029,-1.050938 -0.547996,-0.303465 -1.519443,-0.832419 -2.158772,-1.175451 -1.183208,-0.634851 -2.355146,-1.266753 -4.36025,-2.351023 C 10.765576,17.365975 9.8507112,16.874621 9.3483818,16.607094 6.7033041,15.198398 4.6176941,14.071916 2.9550981,13.153947 2.3157697,12.800955 1.4377311,12.347218 1.0039011,12.145643 0.57007118,11.944068 0.21511939,11.686784 0.21511939,11.5739 c 0,-0.112883 0.42967848,-0.406965 0.95484111,-0.653515 C 1.695123,10.673835 2.6478884,10.17902 3.2872167,9.8207956 3.9265451,9.4625716 4.8606288,8.9521553 5.3629582,8.6865369 5.8652876,8.4209187 6.7620079,7.9425812 7.35567,7.6235647 7.949332,7.3045483 8.9389238,6.7728621 9.5547628,6.44204 11.086007,5.6194723 12.618066,4.794356 13.955335,4.0720375 c 0.617151,-0.333351 1.53309,-0.827547 2.035419,-1.0982134 0.50233,-0.2706664 1.409183,-0.7628062 2.015232,-1.0936441 0.606048,-0.3308378 1.623085,-0.8725308 2.260085,-1.20376217 l 1.158179,-0.60223892 0.895043,0.46334505 c 1.686348,0.87298774 2.888625,1.51199054 4.050169,2.15263694 0.639328,0.3526202 1.610775,0.875707 2.158771,1.1624152 0.547996,0.2867083 1.519443,0.8078512 2.158771,1.1580952 0.639328,0.350244 1.610775,0.8707579 2.158771,1.1566973 0.547996,0.2859394 1.519443,0.8091137 2.158771,1.1626095 0.639329,0.3534958 1.552361,0.8314323 2.028959,1.062081 0.476601,0.2306488 0.962324,0.5062601 1.079386,0.6124696 0.117063,0.1062096 0.623838,0.4038194 1.126168,0.6613555 1.774767,0.9098938 2.910603,1.5057858 3.298823,1.7306568 0.38376,0.222287 0.364678,0.241623 -0.830297,0.841377 -0.672694,0.337624 -1.746168,0.900849 -2.385497,1.251613 -0.639328,0.350763 -1.573412,0.83656 -2.075741,1.079549 -0.50233,0.24299 -0.953229,0.506225 -1.001999,0.584968 -0.04877,0.07874 -0.497131,0.340069 -0.996356,0.580724 -0.499225,0.240655 -1.43077,0.726779 -2.070098,1.080275 -0.639329,0.353495 -1.610776,0.87667 -2.158771,1.162609 -0.547996,0.285939 -1.519443,0.806452 -2.158772,1.156696 -0.639328,0.350246 -1.610775,0.871388 -2.158771,1.158096 -0.547995,0.286708 -1.519442,0.809795 -2.158771,1.162416 -1.123859,0.619863 -3.20888,1.660593 -3.326865,1.660593 -0.03176,0 -0.105011,-0.07647 -0.162777,-0.169937 z"
     id="path4506"
     inkscape:connector-curvature="0" />
  <path
     style="fill:#000000;fill-opacity:0;stroke:none;stroke-width:0.16605932;stroke-opacity:1"
     d="m 21.053167,22.94552 c -0.05776,-0.09346 -0.566579,-0.394567 -1.130701,-0.669116 -0.56412,-0.274551 -1.474034,-0.747473 -2.022029,-1.050938 -0.547996,-0.303465 -1.519443,-0.832419 -2.158772,-1.175451 -1.183208,-0.634851 -2.355146,-1.266753 -4.36025,-2.351023 C 10.765576,17.365975 9.8507112,16.874621 9.3483818,16.607094 6.7033041,15.198398 4.6176941,14.071916 2.9550981,13.153947 2.3157697,12.800955 1.4377311,12.347218 1.0039011,12.145643 0.57007118,11.944068 0.21511939,11.686784 0.21511939,11.5739 c 0,-0.112883 0.42967848,-0.406965 0.95484111,-0.653515 C 1.695123,10.673835 2.6478884,10.17902 3.2872167,9.8207956 3.9265451,9.4625716 4.8606288,8.9521553 5.3629582,8.6865369 5.8652876,8.4209187 6.7620079,7.9425812 7.35567,7.6235647 7.949332,7.3045483 8.9389238,6.7728621 9.5547628,6.44204 11.086007,5.6194723 12.618066,4.794356 13.955335,4.0720375 c 0.617151,-0.333351 1.53309,-0.827547 2.035419,-1.0982134 0.50233,-0.2706664 1.409183,-0.7628062 2.015232,-1.0936441 0.606048,-0.3308378 1.623085,-0.8725308 2.260085,-1.20376217 l 1.158179,-0.60223892 0.895043,0.46334505 c 1.686348,0.87298774 2.888625,1.51199054 4.050169,2.15263694 0.639328,0.3526202 1.610775,0.875707 2.158771,1.1624152 0.547996,0.2867083 1.519443,0.8078512 2.158771,1.1580952 0.639328,0.350244 1.610775,0.8707579 2.158771,1.1566973 0.547996,0.2859394 1.519443,0.8091137 2.158771,1.1626095 0.639329,0.3534958 1.552361,0.8314323 2.028959,1.062081 0.476601,0.2306488 0.962324,0.5062601 1.079386,0.6124696 0.117063,0.1062096 0.623838,0.4038194 1.126168,0.6613555 1.774767,0.9098938 2.910603,1.5057858 3.298823,1.7306568 0.38376,0.222287 0.364678,0.241623 -0.830297,0.841377 -0.672694,0.337624 -1.746168,0.900849 -2.385497,1.251613 -0.639328,0.350763 -1.573412,0.83656 -2.075741,1.079549 -0.50233,0.24299 -0.953229,0.506225 -1.001999,0.584968 -0.04877,0.07874 -0.497131,0.340069 -0.996356,0.580724 -0.499225,0.240655 -1.43077,0.726779 -2.070098,1.080275 -0.639329,0.353495 -1.610776,0.87667 -2.158771,1.162609 -0.547996,0.285939 -1.519443,0.806452 -2.158772,1.156696 -0.639328,0.350246 -1.610775,0.871388 -2.158771,1.158096 -0.547995,0.286708 -1.519442,0.809795 -2.158771,1.162416 -1.123859,0.619863 -3.20888,1.660593 -3.326865,1.660593 -0.03176,0 -0.105011,-0.07647 -0.162777,-0.169937 z"
     id="path4508"
     inkscape:connector-curvature="0" />
  <path
     style="fill:#000000;fill-opacity:0;stroke:none;stroke-width:0.16605932;stroke-opacity:1"
     d="m 21.053167,22.94552 c -0.05776,-0.09346 -0.566579,-0.394567 -1.130701,-0.669116 -0.56412,-0.274551 -1.474034,-0.747473 -2.022029,-1.050938 -0.547996,-0.303465 -1.519443,-0.832419 -2.158772,-1.175451 -1.183208,-0.634851 -2.355146,-1.266753 -4.36025,-2.351023 C 10.765576,17.365975 9.8507112,16.874621 9.3483818,16.607094 6.7033041,15.198398 4.6176941,14.071916 2.9550981,13.153947 2.3157697,12.800955 1.4377311,12.347218 1.0039011,12.145643 0.57007118,11.944068 0.21511939,11.686784 0.21511939,11.5739 c 0,-0.112883 0.42967848,-0.406965 0.95484111,-0.653515 C 1.695123,10.673835 2.6478884,10.17902 3.2872167,9.8207956 3.9265451,9.4625716 4.8606288,8.9521553 5.3629582,8.6865369 5.8652876,8.4209187 6.7620079,7.9425812 7.35567,7.6235647 7.949332,7.3045483 8.9389238,6.7728621 9.5547628,6.44204 11.086007,5.6194723 12.618066,4.794356 13.955335,4.0720375 c 0.617151,-0.333351 1.53309,-0.827547 2.035419,-1.0982134 0.50233,-0.2706664 1.409183,-0.7628062 2.015232,-1.0936441 0.606048,-0.3308378 1.623085,-0.8725308 2.260085,-1.20376217 l 1.158179,-0.60223892 0.895043,0.46334505 c 1.686348,0.87298774 2.888625,1.51199054 4.050169,2.15263694 0.639328,0.3526202 1.610775,0.875707 2.158771,1.1624152 0.547996,0.2867083 1.519443,0.8078512 2.158771,1.1580952 0.639328,0.350244 1.610775,0.8707579 2.158771,1.1566973 0.547996,0.2859394 1.519443,0.8091137 2.158771,1.1626095 0.639329,0.3534958 1.552361,0.8314323 2.028959,1.062081 0.476601,0.2306488 0.962324,0.5062601 1.079386,0.6124696 0.117063,0.1062096 0.623838,0.4038194 1.126168,0.6613555 1.774767,0.9098938 2.910603,1.5057858 3.298823,1.7306568 0.38376,0.222287 0.364678,0.241623 -0.830297,0.841377 -0.672694,0.337624 -1.746168,0.900849 -2.385497,1.251613 -0.639328,0.350763 -1.573412,0.83656 -2.075741,1.079549 -0.50233,0.24299 -0.953229,0.506225 -1.001999,0.584968 -0.04877,0.07874 -0.497131,0.340069 -0.996356,0.580724 -0.499225,0.240655 -1.43077,0.726779 -2.070098,1.080275 -0.639329,0.353495 -1.610776,0.87667 -2.158771,1.162609 -0.547996,0.285939 -1.519443,0.806452 -2.158772,1.156696 -0.639328,0.350246 -1.610775,0.871388 -2.158771,1.158096 -0.547995,0.286708 -1.519442,0.809795 -2.158771,1.162416 -1.123859,0.619863 -3.20888,1.660593 -3.326865,1.660593 -0.03176,0 -0.105011,-0.07647 -0.162777,-0.169937 z"
     id="path4510"
     inkscape:connector-curvature="0" />
  <path
     style="fill:#000000;fill-opacity:0;stroke:none;stroke-width:0.16605932;stroke-opacity:1"
     d="m 21.053167,22.94552 c -0.05776,-0.09346 -0.566579,-0.394567 -1.130701,-0.669116 -0.56412,-0.274551 -1.474034,-0.747473 -2.022029,-1.050938 -0.547996,-0.303465 -1.519443,-0.832419 -2.158772,-1.175451 -1.183208,-0.634851 -2.355146,-1.266753 -4.36025,-2.351023 C 10.765576,17.365975 9.8507112,16.874621 9.3483818,16.607094 6.7033041,15.198398 4.6176941,14.071916 2.9550981,13.153947 2.3157697,12.800955 1.4377311,12.347218 1.0039011,12.145643 0.57007118,11.944068 0.21511939,11.686784 0.21511939,11.5739 c 0,-0.112883 0.42967848,-0.406965 0.95484111,-0.653515 C 1.695123,10.673835 2.6478884,10.17902 3.2872167,9.8207956 3.9265451,9.4625716 4.8606288,8.9521553 5.3629582,8.6865369 5.8652876,8.4209187 6.7620079,7.9425812 7.35567,7.6235647 7.949332,7.3045483 8.9389238,6.7728621 9.5547628,6.44204 11.086007,5.6194723 12.618066,4.794356 13.955335,4.0720375 c 0.617151,-0.333351 1.53309,-0.827547 2.035419,-1.0982134 0.50233,-0.2706664 1.409183,-0.7628062 2.015232,-1.0936441 0.606048,-0.3308378 1.623085,-0.8725308 2.260085,-1.20376217 l 1.158179,-0.60223892 0.895043,0.46334505 c 1.686348,0.87298774 2.888625,1.51199054 4.050169,2.15263694 0.639328,0.3526202 1.610775,0.875707 2.158771,1.1624152 0.547996,0.2867083 1.519443,0.8078512 2.158771,1.1580952 0.639328,0.350244 1.610775,0.8707579 2.158771,1.1566973 0.547996,0.2859394 1.519443,0.8091137 2.158771,1.1626095 0.639329,0.3534958 1.552361,0.8314323 2.028959,1.062081 0.476601,0.2306488 0.962324,0.5062601 1.079386,0.6124696 0.117063,0.1062096 0.623838,0.4038194 1.126168,0.6613555 1.774767,0.9098938 2.910603,1.5057858 3.298823,1.7306568 0.38376,0.222287 0.364678,0.241623 -0.830297,0.841377 -0.672694,0.337624 -1.746168,0.900849 -2.385497,1.251613 -0.639328,0.350763 -1.573412,0.83656 -2.075741,1.079549 -0.50233,0.24299 -0.953229,0.506225 -1.001999,0.584968 -0.04877,0.07874 -0.497131,0.340069 -0.996356,0.580724 -0.499225,0.240655 -1.43077,0.726779 -2.070098,1.080275 -0.639329,0.353495 -1.610776,0.87667 -2.158771,1.162609 -0.547996,0.285939 -1.519443,0.806452 -2.158772,1.156696 -0.639328,0.350246 -1.610775,0.871388 -2.158771,1.158096 -0.547995,0.286708 -1.519442,0.809795 -2.158771,1.162416 -1.123859,0.619863 -3.20888,1.660593 -3.326865,1.660593 -0.03176,0 -0.105011,-0.07647 -0.162777,-0.169937 z"
     id="path4512"
     inkscape:connector-curvature="0" />
  <path
     style="fill:#000000;fill-opacity:0;stroke:none;stroke-width:0.16605932;stroke-opacity:1"
     d="m 21.053167,22.94552 c -0.05776,-0.09346 -0.566579,-0.394567 -1.130701,-0.669116 -0.56412,-0.274551 -1.474034,-0.747473 -2.022029,-1.050938 -0.547996,-0.303465 -1.519443,-0.832419 -2.158772,-1.175451 -1.183208,-0.634851 -2.355146,-1.266753 -4.36025,-2.351023 C 10.765576,17.365975 9.8507112,16.874621 9.3483818,16.607094 6.7033041,15.198398 4.6176941,14.071916 2.9550981,13.153947 2.3157697,12.800955 1.4377311,12.347218 1.0039011,12.145643 0.57007118,11.944068 0.21511939,11.686784 0.21511939,11.5739 c 0,-0.112883 0.42967848,-0.406965 0.95484111,-0.653515 C 1.695123,10.673835 2.6478884,10.17902 3.2872167,9.8207956 3.9265451,9.4625716 4.8606288,8.9521553 5.3629582,8.6865369 5.8652876,8.4209187 6.7620079,7.9425812 7.35567,7.6235647 7.949332,7.3045483 8.9389238,6.7728621 9.5547628,6.44204 11.086007,5.6194723 12.618066,4.794356 13.955335,4.0720375 c 0.617151,-0.333351 1.53309,-0.827547 2.035419,-1.0982134 0.50233,-0.2706664 1.409183,-0.7628062 2.015232,-1.0936441 0.606048,-0.3308378 1.623085,-0.8725308 2.260085,-1.20376217 l 1.158179,-0.60223892 0.895043,0.46334505 c 1.686348,0.87298774 2.888625,1.51199054 4.050169,2.15263694 0.639328,0.3526202 1.610775,0.875707 2.158771,1.1624152 0.547996,0.2867083 1.519443,0.8078512 2.158771,1.1580952 0.639328,0.350244 1.610775,0.8707579 2.158771,1.1566973 0.547996,0.2859394 1.519443,0.8091137 2.158771,1.1626095 0.639329,0.3534958 1.552361,0.8314323 2.028959,1.062081 0.476601,0.2306488 0.962324,0.5062601 1.079386,0.6124696 0.117063,0.1062096 0.623838,0.4038194 1.126168,0.6613555 1.774767,0.9098938 2.910603,1.5057858 3.298823,1.7306568 0.38376,0.222287 0.364678,0.241623 -0.830297,0.841377 -0.672694,0.337624 -1.746168,0.900849 -2.385497,1.251613 -0.639328,0.350763 -1.573412,0.83656 -2.075741,1.079549 -0.50233,0.24299 -0.953229,0.506225 -1.001999,0.584968 -0.04877,0.07874 -0.497131,0.340069 -0.996356,0.580724 -0.499225,0.240655 -1.43077,0.726779 -2.070098,1.080275 -0.639329,0.353495 -1.610776,0.87667 -2.158771,1.162609 -0.547996,0.285939 -1.519443,0.806452 -2.158772,1.156696 -0.639328,0.350246 -1.610775,0.871388 -2.158771,1.158096 -0.547995,0.286708 -1.519442,0.809795 -2.158771,1.162416 -1.123859,0.619863 -3.20888,1.660593 -3.326865,1.660593 -0.03176,0 -0.105011,-0.07647 -0.162777,-0.169937 z"
     id="path4514"
     inkscape:connector-curvature="0" />
  <path
     style="fill:#000000;fill-opacity:0;stroke:none;stroke-width:0.16605932;stroke-opacity:1"
     d="m 21.053167,22.94552 c -0.05776,-0.09346 -0.566579,-0.394567 -1.130701,-0.669116 -0.56412,-0.274551 -1.474034,-0.747473 -2.022029,-1.050938 -0.547996,-0.303465 -1.519443,-0.832419 -2.158772,-1.175451 -1.183208,-0.634851 -2.355146,-1.266753 -4.36025,-2.351023 C 10.765576,17.365975 9.8507112,16.874621 9.3483818,16.607094 6.7033041,15.198398 4.6176941,14.071916 2.9550981,13.153947 2.3157697,12.800955 1.4377311,12.347218 1.0039011,12.145643 0.57007118,11.944068 0.21511939,11.686784 0.21511939,11.5739 c 0,-0.112883 0.42967848,-0.406965 0.95484111,-0.653515 C 1.695123,10.673835 2.6478884,10.17902 3.2872167,9.8207956 3.9265451,9.4625716 4.8606288,8.9521553 5.3629582,8.6865369 5.8652876,8.4209187 6.7620079,7.9425812 7.35567,7.6235647 7.949332,7.3045483 8.9389238,6.7728621 9.5547628,6.44204 11.086007,5.6194723 12.618066,4.794356 13.955335,4.0720375 c 0.617151,-0.333351 1.53309,-0.827547 2.035419,-1.0982134 0.50233,-0.2706664 1.409183,-0.7628062 2.015232,-1.0936441 0.606048,-0.3308378 1.623085,-0.8725308 2.260085,-1.20376217 l 1.158179,-0.60223892 0.895043,0.46334505 c 1.686348,0.87298774 2.888625,1.51199054 4.050169,2.15263694 0.639328,0.3526202 1.610775,0.875707 2.158771,1.1624152 0.547996,0.2867083 1.519443,0.8078512 2.158771,1.1580952 0.639328,0.350244 1.610775,0.8707579 2.158771,1.1566973 0.547996,0.2859394 1.519443,0.8091137 2.158771,1.1626095 0.639329,0.3534958 1.552361,0.8314323 2.028959,1.062081 0.476601,0.2306488 0.962324,0.5062601 1.079386,0.6124696 0.117063,0.1062096 0.623838,0.4038194 1.126168,0.6613555 1.774767,0.9098938 2.910603,1.5057858 3.298823,1.7306568 0.38376,0.222287 0.364678,0.241623 -0.830297,0.841377 -0.672694,0.337624 -1.746168,0.900849 -2.385497,1.251613 -0.639328,0.350763 -1.573412,0.83656 -2.075741,1.079549 -0.50233,0.24299 -0.953229,0.506225 -1.001999,0.584968 -0.04877,0.07874 -0.497131,0.340069 -0.996356,0.580724 -0.499225,0.240655 -1.43077,0.726779 -2.070098,1.080275 -0.639329,0.353495 -1.610776,0.87667 -2.158771,1.162609 -0.547996,0.285939 -1.519443,0.806452 -2.158772,1.156696 -0.639328,0.350246 -1.610775,0.871388 -2.158771,1.158096 -0.547995,0.286708 -1.519442,0.809795 -2.158771,1.162416 -1.123859,0.619863 -3.20888,1.660593 -3.326865,1.660593 -0.03176,0 -0.105011,-0.07647 -0.162777,-0.169937 z"
     id="path4516"
     inkscape:connector-curvature="0" />
  <path
     style="fill:#000000;fill-opacity:0;stroke:none;stroke-width:0.16605932;stroke-opacity:1"
     d="m 21.053167,22.94552 c -0.05776,-0.09346 -0.566579,-0.394567 -1.130701,-0.669116 -0.56412,-0.274551 -1.474034,-0.747473 -2.022029,-1.050938 -0.547996,-0.303465 -1.519443,-0.832419 -2.158772,-1.175451 -1.183208,-0.634851 -2.355146,-1.266753 -4.36025,-2.351023 C 10.765576,17.365975 9.8507112,16.874621 9.3483818,16.607094 6.7033041,15.198398 4.6176941,14.071916 2.9550981,13.153947 2.3157697,12.800955 1.4377311,12.347218 1.0039011,12.145643 0.57007118,11.944068 0.21511939,11.686784 0.21511939,11.5739 c 0,-0.112883 0.42967848,-0.406965 0.95484111,-0.653515 C 1.695123,10.673835 2.6478884,10.17902 3.2872167,9.8207956 3.9265451,9.4625716 4.8606288,8.9521553 5.3629582,8.6865369 5.8652876,8.4209187 6.7620079,7.9425812 7.35567,7.6235647 7.949332,7.3045483 8.9389238,6.7728621 9.5547628,6.44204 11.086007,5.6194723 12.618066,4.794356 13.955335,4.0720375 c 0.617151,-0.333351 1.53309,-0.827547 2.035419,-1.0982134 0.50233,-0.2706664 1.409183,-0.7628062 2.015232,-1.0936441 0.606048,-0.3308378 1.623085,-0.8725308 2.260085,-1.20376217 l 1.158179,-0.60223892 0.895043,0.46334505 c 1.686348,0.87298774 2.888625,1.51199054 4.050169,2.15263694 0.639328,0.3526202 1.610775,0.875707 2.158771,1.1624152 0.547996,0.2867083 1.519443,0.8078512 2.158771,1.1580952 0.639328,0.350244 1.610775,0.8707579 2.158771,1.1566973 0.547996,0.2859394 1.519443,0.8091137 2.158771,1.1626095 0.639329,0.3534958 1.552361,0.8314323 2.028959,1.062081 0.476601,0.2306488 0.962324,0.5062601 1.079386,0.6124696 0.117063,0.1062096 0.623838,0.4038194 1.126168,0.6613555 1.774767,0.9098938 2.910603,1.5057858 3.298823,1.7306568 0.38376,0.222287 0.364678,0.241623 -0.830297,0.841377 -0.672694,0.337624 -1.746168,0.900849 -2.385497,1.251613 -0.639328,0.350763 -1.573412,0.83656 -2.075741,1.079549 -0.50233,0.24299 -0.953229,0.506225 -1.001999,0.584968 -0.04877,0.07874 -0.497131,0.340069 -0.996356,0.580724 -0.499225,0.240655 -1.43077,0.726779 -2.070098,1.080275 -0.639329,0.353495 -1.610776,0.87667 -2.158771,1.162609 -0.547996,0.285939 -1.519443,0.806452 -2.158772,1.156696 -0.639328,0.350246 -1.610775,0.871388 -2.158771,1.158096 -0.547995,0.286708 -1.519442,0.809795 -2.158771,1.162416 -1.123859,0.619863 -3.20888,1.660593 -3.326865,1.660593 -0.03176,0 -0.105011,-0.07647 -0.162777,-0.169937 z"
     id="path4518"
     inkscape:connector-curvature="0" />
  <path
     style="fill:#000000;fill-opacity:0;stroke:none;stroke-width:0.16605932;stroke-opacity:1"
     d="m 21.053167,22.94552 c -0.05776,-0.09346 -0.566579,-0.394567 -1.130701,-0.669116 -0.56412,-0.274551 -1.474034,-0.747473 -2.022029,-1.050938 -0.547996,-0.303465 -1.519443,-0.832419 -2.158772,-1.175451 -1.183208,-0.634851 -2.355146,-1.266753 -4.36025,-2.351023 C 10.765576,17.365975 9.8507112,16.874621 9.3483818,16.607094 6.7033041,15.198398 4.6176941,14.071916 2.9550981,13.153947 2.3157697,12.800955 1.4377311,12.347218 1.0039011,12.145643 0.57007118,11.944068 0.21511939,11.686784 0.21511939,11.5739 c 0,-0.112883 0.42967848,-0.406965 0.95484111,-0.653515 C 1.695123,10.673835 2.6478884,10.17902 3.2872167,9.8207956 3.9265451,9.4625716 4.8606288,8.9521553 5.3629582,8.6865369 5.8652876,8.4209187 6.7620079,7.9425812 7.35567,7.6235647 7.949332,7.3045483 8.9389238,6.7728621 9.5547628,6.44204 11.086007,5.6194723 12.618066,4.794356 13.955335,4.0720375 c 0.617151,-0.333351 1.53309,-0.827547 2.035419,-1.0982134 0.50233,-0.2706664 1.409183,-0.7628062 2.015232,-1.0936441 0.606048,-0.3308378 1.623085,-0.8725308 2.260085,-1.20376217 l 1.158179,-0.60223892 0.895043,0.46334505 c 1.686348,0.87298774 2.888625,1.51199054 4.050169,2.15263694 0.639328,0.3526202 1.610775,0.875707 2.158771,1.1624152 0.547996,0.2867083 1.519443,0.8078512 2.158771,1.1580952 0.639328,0.350244 1.610775,0.8707579 2.158771,1.1566973 0.547996,0.2859394 1.519443,0.8091137 2.158771,1.1626095 0.639329,0.3534958 1.552361,0.8314323 2.028959,1.062081 0.476601,0.2306488 0.962324,0.5062601 1.079386,0.6124696 0.117063,0.1062096 0.623838,0.4038194 1.126168,0.6613555 1.774767,0.9098938 2.910603,1.5057858 3.298823,1.7306568 0.38376,0.222287 0.364678,0.241623 -0.830297,0.841377 -0.672694,0.337624 -1.746168,0.900849 -2.385497,1.251613 -0.639328,0.350763 -1.573412,0.83656 -2.075741,1.079549 -0.50233,0.24299 -0.953229,0.506225 -1.001999,0.584968 -0.04877,0.07874 -0.497131,0.340069 -0.996356,0.580724 -0.499225,0.240655 -1.43077,0.726779 -2.070098,1.080275 -0.639329,0.353495 -1.610776,0.87667 -2.158771,1.162609 -0.547996,0.285939 -1.519443,0.806452 -2.158772,1.156696 -0.639328,0.350246 -1.610775,0.871388 -2.158771,1.158096 -0.547995,0.286708 -1.519442,0.809795 -2.158771,1.162416 -1.123859,0.619863 -3.20888,1.660593 -3.326865,1.660593 -0.03176,0 -0.105011,-0.07647 -0.162777,-0.169937 z"
     id="path4520"
     inkscape:connector-curvature="0" />
  <path
     style="fill:#000000;fill-opacity:0;stroke:none;stroke-width:0.16605932;stroke-opacity:1"
     d="m 21.053167,22.94552 c -0.05776,-0.09346 -0.566579,-0.394567 -1.130701,-0.669116 -0.56412,-0.274551 -1.474034,-0.747473 -2.022029,-1.050938 -0.547996,-0.303465 -1.519443,-0.832419 -2.158772,-1.175451 -1.183208,-0.634851 -2.355146,-1.266753 -4.36025,-2.351023 C 10.765576,17.365975 9.8507112,16.874621 9.3483818,16.607094 6.7033041,15.198398 4.6176941,14.071916 2.9550981,13.153947 2.3157697,12.800955 1.4377311,12.347218 1.0039011,12.145643 0.57007118,11.944068 0.21511939,11.686784 0.21511939,11.5739 c 0,-0.112883 0.42967848,-0.406965 0.95484111,-0.653515 C 1.695123,10.673835 2.6478884,10.17902 3.2872167,9.8207956 3.9265451,9.4625716 4.8606288,8.9521553 5.3629582,8.6865369 5.8652876,8.4209187 6.7620079,7.9425812 7.35567,7.6235647 7.949332,7.3045483 8.9389238,6.7728621 9.5547628,6.44204 11.086007,5.6194723 12.618066,4.794356 13.955335,4.0720375 c 0.617151,-0.333351 1.53309,-0.827547 2.035419,-1.0982134 0.50233,-0.2706664 1.409183,-0.7628062 2.015232,-1.0936441 0.606048,-0.3308378 1.623085,-0.8725308 2.260085,-1.20376217 l 1.158179,-0.60223892 0.895043,0.46334505 c 1.686348,0.87298774 2.888625,1.51199054 4.050169,2.15263694 0.639328,0.3526202 1.610775,0.875707 2.158771,1.1624152 0.547996,0.2867083 1.519443,0.8078512 2.158771,1.1580952 0.639328,0.350244 1.610775,0.8707579 2.158771,1.1566973 0.547996,0.2859394 1.519443,0.8091137 2.158771,1.1626095 0.639329,0.3534958 1.552361,0.8314323 2.028959,1.062081 0.476601,0.2306488 0.962324,0.5062601 1.079386,0.6124696 0.117063,0.1062096 0.623838,0.4038194 1.126168,0.6613555 1.774767,0.9098938 2.910603,1.5057858 3.298823,1.7306568 0.38376,0.222287 0.364678,0.241623 -0.830297,0.841377 -0.672694,0.337624 -1.746168,0.900849 -2.385497,1.251613 -0.639328,0.350763 -1.573412,0.83656 -2.075741,1.079549 -0.50233,0.24299 -0.953229,0.506225 -1.001999,0.584968 -0.04877,0.07874 -0.497131,0.340069 -0.996356,0.580724 -0.499225,0.240655 -1.43077,0.726779 -2.070098,1.080275 -0.639329,0.353495 -1.610776,0.87667 -2.158771,1.162609 -0.547996,0.285939 -1.519443,0.806452 -2.158772,1.156696 -0.639328,0.350246 -1.610775,0.871388 -2.158771,1.158096 -0.547995,0.286708 -1.519442,0.809795 -2.158771,1.162416 -1.123859,0.619863 -3.20888,1.660593 -3.326865,1.660593 -0.03176,0 -0.105011,-0.07647 -0.162777,-0.169937 z"
     id="path4522"
     inkscape:connector-curvature="0" />
  <path
     style="fill:#000000;fill-opacity:0;stroke:none;stroke-width:0.16605932;stroke-opacity:1"
     d="m 13.199791,30.367491 -8.0218317,-4.345996 3.2061115,-0.08303 c 2.1561502,-0.05584 3.1245382,-0.13569 2.9570232,-0.243832 -0.136999,-0.08844 -0.69745,-0.395294 -1.245445,-0.681894 C 8.8536544,24.363181 6.6596234,23.188139 3.5363057,21.499796 2.9426437,21.178886 2.1580134,20.764396 1.7926829,20.578709 1.4273524,20.393021 0.87819688,20.092536 0.57233729,19.910964 L 0.01622895,19.580833 0.7383966,19.212491 c 0.3971922,-0.202588 1.2927672,-0.669496 1.9901669,-1.037574 l 1.267999,-0.669231 0.7201076,0.322402 c 0.3960591,0.177321 0.7595432,0.386071 0.8077422,0.46389 0.048199,0.07782 0.4986317,0.340299 1.0009611,0.583288 0.5023294,0.242989 1.4364131,0.730787 2.0757415,1.083995 0.6393283,0.353208 1.6107751,0.876776 2.1587711,1.163484 0.547996,0.286708 1.519443,0.809795 2.158771,1.162415 0.639328,0.35262 1.610775,0.873944 2.158771,1.158496 0.547996,0.284553 1.519443,0.804965 2.158771,1.156472 0.639329,0.351506 1.610776,0.874593 2.158771,1.162415 0.547996,0.287822 1.255279,0.667781 1.57174,0.844352 0.51535,0.287543 0.610643,0.295377 0.913326,0.07508 0.185869,-0.135276 0.74894,-0.460138 1.251269,-0.721915 0.502329,-0.261778 1.417195,-0.748428 2.033034,-1.081446 0.615838,-0.333017 1.624648,-0.87702 2.241801,-1.208894 0.617151,-0.331875 1.570453,-0.851698 2.118449,-1.155164 0.547995,-0.303466 1.444716,-0.786007 1.992711,-1.072313 0.547996,-0.286306 1.519443,-0.807003 2.158772,-1.157103 5.03495,-2.757174 4.972704,-2.729808 5.708048,-2.509494 0.350584,0.105038 0.90446,0.372191 1.230831,0.593673 0.326373,0.221482 0.953624,0.562127 1.393894,0.756988 l 0.800489,0.354293 -0.415148,0.335306 c -0.228332,0.184418 -0.863509,0.561774 -1.411504,0.83857 -0.547996,0.276795 -1.519443,0.79167 -2.158772,1.144166 -0.639328,0.352496 -1.610775,0.875583 -2.158771,1.162415 -0.547995,0.286833 -1.519442,0.80911 -2.158771,1.160617 -0.639328,0.351506 -1.610775,0.871918 -2.158771,1.156471 -0.547996,0.284553 -1.519443,0.806681 -2.158771,1.160285 -0.639328,0.353604 -1.623969,0.869747 -2.188089,1.146984 -0.564122,0.277237 -1.071933,0.578912 -1.128469,0.670391 -0.06691,0.108256 1.001274,0.182078 3.059608,0.211451 l 3.162402,0.04513 -5.773484,3.113612 c -3.175416,1.712486 -5.846764,3.107735 -5.936328,3.100551 -0.08956,-0.0072 -3.772667,-1.968759 -8.184675,-4.359058 z m 8.270921,0.718813 c -0.136999,-0.08854 -0.323816,-0.160974 -0.415148,-0.160974 -0.09133,0 -0.05397,0.07244 0.08303,0.160974 0.136999,0.08854 0.323816,0.160974 0.415149,0.160974 0.09133,0 0.05397,-0.07244 -0.08303,-0.160974 z m 2.255147,-1.121392 c -0.07597,-0.07597 -1.092732,0.428134 -1.092732,0.541762 0,0.04184 0.260605,-0.04819 0.579122,-0.200085 0.318518,-0.151891 0.549641,-0.305645 0.51361,-0.341677 z m -4.321113,0.03672 c -0.177288,-0.134094 -0.401468,-0.24116 -0.498178,-0.237923 -0.09671,0.0032 0.01098,0.112678 0.239313,0.243204 0.537908,0.307497 0.668862,0.304825 0.258865,-0.0053 z m 6.479884,-1.19914 c -0.07597,-0.07597 -1.092732,0.428134 -1.092732,0.541762 0,0.04184 0.260605,-0.04819 0.579122,-0.200086 0.318518,-0.15189 0.549641,-0.305644 0.51361,-0.341676 z m -8.638655,0.03673 c -0.177288,-0.134094 -0.401468,-0.24116 -0.498178,-0.237923 -0.09671,0.0032 0.01098,0.112678 0.239313,0.243204 0.537908,0.307496 0.668862,0.304825 0.258865,-0.0053 z m -2.158771,-1.162415 c -0.177288,-0.134095 -0.401468,-0.24116 -0.498178,-0.237924 -0.09671,0.0032 0.01098,0.112679 0.239313,0.243205 0.537909,0.307496 0.668862,0.304825 0.258865,-0.0053 z m -2.158771,-1.162415 c -0.177288,-0.134095 -0.401469,-0.24116 -0.498178,-0.237924 -0.09671,0.0032 0.01098,0.112679 0.239313,0.243205 0.537908,0.307496 0.668862,0.304824 0.258865,-0.0053 z"
     id="path4524"
     inkscape:connector-curvature="0" />
  <path
     style="fill:#000000;fill-opacity:0;stroke:none;stroke-width:0.16605932;stroke-opacity:1"
     d="m 21.053167,22.94552 c -0.05776,-0.09346 -0.566579,-0.394567 -1.130701,-0.669116 -0.56412,-0.274551 -1.474034,-0.747473 -2.022029,-1.050938 -0.547996,-0.303465 -1.519443,-0.832419 -2.158772,-1.175451 -1.183208,-0.634851 -2.355146,-1.266753 -4.36025,-2.351023 C 10.765576,17.365975 9.8507112,16.874621 9.3483818,16.607094 6.7033041,15.198398 4.6176941,14.071916 2.9550981,13.153947 2.3157697,12.800955 1.4377311,12.347218 1.0039011,12.145643 0.57007118,11.944068 0.21511939,11.686784 0.21511939,11.5739 c 0,-0.112883 0.42967848,-0.406965 0.95484111,-0.653515 C 1.695123,10.673835 2.6478884,10.17902 3.2872167,9.8207956 3.9265451,9.4625716 4.8606288,8.9521553 5.3629582,8.6865369 5.8652876,8.4209187 6.7620079,7.9425812 7.35567,7.6235647 7.949332,7.3045483 8.9389238,6.7728621 9.5547628,6.44204 11.086007,5.6194723 12.618066,4.794356 13.955335,4.0720375 c 0.617151,-0.333351 1.53309,-0.827547 2.035419,-1.0982134 0.50233,-0.2706664 1.409183,-0.7628062 2.015232,-1.0936441 0.606048,-0.3308378 1.623085,-0.8725308 2.260085,-1.20376217 l 1.158179,-0.60223892 0.895043,0.46334505 c 1.686348,0.87298774 2.888625,1.51199054 4.050169,2.15263694 0.639328,0.3526202 1.610775,0.875707 2.158771,1.1624152 0.547996,0.2867083 1.519443,0.8078512 2.158771,1.1580952 0.639328,0.350244 1.610775,0.8707579 2.158771,1.1566973 0.547996,0.2859394 1.519443,0.8091137 2.158771,1.1626095 0.639329,0.3534958 1.552361,0.8314323 2.028959,1.062081 0.476601,0.2306488 0.962324,0.5062601 1.079386,0.6124696 0.117063,0.1062096 0.623838,0.4038194 1.126168,0.6613555 1.774767,0.9098938 2.910603,1.5057858 3.298823,1.7306568 0.38376,0.222287 0.364678,0.241623 -0.830297,0.841377 -0.672694,0.337624 -1.746168,0.900849 -2.385497,1.251613 -0.639328,0.350763 -1.573412,0.83656 -2.075741,1.079549 -0.50233,0.24299 -0.953229,0.506225 -1.001999,0.584968 -0.04877,0.07874 -0.497131,0.340069 -0.996356,0.580724 -0.499225,0.240655 -1.43077,0.726779 -2.070098,1.080275 -0.639329,0.353495 -1.610776,0.87667 -2.158771,1.162609 -0.547996,0.285939 -1.519443,0.806452 -2.158772,1.156696 -0.639328,0.350246 -1.610775,0.871388 -2.158771,1.158096 -0.547995,0.286708 -1.519442,0.809795 -2.158771,1.162416 -1.123859,0.619863 -3.20888,1.660593 -3.326865,1.660593 -0.03176,0 -0.105011,-0.07647 -0.162777,-0.169937 z"
     id="path4526"
     inkscape:connector-curvature="0" />
  <path
     style="fill:#000000;fill-opacity:0;stroke:none;stroke-width:0.16605932;stroke-opacity:1"
     d="m 21.053167,22.94552 c -0.05776,-0.09346 -0.566579,-0.394567 -1.130701,-0.669116 -0.56412,-0.274551 -1.474034,-0.747473 -2.022029,-1.050938 -0.547996,-0.303465 -1.519443,-0.832419 -2.158772,-1.175451 -1.183208,-0.634851 -2.355146,-1.266753 -4.36025,-2.351023 C 10.765576,17.365975 9.8507112,16.874621 9.3483818,16.607094 6.7033041,15.198398 4.6176941,14.071916 2.9550981,13.153947 2.3157697,12.800955 1.4377311,12.347218 1.0039011,12.145643 0.57007118,11.944068 0.21511939,11.686784 0.21511939,11.5739 c 0,-0.112883 0.42967848,-0.406965 0.95484111,-0.653515 C 1.695123,10.673835 2.6478884,10.17902 3.2872167,9.8207956 3.9265451,9.4625716 4.8606288,8.9521553 5.3629582,8.6865369 5.8652876,8.4209187 6.7620079,7.9425812 7.35567,7.6235647 7.949332,7.3045483 8.9389238,6.7728621 9.5547628,6.44204 11.086007,5.6194723 12.618066,4.794356 13.955335,4.0720375 c 0.617151,-0.333351 1.53309,-0.827547 2.035419,-1.0982134 0.50233,-0.2706664 1.409183,-0.7628062 2.015232,-1.0936441 0.606048,-0.3308378 1.623085,-0.8725308 2.260085,-1.20376217 l 1.158179,-0.60223892 0.895043,0.46334505 c 1.686348,0.87298774 2.888625,1.51199054 4.050169,2.15263694 0.639328,0.3526202 1.610775,0.875707 2.158771,1.1624152 0.547996,0.2867083 1.519443,0.8078512 2.158771,1.1580952 0.639328,0.350244 1.610775,0.8707579 2.158771,1.1566973 0.547996,0.2859394 1.519443,0.8091137 2.158771,1.1626095 0.639329,0.3534958 1.552361,0.8314323 2.028959,1.062081 0.476601,0.2306488 0.962324,0.5062601 1.079386,0.6124696 0.117063,0.1062096 0.623838,0.4038194 1.126168,0.6613555 1.774767,0.9098938 2.910603,1.5057858 3.298823,1.7306568 0.38376,0.222287 0.364678,0.241623 -0.830297,0.841377 -0.672694,0.337624 -1.746168,0.900849 -2.385497,1.251613 -0.639328,0.350763 -1.573412,0.83656 -2.075741,1.079549 -0.50233,0.24299 -0.953229,0.506225 -1.001999,0.584968 -0.04877,0.07874 -0.497131,0.340069 -0.996356,0.580724 -0.499225,0.240655 -1.43077,0.726779 -2.070098,1.080275 -0.639329,0.353495 -1.610776,0.87667 -2.158771,1.162609 -0.547996,0.285939 -1.519443,0.806452 -2.158772,1.156696 -0.639328,0.350246 -1.610775,0.871388 -2.158771,1.158096 -0.547995,0.286708 -1.519442,0.809795 -2.158771,1.162416 -1.123859,0.619863 -3.20888,1.660593 -3.326865,1.660593 -0.03176,0 -0.105011,-0.07647 -0.162777,-0.169937 z"
     id="path4528"
     inkscape:connector-curvature="0" />
  <path
     style="fill:#000000;fill-opacity:0;stroke:none;stroke-width:0.16605932;stroke-opacity:1"
     d="m 21.053167,22.94552 c -0.05776,-0.09346 -0.566579,-0.394567 -1.130701,-0.669116 -0.56412,-0.274551 -1.474034,-0.747473 -2.022029,-1.050938 -0.547996,-0.303465 -1.519443,-0.832419 -2.158772,-1.175451 -1.183208,-0.634851 -2.355146,-1.266753 -4.36025,-2.351023 C 10.765576,17.365975 9.8507112,16.874621 9.3483818,16.607094 6.7033041,15.198398 4.6176941,14.071916 2.9550981,13.153947 2.3157697,12.800955 1.4377311,12.347218 1.0039011,12.145643 0.57007118,11.944068 0.21511939,11.686784 0.21511939,11.5739 c 0,-0.112883 0.42967848,-0.406965 0.95484111,-0.653515 C 1.695123,10.673835 2.6478884,10.17902 3.2872167,9.8207956 3.9265451,9.4625716 4.8606288,8.9521553 5.3629582,8.6865369 5.8652876,8.4209187 6.7620079,7.9425812 7.35567,7.6235647 7.949332,7.3045483 8.9389238,6.7728621 9.5547628,6.44204 11.086007,5.6194723 12.618066,4.794356 13.955335,4.0720375 c 0.617151,-0.333351 1.53309,-0.827547 2.035419,-1.0982134 0.50233,-0.2706664 1.409183,-0.7628062 2.015232,-1.0936441 0.606048,-0.3308378 1.623085,-0.8725308 2.260085,-1.20376217 l 1.158179,-0.60223892 0.895043,0.46334505 c 1.686348,0.87298774 2.888625,1.51199054 4.050169,2.15263694 0.639328,0.3526202 1.610775,0.875707 2.158771,1.1624152 0.547996,0.2867083 1.519443,0.8078512 2.158771,1.1580952 0.639328,0.350244 1.610775,0.8707579 2.158771,1.1566973 0.547996,0.2859394 1.519443,0.8091137 2.158771,1.1626095 0.639329,0.3534958 1.552361,0.8314323 2.028959,1.062081 0.476601,0.2306488 0.962324,0.5062601 1.079386,0.6124696 0.117063,0.1062096 0.623838,0.4038194 1.126168,0.6613555 1.774767,0.9098938 2.910603,1.5057858 3.298823,1.7306568 0.38376,0.222287 0.364678,0.241623 -0.830297,0.841377 -0.672694,0.337624 -1.746168,0.900849 -2.385497,1.251613 -0.639328,0.350763 -1.573412,0.83656 -2.075741,1.079549 -0.50233,0.24299 -0.953229,0.506225 -1.001999,0.584968 -0.04877,0.07874 -0.497131,0.340069 -0.996356,0.580724 -0.499225,0.240655 -1.43077,0.726779 -2.070098,1.080275 -0.639329,0.353495 -1.610776,0.87667 -2.158771,1.162609 -0.547996,0.285939 -1.519443,0.806452 -2.158772,1.156696 -0.639328,0.350246 -1.610775,0.871388 -2.158771,1.158096 -0.547995,0.286708 -1.519442,0.809795 -2.158771,1.162416 -1.123859,0.619863 -3.20888,1.660593 -3.326865,1.660593 -0.03176,0 -0.105011,-0.07647 -0.162777,-0.169937 z"
     id="path4530"
     inkscape:connector-curvature="0" />
  <path
     style="fill:#000000;fill-opacity:0;stroke:none;stroke-width:0.16605932;stroke-opacity:1"
     d="m 21.053167,22.94552 c -0.05776,-0.09346 -0.566579,-0.394567 -1.130701,-0.669116 -0.56412,-0.274551 -1.474034,-0.747473 -2.022029,-1.050938 -0.547996,-0.303465 -1.519443,-0.832419 -2.158772,-1.175451 -1.183208,-0.634851 -2.355146,-1.266753 -4.36025,-2.351023 C 10.765576,17.365975 9.8507112,16.874621 9.3483818,16.607094 6.7033041,15.198398 4.6176941,14.071916 2.9550981,13.153947 2.3157697,12.800955 1.4377311,12.347218 1.0039011,12.145643 0.57007118,11.944068 0.21511939,11.686784 0.21511939,11.5739 c 0,-0.112883 0.42967848,-0.406965 0.95484111,-0.653515 C 1.695123,10.673835 2.6478884,10.17902 3.2872167,9.8207956 3.9265451,9.4625716 4.8606288,8.9521553 5.3629582,8.6865369 5.8652876,8.4209187 6.7620079,7.9425812 7.35567,7.6235647 7.949332,7.3045483 8.9389238,6.7728621 9.5547628,6.44204 11.086007,5.6194723 12.618066,4.794356 13.955335,4.0720375 c 0.617151,-0.333351 1.53309,-0.827547 2.035419,-1.0982134 0.50233,-0.2706664 1.409183,-0.7628062 2.015232,-1.0936441 0.606048,-0.3308378 1.623085,-0.8725308 2.260085,-1.20376217 l 1.158179,-0.60223892 0.895043,0.46334505 c 1.686348,0.87298774 2.888625,1.51199054 4.050169,2.15263694 0.639328,0.3526202 1.610775,0.875707 2.158771,1.1624152 0.547996,0.2867083 1.519443,0.8078512 2.158771,1.1580952 0.639328,0.350244 1.610775,0.8707579 2.158771,1.1566973 0.547996,0.2859394 1.519443,0.8091137 2.158771,1.1626095 0.639329,0.3534958 1.552361,0.8314323 2.028959,1.062081 0.476601,0.2306488 0.962324,0.5062601 1.079386,0.6124696 0.117063,0.1062096 0.623838,0.4038194 1.126168,0.6613555 1.774767,0.9098938 2.910603,1.5057858 3.298823,1.7306568 0.38376,0.222287 0.364678,0.241623 -0.830297,0.841377 -0.672694,0.337624 -1.746168,0.900849 -2.385497,1.251613 -0.639328,0.350763 -1.573412,0.83656 -2.075741,1.079549 -0.50233,0.24299 -0.953229,0.506225 -1.001999,0.584968 -0.04877,0.07874 -0.497131,0.340069 -0.996356,0.580724 -0.499225,0.240655 -1.43077,0.726779 -2.070098,1.080275 -0.639329,0.353495 -1.610776,0.87667 -2.158771,1.162609 -0.547996,0.285939 -1.519443,0.806452 -2.158772,1.156696 -0.639328,0.350246 -1.610775,0.871388 -2.158771,1.158096 -0.547995,0.286708 -1.519442,0.809795 -2.158771,1.162416 -1.123859,0.619863 -3.20888,1.660593 -3.326865,1.660593 -0.03176,0 -0.105011,-0.07647 -0.162777,-0.169937 z"
     id="path4532"
     inkscape:connector-curvature="0" />
  <path
     style="fill:#000000;fill-opacity:0;stroke:none;stroke-width:0.16605932;stroke-opacity:1"
     d="m 21.053167,22.94552 c -0.05776,-0.09346 -0.566579,-0.394567 -1.130701,-0.669116 -0.56412,-0.274551 -1.474034,-0.747473 -2.022029,-1.050938 -0.547996,-0.303465 -1.519443,-0.832419 -2.158772,-1.175451 -1.183208,-0.634851 -2.355146,-1.266753 -4.36025,-2.351023 C 10.765576,17.365975 9.8507112,16.874621 9.3483818,16.607094 6.7033041,15.198398 4.6176941,14.071916 2.9550981,13.153947 2.3157697,12.800955 1.4377311,12.347218 1.0039011,12.145643 0.57007118,11.944068 0.21511939,11.686784 0.21511939,11.5739 c 0,-0.112883 0.42967848,-0.406965 0.95484111,-0.653515 C 1.695123,10.673835 2.6478884,10.17902 3.2872167,9.8207956 3.9265451,9.4625716 4.8606288,8.9521553 5.3629582,8.6865369 5.8652876,8.4209187 6.7620079,7.9425812 7.35567,7.6235647 7.949332,7.3045483 8.9389238,6.7728621 9.5547628,6.44204 11.086007,5.6194723 12.618066,4.794356 13.955335,4.0720375 c 0.617151,-0.333351 1.53309,-0.827547 2.035419,-1.0982134 0.50233,-0.2706664 1.409183,-0.7628062 2.015232,-1.0936441 0.606048,-0.3308378 1.623085,-0.8725308 2.260085,-1.20376217 l 1.158179,-0.60223892 0.895043,0.46334505 c 1.686348,0.87298774 2.888625,1.51199054 4.050169,2.15263694 0.639328,0.3526202 1.610775,0.875707 2.158771,1.1624152 0.547996,0.2867083 1.519443,0.8078512 2.158771,1.1580952 0.639328,0.350244 1.610775,0.8707579 2.158771,1.1566973 0.547996,0.2859394 1.519443,0.8091137 2.158771,1.1626095 0.639329,0.3534958 1.552361,0.8314323 2.028959,1.062081 0.476601,0.2306488 0.962324,0.5062601 1.079386,0.6124696 0.117063,0.1062096 0.623838,0.4038194 1.126168,0.6613555 1.774767,0.9098938 2.910603,1.5057858 3.298823,1.7306568 0.38376,0.222287 0.364678,0.241623 -0.830297,0.841377 -0.672694,0.337624 -1.746168,0.900849 -2.385497,1.251613 -0.639328,0.350763 -1.573412,0.83656 -2.075741,1.079549 -0.50233,0.24299 -0.953229,0.506225 -1.001999,0.584968 -0.04877,0.07874 -0.497131,0.340069 -0.996356,0.580724 -0.499225,0.240655 -1.43077,0.726779 -2.070098,1.080275 -0.639329,0.353495 -1.610776,0.87667 -2.158771,1.162609 -0.547996,0.285939 -1.519443,0.806452 -2.158772,1.156696 -0.639328,0.350246 -1.610775,0.871388 -2.158771,1.158096 -0.547995,0.286708 -1.519442,0.809795 -2.158771,1.162416 -1.123859,0.619863 -3.20888,1.660593 -3.326865,1.660593 -0.03176,0 -0.105011,-0.07647 -0.162777,-0.169937 z"
     id="path4534"
     inkscape:connector-curvature="0" />
</svg>
