<svg height="480pt" viewBox="-56 0 480 480" width="480pt" xmlns="http://www.w3.org/2000/svg"><path d="m24 8h320c8.835938 0 16 7.164062 16 16v432c0 8.835938-7.164062 16-16 16h-320c-8.835938 0-16-7.164062-16-16v-432c0-8.835938 7.164062-16 16-16zm0 0" fill="#aabece"/><path d="m24 8h320c8.835938 0 16 7.164062 16 16v32h-352v-32c0-8.835938 7.164062-16 16-16zm0 0" fill="#5a6470"/><path d="m128 136h112c22.089844 0 40 17.910156 40 40v80c0 22.089844-17.910156 40-40 40h-112c-22.089844 0-40-17.910156-40-40v-80c0-22.089844 17.910156-40 40-40zm0 0" fill="#fff"/><path d="m8 376h352v80c0 8.835938-7.164062 16-16 16h-320c-8.835938 0-16-7.164062-16-16zm0 0" fill="#5a6470"/><path d="m208 424c0 13.253906-10.746094 24-24 24s-24-10.746094-24-24 10.746094-24 24-24 24 10.746094 24 24zm0 0" fill="#cfdfe8"/><path d="m217.601562 204c-2.144531.003906-4.277343.308594-6.335937.902344-1.695313-11.570313-11.335937-20.332032-23.015625-20.914063-11.679688-.585937-22.144531 7.171875-24.984375 18.515625-3.375-1.648437-7.078125-2.507812-10.832031-2.503906-13.257813 0-24 10.746094-24 24s10.742187 24 24 24h65.167968c12.148438 0 22-9.851562 22-22s-9.851562-22-22-22zm0 0" fill="#36afad"/><g fill="#fff"><path d="m40 120c-4.417969 0-8-3.582031-8-8v-24c0-4.417969 3.582031-8 8-8h32c4.417969 0 8 3.582031 8 8s-3.582031 8-8 8h-24v16c0 4.417969-3.582031 8-8 8zm0 0"/><path d="m328 352h-32c-4.417969 0-8-3.582031-8-8s3.582031-8 8-8h24v-16c0-4.417969 3.582031-8 8-8s8 3.582031 8 8v24c0 4.417969-3.582031 8-8 8zm0 0"/><path d="m328 296c-4.417969 0-8-3.582031-8-8v-24c0-4.417969 3.582031-8 8-8s8 3.582031 8 8v24c0 4.417969-3.582031 8-8 8zm0 0"/><path d="m40 176c-4.417969 0-8-3.582031-8-8v-24c0-4.417969 3.582031-8 8-8s8 3.582031 8 8v24c0 4.417969-3.582031 8-8 8zm0 0"/></g><path d="m344 480c13.253906 0 24-10.746094 24-24v-432c0-13.253906-10.746094-24-24-24h-320c-13.253906 0-24 10.746094-24 24v432c0 13.253906 10.746094 24 24 24zm-328-456c0-4.417969 3.582031-8 8-8h320c4.417969 0 8 3.582031 8 8v24h-336zm0 40h336v304h-336zm0 392v-72h336v72c0 4.417969-3.582031 8-8 8h-320c-4.417969 0-8-3.582031-8-8zm0 0"/><path d="m184 448c13.253906 0 24-10.746094 24-24s-10.746094-24-24-24-24 10.746094-24 24 10.746094 24 24 24zm0-32c4.417969 0 8 3.582031 8 8s-3.582031 8-8 8-8-3.582031-8-8 3.582031-8 8-8zm0 0"/><path d="m217.601562 196h-.488281c-4.8125-11.484375-15.746093-19.226562-28.175781-19.957031-12.433594-.726563-24.195312 5.6875-30.3125 16.53125-12.019531-2.496094-24.410156 2.09375-31.902344 11.8125-7.496094 9.722656-8.777344 22.875-3.300781 33.859375 5.472656 10.988281 16.742187 17.882812 29.019531 17.753906h65.160156c16.566407 0 30-13.429688 30-30s-13.433593-30-30-30zm0 44h-65.160156c-8.839844 0-16-7.164062-16-16s7.160156-16 16-16c2.542969-.003906 5.050782.578125 7.335938 1.703125 2.179687 1.066406 4.726562 1.082031 6.921875.046875 2.195312-1.039062 3.800781-3.011719 4.363281-5.375 1.960938-7.574219 8.972656-12.734375 16.789062-12.347656 7.816407.390625 14.285157 6.214844 15.484376 13.949218.304687 2.308594 1.597656 4.375 3.546874 5.652344 1.949219 1.273438 4.359376 1.640625 6.597657.996094 4.289062-1.285156 8.929687-.5 12.558593 2.121094 3.625 2.621094 5.832032 6.78125 5.960938 11.253906-.121094 7.835938-6.5625 14.097656-14.398438 14zm0 0"/><path d="m288 176c-.027344-26.5-21.5-47.972656-48-48h-112c-26.5.027344-47.972656 21.5-48 48v80c.027344 26.5 21.5 47.972656 48 48h112c26.5-.027344 47.972656-21.5 48-48zm-16 80c0 17.671875-14.328125 32-32 32h-112c-17.671875 0-32-14.328125-32-32v-80c0-17.671875 14.328125-32 32-32h112c17.671875 0 32 14.328125 32 32zm0 0"/><path d="m72 80h-32c-4.417969 0-8 3.582031-8 8v24c0 4.417969 3.582031 8 8 8s8-3.582031 8-8v-16h24c4.417969 0 8-3.582031 8-8s-3.582031-8-8-8zm0 0"/><path d="m328 312c-4.417969 0-8 3.582031-8 8v16h-24c-4.417969 0-8 3.582031-8 8s3.582031 8 8 8h32c4.417969 0 8-3.582031 8-8v-24c0-4.417969-3.582031-8-8-8zm0 0"/><path d="m328 256c-4.417969 0-8 3.582031-8 8v24c0 4.417969 3.582031 8 8 8s8-3.582031 8-8v-24c0-4.417969-3.582031-8-8-8zm0 0"/><path d="m40 136c-4.417969 0-8 3.582031-8 8v24c0 4.417969 3.582031 8 8 8s8-3.582031 8-8v-24c0-4.417969-3.582031-8-8-8zm0 0"/></svg>