<svg height="512pt" viewBox="0 0 512 512" width="512pt" xmlns="http://www.w3.org/2000/svg"><path d="m504.480469 167.894531c0 88.574219-71.800781 160.375-160.375 160.375s-160.375-71.800781-160.375-160.375 71.800781-160.375 160.375-160.375 160.375 71.800781 160.375 160.375zm0 0" fill="#ada3b2"/><path d="m474.410156 167.894531c0 71.964844-58.339844 130.304688-130.304687 130.304688-71.964844 0-130.304688-58.339844-130.304688-130.304688 0-71.964843 58.339844-130.304687 130.304688-130.304687 71.964843 0 130.304687 58.339844 130.304687 130.304687zm0 0" fill="#f7f6f7"/><path d="m366.15625 276.148438c-71.964844 0-130.304688-58.339844-130.304688-130.304688 0-30.367188 10.386719-58.304688 27.800782-80.457031-30.355469 23.855469-49.851563 60.90625-49.851563 102.507812 0 71.964844 58.339844 130.304688 130.304688 130.304688 41.601562 0 78.652343-19.496094 102.507812-49.851563-22.152343 17.414063-50.09375 27.800782-80.457031 27.800782zm0 0" fill="#dedae0"/><path d="m168.375 320.9375 52.121094-52.121094 22.683594 22.679688-52.121094 52.121094zm0 0" fill="#dedae0"/><path d="m168.09375 304.214844-152.355469 152.355468c-10.960937 10.960938-10.960937 28.730469 0 39.691407 10.960938 10.960937 28.730469 10.960937 39.691407 0l152.355468-152.355469zm0 0" fill="#887dca"/><path d="m191.648438 327.765625-152.359376 152.355469c-8.085937 8.085937-19.875 10.199218-29.90625 6.355468 1.367188 3.566407 3.480469 6.910157 6.355469 9.785157 10.960938 10.960937 28.730469 10.960937 39.691407 0l152.355468-152.359375zm0 0" fill="#6a5dbd"/><path d="m416.519531 224.027344s-40.09375-24.058594-72.167969 0c0-8.019532 0-96.226563 0-104.246094 32.074219-24.058594 72.167969 0 72.167969 0zm0 0" fill="#dfebf0"/><path d="m344.351562 119.78125v104.246094c8.097657-6.078125 16.710938-9.082032 25.058594-10.183594v-104.242188c-8.347656 1.101563-16.960937 4.105469-25.058594 10.179688zm0 0" fill="#bfd7e1"/><path d="m272.179688 224.027344s40.097656-24.058594 72.171874 0c0-8.019532 0-96.226563 0-104.246094-32.074218-24.058594-72.171874 0-72.171874 0zm0 0" fill="#bfd7e1"/><path d="m344.351562 119.78125c-8.101562-6.074219-16.710937-9.078125-25.058593-10.179688v104.242188c8.347656 1.101562 16.957031 4.105469 25.058593 10.183594 0-8.019532 0-96.226563 0-104.246094zm0 0" fill="#a0c2d2"/><path d="m344.105469 0c-92.578125 0-167.894531 75.316406-167.894531 167.894531 0 37.335938 12.257812 71.863281 32.953124 99.777344l-32.640624 34.335937-3.113282-3.109374c-2.933594-2.9375-7.695312-2.9375-10.628906 0l-152.359375 152.355468c-6.722656 6.722656-10.421875 15.65625-10.421875 25.160156 0 9.503907 3.703125 18.441407 10.421875 25.164063 6.9375 6.9375 16.050781 10.402344 25.160156 10.402344 9.113281 0 18.226563-3.464844 25.164063-10.402344l152.355468-152.359375c2.9375-2.933594 2.9375-7.695312 0-10.628906l-3.265624-3.265625 32.367187-34.09375c28.28125 21.660156 63.609375 34.558593 101.902344 34.558593 92.578125 0 167.894531-75.316406 167.894531-167.894531s-75.316406-167.894531-167.894531-167.894531zm-293.992188 490.945312c-8.011719 8.011719-21.046875 8.011719-29.058593 0-8.011719-8.011718-8.011719-21.046874 0-29.058593l147.039062-147.042969 29.0625 29.058594zm149.089844-166.257812-12.046875-12.042969 31.574219-33.214843c3.773437 4.234374 7.753906 8.28125 11.933593 12.117187zm144.902344-3.933594c-84.285157 0-152.859375-68.574218-152.859375-152.859375 0-84.289062 68.574218-152.859375 152.859375-152.859375 84.285156 0 152.859375 68.570313 152.859375 152.859375 0 84.285157-68.570313 152.859375-152.859375 152.859375zm0 0"/><path d="m406.773438 45.109375c-3.695313-1.886719-8.222657-.425781-10.117188 3.273437-1.890625 3.695313-.425781 8.222657 3.273438 10.113282 41.304687 21.125 66.964843 63.042968 66.964843 109.398437 0 67.703125-55.082031 122.785157-122.789062 122.785157s-122.789063-55.082032-122.789063-122.785157c0-67.707031 55.085938-122.789062 122.789063-122.789062 7.769531 0 15.546875.730469 23.109375 2.167969 4.074218.78125 8.011718-1.898438 8.792968-5.976563.773438-4.078125-1.902343-8.015625-5.980468-8.792969-8.488282-1.613281-17.210938-2.433594-25.921875-2.433594-75.996094 0-137.820313 61.828126-137.820313 137.824219 0 75.996094 61.824219 137.824219 137.820313 137.824219 75.996093 0 137.824219-61.828125 137.824219-137.824219 0-52.03125-28.796876-99.078125-75.15625-122.785156zm0 0"/><path d="m392.464844 239.5625c4.152344 0 7.515625-3.367188 7.515625-7.519531v-7.109375c7.550781 2.566406 12.503906 5.4375 12.683593 5.546875 4.925782 2.941406 11.375-.734375 11.375-6.453125v-104.246094c0-2.640625-1.386718-5.089844-3.652343-6.445312-1.738281-1.042969-41.316407-24.273438-76.035157-2.648438-34.722656-21.625-74.300781 1.605469-76.039062 2.648438-2.261719 1.355468-3.648438 3.804687-3.648438 6.445312v104.246094c0 5.726562 6.460938 9.398437 11.382813 6.445312.359375-.214844 36.082031-21.21875 63.792969-.433594 2.636718 1.972657 6.382812 1.972657 9.019531 0 11.644531-8.730468 24.777344-10.042968 36.085937-8.628906v10.632813c0 4.152343 3.367188 7.519531 7.519532 7.519531zm-112.765625-27.40625v-87.832031c9.398437-4.511719 35.214843-14.480469 57.132812-.605469v87.222656c-21.691406-9.578125-44.070312-3.941406-57.132812 1.214844zm72.167969-1.214844v-87.21875c21.824218-13.789062 47.71875-3.863281 57.136718.621094v87.8125c-7.902344-3.117188-19.203125-6.410156-31.699218-6.410156-8.171876 0-16.859376 1.410156-25.4375 5.195312zm0 0"/></svg>