<svg height="512pt" viewBox="-2 0 512 512.00101" width="512pt" xmlns="http://www.w3.org/2000/svg"><path d="m330.539062 256.40625v-74.628906h26.660157l2.078125 13.265625h57.378906v-66.492188h-231.164062v66.492188h57.789062l1.664062-13.265625h26.660157v180.949218h58.933593v-30.746093" fill="#b6baf2"/><path d="m184.65625 304.476562v-44.382812h15.855469l1.234375 7.886719h34.125v-39.542969h-137.480469v39.542969h34.371094l.988281-7.886719h15.855469v107.613281h35.050781zm0 0" fill="#5f69e3"/><g fill="#e3e3e3"><path d="m9.652344 10.078125h49.9375v49.9375h-49.9375zm0 0"/><path d="m9.652344 451.984375h49.9375v49.9375h-49.9375zm0 0"/><path d="m497.769531 60.015625h-49.9375v-49.9375h49.9375zm0 0"/><path d="m497.769531 497.09375h-49.9375v-49.941406h49.9375zm0 0"/></g><path d="m236.296875 218.359375h-137.476563c-5.566406 0-10.078124 4.511719-10.078124 10.078125v39.542969c0 5.566406 4.511718 10.078125 10.078124 10.078125h34.367188c2.589844 0 4.972656-.980469 6.769531-2.609375v92.257812c0 5.566407 4.511719 10.078125 10.078125 10.078125h35.046875c5.566407 0 10.078125-4.511718 10.078125-10.078125v-92.488281c1.828125 1.769531 4.308594 2.839844 7.011719 2.839844h34.125c5.566406 0 10.078125-4.511719 10.078125-10.078125v-39.542969c0-5.566406-4.511719-10.078125-10.078125-10.078125zm-10.074219 39.546875h-15.445312c-1.015625-4.582031-5.089844-7.890625-9.839844-7.890625h-15.851562c-5.566407 0-10.078126 4.511719-10.078126 10.078125v97.535156h-14.898437v-97.535156c0-5.566406-4.511719-10.078125-10.074219-10.078125h-15.855468c-4.761719 0-8.828126 3.320313-9.839844 7.890625h-15.441406v-19.390625h117.324218zm0 0"/><path d="m427.160156 195.042969v-66.492188c0-5.566406-4.511718-10.078125-10.078125-10.078125h-231.164062c-5.566407 0-10.078125 4.511719-10.078125 10.078125v66.492188c0 5.566406 4.511718 10.078125 10.078125 10.078125h57.792969c5.078124 0 9.363281-3.78125 9.996093-8.824219l.558594-4.441406h7.691406v170.871093c0 5.5625 4.511719 10.078126 10.078125 10.078126h58.933594c5.5625 0 10.078125-4.515626 10.078125-10.078126v-30.746093c0-5.566407-4.515625-10.078125-10.078125-10.078125-5.566406 0-10.078125 4.511718-10.078125 10.078125v20.667969h-38.78125v-170.871094c0-5.566406-4.511719-10.078125-10.074219-10.078125h-26.660156c-5.082031 0-9.367188 3.78125-10 8.824219l-.558594 4.441406h-38.820312v-46.335938h211.007812v46.335938h-38.675781l-.746094-4.746094c-.765625-4.902344-4.992187-8.519531-9.953125-8.519531h-26.660156c-5.566406 0-10.078125 4.511719-10.078125 10.078125v74.628906c0 5.5625 4.511719 10.074219 10.078125 10.074219 5.5625 0 10.078125-4.511719 10.078125-10.074219v-64.550781h7.957031l.742188 4.746093c.769531 4.90625 4.992187 8.519532 9.957031 8.519532h57.378906c5.566407 0 10.078125-4.511719 10.078125-10.078125zm0 0"/><path d="m327.84375 284.464844-.347656.082031c-5.417969 1.277344-8.773438 6.703125-7.496094 12.121094 1.097656 4.640625 5.234375 7.765625 9.800781 7.765625.765625 0 1.542969-.085938 2.324219-.273438l.351562-.082031c5.414063-1.277344 8.769532-6.703125 7.492188-12.121094-1.277344-5.414062-6.703125-8.769531-12.125-7.492187zm0 0"/><path d="m10.078125 70.09375h14.890625v30.21875c0 5.566406 4.515625 10.078125 10.078125 10.078125 5.566406 0 10.078125-4.511719 10.078125-10.078125v-30.21875h14.890625c5.566406 0 10.078125-4.511719 10.078125-10.078125v-14.890625h35.425781c5.566407 0 10.078125-4.511719 10.078125-10.078125s-4.511718-10.078125-10.078125-10.078125h-35.425781v-14.890625c0-5.566406-4.511719-10.078125-10.078125-10.078125h-49.9375c-5.566406 0-10.078125 4.511719-10.078125 10.078125v49.9375c0 5.566406 4.511719 10.078125 10.078125 10.078125zm10.078125-49.9375h29.785156v29.78125h-29.785156zm0 0"/><path d="m105.523438 466.875h-35.429688v-14.890625c0-5.566406-4.511719-10.078125-10.078125-10.078125h-14.890625v-30.21875c0-5.566406-4.511719-10.078125-10.078125-10.078125-5.5625 0-10.078125 4.511719-10.078125 10.078125v30.21875h-14.890625c-5.566406 0-10.078125 4.511719-10.078125 10.078125v49.9375c0 5.566406 4.511719 10.078125 10.078125 10.078125h49.9375c5.566406 0 10.078125-4.511719 10.078125-10.078125v-14.890625h35.429688c5.5625 0 10.074218-4.511719 10.074218-10.078125 0-5.5625-4.511718-10.078125-10.074218-10.078125zm-55.582032 24.96875h-29.785156v-29.78125h29.785156zm0 0"/><path d="m498.199219 0h-49.941407c-5.5625 0-10.074218 4.511719-10.074218 10.078125v14.890625h-35.429688c-5.5625 0-10.078125 4.511719-10.078125 10.078125s4.515625 10.078125 10.078125 10.078125h35.429688v14.890625c0 5.566406 4.511718 10.078125 10.074218 10.078125h14.894532v30.21875c0 5.566406 4.511718 10.078125 10.078125 10.078125 5.5625 0 10.074219-4.511719 10.074219-10.078125v-30.21875h14.894531c5.5625 0 10.074219-4.511719 10.074219-10.078125v-49.9375c.003906-5.566406-4.507813-10.078125-10.074219-10.078125zm-10.078125 49.9375h-29.785156v-29.78125h29.785156zm0 0"/><path d="m498.199219 437.078125h-14.890625v-30.222656c0-5.5625-4.515625-10.074219-10.078125-10.074219-5.566407 0-10.078125 4.511719-10.078125 10.074219v30.222656h-14.890625c-5.566407 0-10.078125 4.511719-10.078125 10.074219v14.894531h-35.429688c-5.5625 0-10.074218 4.511719-10.074218 10.078125 0 5.5625 4.511718 10.074219 10.074218 10.074219h35.429688v14.890625c0 5.566406 4.511718 10.078125 10.078125 10.078125h49.9375c5.566406 0 10.078125-4.511719 10.078125-10.078125v-49.9375c0-5.566406-4.511719-10.074219-10.078125-10.074219zm-10.078125 49.9375h-29.785156v-29.785156h29.785156zm0 0"/><path d="m210.644531 466.140625h-42.613281c-5.5625 0-10.078125 4.511719-10.078125 10.074219 0 5.566406 4.515625 10.078125 10.078125 10.078125h42.613281c5.566407 0 10.078125-4.511719 10.078125-10.078125 0-5.5625-4.511718-10.074219-10.078125-10.074219zm0 0"/><path d="m325.183594 466.140625h-42.613282c-5.566406 0-10.078124 4.511719-10.078124 10.074219 0 5.566406 4.511718 10.078125 10.078124 10.078125h42.613282c5.566406 0 10.078125-4.511719 10.078125-10.078125 0-5.5625-4.511719-10.074219-10.078125-10.074219zm0 0"/><path d="m168.03125 46.78125h42.613281c5.566407 0 10.078125-4.511719 10.078125-10.078125s-4.511718-10.078125-10.078125-10.078125h-42.613281c-5.5625 0-10.078125 4.511719-10.078125 10.078125s4.515625 10.078125 10.078125 10.078125zm0 0"/><path d="m282.570312 46.78125h42.613282c5.566406 0 10.078125-4.511719 10.078125-10.078125s-4.511719-10.078125-10.078125-10.078125h-42.613282c-5.566406 0-10.078124 4.511719-10.078124 10.078125s4.511718 10.078125 10.078124 10.078125zm0 0"/><path d="m473.230469 223.34375c5.5625 0 10.078125-4.511719 10.078125-10.078125v-42.613281c0-5.566406-4.515625-10.078125-10.078125-10.078125-5.566407 0-10.078125 4.511719-10.078125 10.078125v42.613281c0 5.566406 4.511718 10.078125 10.078125 10.078125zm0 0"/><path d="m463.152344 327.804688c0 5.5625 4.511718 10.078124 10.078125 10.078124 5.5625 0 10.078125-4.515624 10.078125-10.078124v-42.613282c0-5.566406-4.515625-10.078125-10.078125-10.078125-5.566407 0-10.078125 4.511719-10.078125 10.078125zm0 0"/><path d="m45.125 170.652344c0-5.566406-4.511719-10.078125-10.078125-10.078125-5.5625 0-10.078125 4.511719-10.078125 10.078125v42.613281c0 5.566406 4.515625 10.078125 10.078125 10.078125 5.566406 0 10.078125-4.511719 10.078125-10.078125zm0 0"/><path d="m35.046875 275.113281c-5.5625 0-10.078125 4.511719-10.078125 10.078125v42.613282c0 5.5625 4.515625 10.078124 10.078125 10.078124 5.566406 0 10.078125-4.515624 10.078125-10.078124v-42.613282c0-5.566406-4.511719-10.078125-10.078125-10.078125zm0 0"/></svg>